G04 EAGLE Gerber X2 export*
%TF.Part,Single*%
%TF.FileFunction,Copper,L1,Top,Mixed*%
%TF.FilePolarity,Positive*%
%TF.GenerationSoftware,Autodesk,EAGLE,9.1.3*%
%TF.CreationDate,2018-11-04T16:40:41Z*%
G75*
%MOIN*%
%FSLAX34Y34*%
%LPD*%
%AMOC8*
5,1,8,0,0,1.08239X$1,22.5*%
G01*
%ADD10C,0.066000*%
%ADD11C,0.010000*%
%ADD12R,0.025000X0.050000*%
%ADD13C,0.031748*%
%ADD14C,0.006000*%


D10*
X4350Y7500D03*
X4350Y6500D03*
X4350Y5500D03*
X8250Y3000D03*
X9250Y3000D03*
X10250Y3000D03*
X750Y3000D03*
X1750Y3000D03*
X2750Y3000D03*
X4000Y3000D03*
X5000Y3000D03*
X6000Y3000D03*
X7000Y3000D03*
D11*
X6700Y8000D02*
X6300Y8000D01*
D12*
X7100Y8000D03*
X6700Y8000D03*
X6300Y8000D03*
D10*
X6700Y9100D03*
X15850Y7500D03*
X15850Y6500D03*
X15850Y5500D03*
X19750Y3000D03*
X20750Y3000D03*
X21750Y3000D03*
X12250Y3000D03*
X13250Y3000D03*
X14250Y3000D03*
X15500Y3000D03*
X16500Y3000D03*
X17500Y3000D03*
X18500Y3000D03*
D11*
X18200Y8000D02*
X17800Y8000D01*
D12*
X18600Y8000D03*
X18200Y8000D03*
X17800Y8000D03*
D10*
X18200Y9100D03*
X27350Y7500D03*
X27350Y6500D03*
X27350Y5500D03*
X31250Y3000D03*
X32250Y3000D03*
X33250Y3000D03*
X23750Y3000D03*
X24750Y3000D03*
X25750Y3000D03*
X27000Y3000D03*
X28000Y3000D03*
X29000Y3000D03*
X30000Y3000D03*
D11*
X29700Y8000D02*
X29300Y8000D01*
D12*
X30100Y8000D03*
X29700Y8000D03*
X29300Y8000D03*
D10*
X29700Y9100D03*
X4350Y21500D03*
X4350Y20500D03*
X4350Y19500D03*
X8250Y17000D03*
X9250Y17000D03*
X10250Y17000D03*
X750Y17000D03*
X1750Y17000D03*
X2750Y17000D03*
X4000Y17000D03*
X5000Y17000D03*
X6000Y17000D03*
X7000Y17000D03*
D11*
X6700Y22000D02*
X6300Y22000D01*
D12*
X7100Y22000D03*
X6700Y22000D03*
X6300Y22000D03*
D10*
X6700Y23100D03*
X15850Y21500D03*
X15850Y20500D03*
X15850Y19500D03*
X19750Y17000D03*
X20750Y17000D03*
X21750Y17000D03*
X12250Y17000D03*
X13250Y17000D03*
X14250Y17000D03*
X15500Y17000D03*
X16500Y17000D03*
X17500Y17000D03*
X18500Y17000D03*
D11*
X18200Y22000D02*
X17800Y22000D01*
D12*
X18600Y22000D03*
X18200Y22000D03*
X17800Y22000D03*
D10*
X18200Y23100D03*
X27350Y21500D03*
X27350Y20500D03*
X27350Y19500D03*
X31250Y17000D03*
X32250Y17000D03*
X33250Y17000D03*
X23750Y17000D03*
X24750Y17000D03*
X25750Y17000D03*
X27000Y17000D03*
X28000Y17000D03*
X29000Y17000D03*
X30000Y17000D03*
D11*
X29700Y22000D02*
X29300Y22000D01*
D12*
X30100Y22000D03*
X29700Y22000D03*
X29300Y22000D03*
D10*
X29700Y23100D03*
X1000Y31500D03*
X2000Y31500D03*
X3000Y31500D03*
X4000Y31500D03*
X5000Y31500D03*
X4500Y29500D03*
X3500Y29500D03*
X2500Y29500D03*
X1500Y29500D03*
X6500Y31500D03*
X7500Y31500D03*
X8500Y31500D03*
X9500Y31500D03*
X10500Y31500D03*
X10000Y29500D03*
X9000Y29500D03*
X8000Y29500D03*
X7000Y29500D03*
X12000Y31500D03*
X13000Y31500D03*
X14000Y31500D03*
X15000Y31500D03*
X16000Y31500D03*
X15500Y29500D03*
X14500Y29500D03*
X13500Y29500D03*
X12500Y29500D03*
X18000Y31500D03*
X19000Y31500D03*
X20000Y31500D03*
X21000Y31500D03*
X22000Y31500D03*
X21500Y29500D03*
X20500Y29500D03*
X19500Y29500D03*
X18500Y29500D03*
X23500Y31500D03*
X24500Y31500D03*
X25500Y31500D03*
X26500Y31500D03*
X27500Y31500D03*
X27000Y29500D03*
X26000Y29500D03*
X25000Y29500D03*
X24000Y29500D03*
X29000Y31500D03*
X30000Y31500D03*
X31000Y31500D03*
X32000Y31500D03*
X33000Y31500D03*
X32500Y29500D03*
X31500Y29500D03*
X30500Y29500D03*
X29500Y29500D03*
D13*
X4350Y9000D03*
D14*
X5800Y8500D02*
X7076Y8500D01*
X7076Y8024D01*
X4350Y9000D02*
X3750Y9000D01*
X3750Y6950D01*
X4350Y6500D01*
X7076Y8024D02*
X7100Y8000D01*
X5800Y8500D02*
X5000Y9000D01*
X4350Y9000D01*
X2750Y3000D02*
X2750Y2350D01*
X6650Y2350D01*
X7000Y2350D01*
X7000Y3000D01*
X10250Y3000D02*
X10250Y2350D01*
X7000Y2350D01*
X7000Y3000D02*
X7500Y3700D01*
D13*
X6750Y6525D03*
D14*
X5800Y5500D02*
X4350Y5500D01*
X6750Y6525D02*
X7500Y6525D01*
X7500Y3700D01*
X5800Y5500D02*
X5800Y6525D01*
X6750Y6525D01*
D13*
X1750Y6000D03*
D14*
X1400Y6000D01*
X1400Y4350D01*
X750Y3700D01*
X750Y3000D01*
X3000Y4125D02*
X3417Y3583D01*
X3000Y4125D02*
X3000Y6750D01*
D13*
X1750Y7000D03*
D14*
X2750Y7000D02*
X3000Y6750D01*
X3417Y3583D02*
X4000Y3000D01*
X2750Y7000D02*
X1750Y7000D01*
D13*
X4350Y8300D03*
D14*
X5000Y8300D01*
X5500Y8000D01*
X6285Y8000D01*
X1750Y5000D02*
X1750Y3000D01*
D13*
X1750Y5000D03*
X9250Y6500D03*
D14*
X9250Y3000D01*
X9250Y8000D02*
X9250Y8500D01*
D13*
X9250Y8500D03*
D14*
X9250Y8000D02*
X8250Y7000D01*
X8250Y3000D01*
X5000Y3000D02*
X5000Y4906D01*
X3780Y4901D02*
X3780Y5999D01*
X3780Y4901D02*
X5000Y4906D01*
X6700Y7225D02*
X6700Y8000D01*
X6700Y7225D02*
X5500Y7225D01*
X5500Y6000D01*
X3780Y5999D01*
D13*
X6750Y5500D03*
D14*
X6000Y4950D01*
X6000Y3000D01*
D13*
X15850Y9000D03*
D14*
X17300Y8500D02*
X18576Y8500D01*
X18576Y8024D01*
X15850Y9000D02*
X15250Y9000D01*
X15250Y6950D01*
X15850Y6500D01*
X18576Y8024D02*
X18600Y8000D01*
X17300Y8500D02*
X16500Y9000D01*
X15850Y9000D01*
X14250Y3000D02*
X14250Y2350D01*
X18150Y2350D01*
X18500Y2350D01*
X18500Y3000D01*
X21750Y3000D02*
X21750Y2350D01*
X18500Y2350D01*
X18500Y3000D02*
X19000Y3700D01*
D13*
X18250Y6525D03*
D14*
X17300Y5500D02*
X15850Y5500D01*
X18250Y6525D02*
X19000Y6525D01*
X19000Y3700D01*
X17300Y5500D02*
X17300Y6525D01*
X18250Y6525D01*
D13*
X13250Y6000D03*
D14*
X12900Y6000D01*
X12900Y4350D01*
X12250Y3700D01*
X12250Y3000D01*
X14500Y4125D02*
X14917Y3583D01*
X14500Y4125D02*
X14500Y6750D01*
D13*
X13250Y7000D03*
D14*
X14250Y7000D02*
X14500Y6750D01*
X14917Y3583D02*
X15500Y3000D01*
X14250Y7000D02*
X13250Y7000D01*
D13*
X15850Y8300D03*
D14*
X16500Y8300D01*
X17000Y8000D01*
X17785Y8000D01*
X13250Y5000D02*
X13250Y3000D01*
D13*
X13250Y5000D03*
X20750Y6500D03*
D14*
X20750Y3000D01*
X20750Y8000D02*
X20750Y8500D01*
D13*
X20750Y8500D03*
D14*
X20750Y8000D02*
X19750Y7000D01*
X19750Y3000D01*
X16500Y3000D02*
X16500Y4906D01*
X15280Y4901D02*
X15280Y5999D01*
X15280Y4901D02*
X16500Y4906D01*
X18200Y7225D02*
X18200Y8000D01*
X18200Y7225D02*
X17000Y7225D01*
X17000Y6000D01*
X15280Y5999D01*
D13*
X18250Y5500D03*
D14*
X17500Y4950D01*
X17500Y3000D01*
D13*
X27350Y9000D03*
D14*
X28800Y8500D02*
X30076Y8500D01*
X30076Y8024D01*
X27350Y9000D02*
X26750Y9000D01*
X26750Y6950D01*
X27350Y6500D01*
X30076Y8024D02*
X30100Y8000D01*
X28800Y8500D02*
X28000Y9000D01*
X27350Y9000D01*
X25750Y3000D02*
X25750Y2350D01*
X29650Y2350D01*
X30000Y2350D01*
X30000Y3000D01*
X33250Y3000D02*
X33250Y2350D01*
X30000Y2350D01*
X30000Y3000D02*
X30500Y3700D01*
D13*
X29750Y6525D03*
D14*
X28800Y5500D02*
X27350Y5500D01*
X29750Y6525D02*
X30500Y6525D01*
X30500Y3700D01*
X28800Y5500D02*
X28800Y6525D01*
X29750Y6525D01*
D13*
X24750Y6000D03*
D14*
X24400Y6000D01*
X24400Y4350D01*
X23750Y3700D01*
X23750Y3000D01*
X26000Y4125D02*
X26417Y3583D01*
X26000Y4125D02*
X26000Y6750D01*
D13*
X24750Y7000D03*
D14*
X25750Y7000D02*
X26000Y6750D01*
X26417Y3583D02*
X27000Y3000D01*
X25750Y7000D02*
X24750Y7000D01*
D13*
X27350Y8300D03*
D14*
X28000Y8300D01*
X28500Y8000D01*
X29285Y8000D01*
X24750Y5000D02*
X24750Y3000D01*
D13*
X24750Y5000D03*
X32250Y6500D03*
D14*
X32250Y3000D01*
X32250Y8000D02*
X32250Y8500D01*
D13*
X32250Y8500D03*
D14*
X32250Y8000D02*
X31250Y7000D01*
X31250Y3000D01*
X28000Y3000D02*
X28000Y4906D01*
X26780Y4901D02*
X26780Y5999D01*
X26780Y4901D02*
X28000Y4906D01*
X29700Y7225D02*
X29700Y8000D01*
X29700Y7225D02*
X28500Y7225D01*
X28500Y6000D01*
X26780Y5999D01*
D13*
X29750Y5500D03*
D14*
X29000Y4950D01*
X29000Y3000D01*
D13*
X4350Y23000D03*
D14*
X5800Y22500D02*
X7076Y22500D01*
X7076Y22024D01*
X4350Y23000D02*
X3750Y23000D01*
X3750Y20950D01*
X4350Y20500D01*
X7076Y22024D02*
X7100Y22000D01*
X5800Y22500D02*
X5000Y23000D01*
X4350Y23000D01*
X2750Y17000D02*
X2750Y16350D01*
X6650Y16350D01*
X7000Y16350D01*
X7000Y17000D01*
X10250Y17000D02*
X10250Y16350D01*
X7000Y16350D01*
X7000Y17000D02*
X7500Y17700D01*
D13*
X6750Y20525D03*
D14*
X5800Y19500D02*
X4350Y19500D01*
X6750Y20525D02*
X7500Y20525D01*
X7500Y17700D01*
X5800Y19500D02*
X5800Y20525D01*
X6750Y20525D01*
D13*
X1750Y20000D03*
D14*
X1400Y20000D01*
X1400Y18350D01*
X750Y17700D01*
X750Y17000D01*
X3000Y18125D02*
X3417Y17583D01*
X3000Y18125D02*
X3000Y20750D01*
D13*
X1750Y21000D03*
D14*
X2750Y21000D02*
X3000Y20750D01*
X3417Y17583D02*
X4000Y17000D01*
X2750Y21000D02*
X1750Y21000D01*
D13*
X4350Y22300D03*
D14*
X5000Y22300D01*
X5500Y22000D01*
X6285Y22000D01*
X1750Y19000D02*
X1750Y17000D01*
D13*
X1750Y19000D03*
X9250Y20500D03*
D14*
X9250Y17000D01*
X9250Y22000D02*
X9250Y22500D01*
D13*
X9250Y22500D03*
D14*
X9250Y22000D02*
X8250Y21000D01*
X8250Y17000D01*
X5000Y17000D02*
X5000Y18906D01*
X3780Y18901D02*
X3780Y19999D01*
X3780Y18901D02*
X5000Y18906D01*
X6700Y21225D02*
X6700Y22000D01*
X6700Y21225D02*
X5500Y21225D01*
X5500Y20000D01*
X3780Y19999D01*
D13*
X6750Y19500D03*
D14*
X6000Y18950D01*
X6000Y17000D01*
D13*
X15850Y23000D03*
D14*
X17300Y22500D02*
X18576Y22500D01*
X18576Y22024D01*
X15850Y23000D02*
X15250Y23000D01*
X15250Y20950D01*
X15850Y20500D01*
X18576Y22024D02*
X18600Y22000D01*
X17300Y22500D02*
X16500Y23000D01*
X15850Y23000D01*
X14250Y17000D02*
X14250Y16350D01*
X18150Y16350D01*
X18500Y16350D01*
X18500Y17000D01*
X21750Y17000D02*
X21750Y16350D01*
X18500Y16350D01*
X18500Y17000D02*
X19000Y17700D01*
D13*
X18250Y20525D03*
D14*
X17300Y19500D02*
X15850Y19500D01*
X18250Y20525D02*
X19000Y20525D01*
X19000Y17700D01*
X17300Y19500D02*
X17300Y20525D01*
X18250Y20525D01*
D13*
X13250Y20000D03*
D14*
X12900Y20000D01*
X12900Y18350D01*
X12250Y17700D01*
X12250Y17000D01*
X14500Y18125D02*
X14917Y17583D01*
X14500Y18125D02*
X14500Y20750D01*
D13*
X13250Y21000D03*
D14*
X14250Y21000D02*
X14500Y20750D01*
X14917Y17583D02*
X15500Y17000D01*
X14250Y21000D02*
X13250Y21000D01*
D13*
X15850Y22300D03*
D14*
X16500Y22300D01*
X17000Y22000D01*
X17785Y22000D01*
X13250Y19000D02*
X13250Y17000D01*
D13*
X13250Y19000D03*
X20750Y20500D03*
D14*
X20750Y17000D01*
X20750Y22000D02*
X20750Y22500D01*
D13*
X20750Y22500D03*
D14*
X20750Y22000D02*
X19750Y21000D01*
X19750Y17000D01*
X16500Y17000D02*
X16500Y18906D01*
X15280Y18901D02*
X15280Y19999D01*
X15280Y18901D02*
X16500Y18906D01*
X18200Y21225D02*
X18200Y22000D01*
X18200Y21225D02*
X17000Y21225D01*
X17000Y20000D01*
X15280Y19999D01*
D13*
X18250Y19500D03*
D14*
X17500Y18950D01*
X17500Y17000D01*
D13*
X27350Y23000D03*
D14*
X28800Y22500D02*
X30076Y22500D01*
X30076Y22024D01*
X27350Y23000D02*
X26750Y23000D01*
X26750Y20950D01*
X27350Y20500D01*
X30076Y22024D02*
X30100Y22000D01*
X28800Y22500D02*
X28000Y23000D01*
X27350Y23000D01*
X25750Y17000D02*
X25750Y16350D01*
X29650Y16350D01*
X30000Y16350D01*
X30000Y17000D01*
X33250Y17000D02*
X33250Y16350D01*
X30000Y16350D01*
X30000Y17000D02*
X30500Y17700D01*
D13*
X29750Y20525D03*
D14*
X28800Y19500D02*
X27350Y19500D01*
X29750Y20525D02*
X30500Y20525D01*
X30500Y17700D01*
X28800Y19500D02*
X28800Y20525D01*
X29750Y20525D01*
D13*
X24750Y20000D03*
D14*
X24400Y20000D01*
X24400Y18350D01*
X23750Y17700D01*
X23750Y17000D01*
X26000Y18125D02*
X26417Y17583D01*
X26000Y18125D02*
X26000Y20750D01*
D13*
X24750Y21000D03*
D14*
X25750Y21000D02*
X26000Y20750D01*
X26417Y17583D02*
X27000Y17000D01*
X25750Y21000D02*
X24750Y21000D01*
D13*
X27350Y22300D03*
D14*
X28000Y22300D01*
X28500Y22000D01*
X29285Y22000D01*
X24750Y19000D02*
X24750Y17000D01*
D13*
X24750Y19000D03*
X32250Y20500D03*
D14*
X32250Y17000D01*
X32250Y22000D02*
X32250Y22500D01*
D13*
X32250Y22500D03*
D14*
X32250Y22000D02*
X31250Y21000D01*
X31250Y17000D01*
X28000Y17000D02*
X28000Y18906D01*
X26780Y18901D02*
X26780Y19999D01*
X26780Y18901D02*
X28000Y18906D01*
X29700Y21225D02*
X29700Y22000D01*
X29700Y21225D02*
X28500Y21225D01*
X28500Y20000D01*
X26780Y19999D01*
D13*
X29750Y19500D03*
D14*
X29000Y18950D01*
X29000Y17000D01*
X1000Y29000D02*
X1000Y30750D01*
X1000Y31500D01*
X1000Y29000D02*
X4000Y29000D01*
X4500Y29500D01*
X3000Y30000D02*
X2500Y29500D01*
X3000Y30000D02*
X3000Y31500D01*
X1500Y32250D02*
X1500Y29500D01*
X5000Y31500D02*
X5000Y32250D01*
X1500Y32250D01*
X6500Y30750D02*
X6500Y29000D01*
X6500Y30750D02*
X6500Y31500D01*
X6500Y29000D02*
X9500Y29000D01*
X10000Y29500D01*
X8500Y30000D02*
X8000Y29500D01*
X8500Y30000D02*
X8500Y31500D01*
X7000Y32250D02*
X7000Y29500D01*
X10500Y31500D02*
X10500Y32250D01*
X7000Y32250D01*
X12000Y30750D02*
X12000Y29000D01*
X12000Y30750D02*
X12000Y31500D01*
X12000Y29000D02*
X15000Y29000D01*
X15500Y29500D01*
X14000Y30000D02*
X13500Y29500D01*
X14000Y30000D02*
X14000Y31500D01*
X12500Y32250D02*
X12500Y29500D01*
X16000Y31500D02*
X16000Y32250D01*
X12500Y32250D01*
X18000Y30750D02*
X18000Y29000D01*
X18000Y30750D02*
X18000Y31500D01*
X18000Y29000D02*
X21000Y29000D01*
X21500Y29500D01*
X20000Y30000D02*
X19500Y29500D01*
X20000Y30000D02*
X20000Y31500D01*
X18500Y32250D02*
X18500Y29500D01*
X22000Y31500D02*
X22000Y32250D01*
X18500Y32250D01*
X23500Y30750D02*
X23500Y29000D01*
X23500Y30750D02*
X23500Y31500D01*
X23500Y29000D02*
X26500Y29000D01*
X27000Y29500D01*
X25500Y30000D02*
X25000Y29500D01*
X25500Y30000D02*
X25500Y31500D01*
X24000Y32250D02*
X24000Y29500D01*
X27500Y31500D02*
X27500Y32250D01*
X24000Y32250D01*
X29000Y30750D02*
X29000Y29000D01*
X29000Y30750D02*
X29000Y31500D01*
X29000Y29000D02*
X32000Y29000D01*
X32500Y29500D01*
X31000Y30000D02*
X30500Y29500D01*
X31000Y30000D02*
X31000Y31500D01*
X29500Y32250D02*
X29500Y29500D01*
X33000Y31500D02*
X33000Y32250D01*
X29500Y32250D01*
M02*
