M48
;GenerationSoftware,Autodesk,EAGLE,9.1.3*%
;CreationDate,2018-11-04T16:40:41Z*%
FMAT,2
ICI,OFF
INCH,TZ,000.000
T3C0.016
T2C0.039
T1C0.125
%
G90
M72
T1
X175Y2500
X1210Y1975
X1040Y1970
X60Y1975
X2075Y2500
X2475Y2500
X2475Y2300
X3225Y2500
X3340Y1975
X2360Y1975
X2190Y1975
X175Y1100
X175Y900
X925Y1100
X1325Y1100
X1325Y900
X2075Y1100
X2480Y1100
X2475Y900
X2190Y575
X2360Y575
X3225Y1100
X3340Y570
X1210Y575
X1040Y575
X60Y570
X925Y2500
X175Y2300
X1325Y2500
X1325Y2300
T2
X100Y3150
X200Y3150
X300Y3150
X400Y3150
X500Y3150
X450Y2950
X350Y2950
X250Y2950
X150Y2950
X650Y3150
X750Y3150
X850Y3150
X950Y3150
X1050Y3150
X1000Y2950
X900Y2950
X800Y2950
X700Y2950
X1200Y3150
X1300Y3150
X1400Y3150
X1500Y3150
X1600Y3150
X1550Y2950
X1450Y2950
X1350Y2950
X1820Y910
X1800Y3150
X1900Y3150
X2000Y3150
X2100Y3150
X2200Y3150
X2150Y2950
X2050Y2950
X1950Y2950
X1850Y2950
X2350Y3150
X2450Y3150
X2550Y3150
X2650Y3150
X2750Y3150
X2700Y2950
X2600Y2950
X2500Y2950
X2400Y2950
X2900Y3150
X3000Y3150
X3100Y3150
X3200Y3150
X3300Y3150
X3250Y2950
X3150Y2950
X3050Y2950
X2950Y2950
X435Y750
X435Y650
X435Y550
X825Y300
X925Y300
X1025Y300
X75Y300
X175Y300
X275Y300
X400Y300
X500Y300
X600Y300
X700Y300
X670Y910
X1585Y750
X1585Y650
X1585Y550
X1975Y300
X2075Y300
X2175Y300
X1225Y300
X1325Y300
X1425Y300
X1550Y300
X1650Y300
X1750Y300
X1850Y300
X1250Y2950
X2735Y750
X2735Y650
X2735Y550
X3125Y300
X3225Y300
X3325Y300
X2375Y300
X2475Y300
X2575Y300
X2700Y300
X2800Y300
X2900Y300
X3000Y300
X2970Y910
X435Y2150
X435Y2050
X435Y1950
X825Y1700
X925Y1700
X1025Y1700
X75Y1700
X175Y1700
X275Y1700
X400Y1700
X500Y1700
X600Y1700
X700Y1700
X670Y2310
X1585Y2150
X1585Y2050
X1585Y1950
X1975Y1700
X2075Y1700
X2175Y1700
X1225Y1700
X1325Y1700
X1425Y1700
X1550Y1700
X1650Y1700
X1750Y1700
X1850Y1700
X1820Y2310
X2735Y2150
X2735Y2050
X2735Y1950
X3125Y1700
X3225Y1700
X3325Y1700
X2375Y1700
X2475Y1700
X2575Y1700
X2700Y1700
X2800Y1700
X2900Y1700
X3000Y1700
X2970Y2310
T3
X675Y653
X175Y600
X175Y700
X435Y830
X175Y500
X925Y650
X925Y850
X675Y550
X1585Y900
X1825Y653
X1325Y600
X1325Y700
X1585Y830
X1325Y500
X2075Y650
X2075Y850
X1825Y550
X2735Y900
X2975Y653
X2475Y600
X2475Y700
X2735Y830
X2475Y500
X3225Y650
X3225Y850
X2975Y550
X675Y2053
X175Y2000
X175Y2100
X435Y2230
X175Y1900
X925Y2050
X925Y2250
X675Y1950
X1585Y2300
X1825Y2053
X1325Y2000
X1325Y2100
X1585Y2230
X1325Y1900
X2075Y2050
X2075Y2250
X1825Y1950
X2735Y2300
X2975Y2053
X2475Y2000
X2475Y2100
X2735Y2230
X2475Y1900
X3225Y2050
X3225Y2250
X2975Y1950
X435Y2300
X435Y900
M30