G04 EAGLE Gerber X2 export*
%TF.Part,Single*%
%TF.FileFunction,Profile,NP*%
%TF.FilePolarity,Positive*%
%TF.GenerationSoftware,Autodesk,EAGLE,9.1.3*%
%TF.CreationDate,2018-11-04T16:40:41Z*%
G75*
%MOIN*%
%FSLAX34Y34*%
%LPD*%
%AMOC8*
5,1,8,0,0,1.08239X$1,22.5*%
G01*
%ADD10C,0.006000*%
%ADD11C,0.000000*%


D10*
X-50Y-50D02*
X34050Y-50D01*
X34050Y34550D01*
X-50Y34550D01*
X-50Y-50D01*
D11*
X1125Y25000D02*
X1127Y25050D01*
X1133Y25099D01*
X1143Y25148D01*
X1156Y25195D01*
X1174Y25242D01*
X1195Y25287D01*
X1219Y25330D01*
X1247Y25371D01*
X1278Y25410D01*
X1312Y25446D01*
X1349Y25480D01*
X1389Y25510D01*
X1430Y25537D01*
X1474Y25561D01*
X1519Y25581D01*
X1566Y25597D01*
X1614Y25610D01*
X1663Y25619D01*
X1713Y25624D01*
X1762Y25625D01*
X1812Y25622D01*
X1861Y25615D01*
X1910Y25604D01*
X1957Y25590D01*
X2003Y25571D01*
X2048Y25549D01*
X2091Y25524D01*
X2131Y25495D01*
X2169Y25463D01*
X2205Y25429D01*
X2238Y25391D01*
X2267Y25351D01*
X2293Y25309D01*
X2316Y25265D01*
X2335Y25219D01*
X2351Y25172D01*
X2363Y25123D01*
X2371Y25074D01*
X2375Y25025D01*
X2375Y24975D01*
X2371Y24926D01*
X2363Y24877D01*
X2351Y24828D01*
X2335Y24781D01*
X2316Y24735D01*
X2293Y24691D01*
X2267Y24649D01*
X2238Y24609D01*
X2205Y24571D01*
X2169Y24537D01*
X2131Y24505D01*
X2091Y24476D01*
X2048Y24451D01*
X2003Y24429D01*
X1957Y24410D01*
X1910Y24396D01*
X1861Y24385D01*
X1812Y24378D01*
X1762Y24375D01*
X1713Y24376D01*
X1663Y24381D01*
X1614Y24390D01*
X1566Y24403D01*
X1519Y24419D01*
X1474Y24439D01*
X1430Y24463D01*
X1389Y24490D01*
X1349Y24520D01*
X1312Y24554D01*
X1278Y24590D01*
X1247Y24629D01*
X1219Y24670D01*
X1195Y24713D01*
X1174Y24758D01*
X1156Y24805D01*
X1143Y24852D01*
X1133Y24901D01*
X1127Y24950D01*
X1125Y25000D01*
X8625Y25000D02*
X8627Y25050D01*
X8633Y25099D01*
X8643Y25148D01*
X8656Y25195D01*
X8674Y25242D01*
X8695Y25287D01*
X8719Y25330D01*
X8747Y25371D01*
X8778Y25410D01*
X8812Y25446D01*
X8849Y25480D01*
X8889Y25510D01*
X8930Y25537D01*
X8974Y25561D01*
X9019Y25581D01*
X9066Y25597D01*
X9114Y25610D01*
X9163Y25619D01*
X9213Y25624D01*
X9262Y25625D01*
X9312Y25622D01*
X9361Y25615D01*
X9410Y25604D01*
X9457Y25590D01*
X9503Y25571D01*
X9548Y25549D01*
X9591Y25524D01*
X9631Y25495D01*
X9669Y25463D01*
X9705Y25429D01*
X9738Y25391D01*
X9767Y25351D01*
X9793Y25309D01*
X9816Y25265D01*
X9835Y25219D01*
X9851Y25172D01*
X9863Y25123D01*
X9871Y25074D01*
X9875Y25025D01*
X9875Y24975D01*
X9871Y24926D01*
X9863Y24877D01*
X9851Y24828D01*
X9835Y24781D01*
X9816Y24735D01*
X9793Y24691D01*
X9767Y24649D01*
X9738Y24609D01*
X9705Y24571D01*
X9669Y24537D01*
X9631Y24505D01*
X9591Y24476D01*
X9548Y24451D01*
X9503Y24429D01*
X9457Y24410D01*
X9410Y24396D01*
X9361Y24385D01*
X9312Y24378D01*
X9262Y24375D01*
X9213Y24376D01*
X9163Y24381D01*
X9114Y24390D01*
X9066Y24403D01*
X9019Y24419D01*
X8974Y24439D01*
X8930Y24463D01*
X8889Y24490D01*
X8849Y24520D01*
X8812Y24554D01*
X8778Y24590D01*
X8747Y24629D01*
X8719Y24670D01*
X8695Y24713D01*
X8674Y24758D01*
X8656Y24805D01*
X8643Y24852D01*
X8633Y24901D01*
X8627Y24950D01*
X8625Y25000D01*
X1125Y23000D02*
X1127Y23050D01*
X1133Y23099D01*
X1143Y23148D01*
X1156Y23195D01*
X1174Y23242D01*
X1195Y23287D01*
X1219Y23330D01*
X1247Y23371D01*
X1278Y23410D01*
X1312Y23446D01*
X1349Y23480D01*
X1389Y23510D01*
X1430Y23537D01*
X1474Y23561D01*
X1519Y23581D01*
X1566Y23597D01*
X1614Y23610D01*
X1663Y23619D01*
X1713Y23624D01*
X1762Y23625D01*
X1812Y23622D01*
X1861Y23615D01*
X1910Y23604D01*
X1957Y23590D01*
X2003Y23571D01*
X2048Y23549D01*
X2091Y23524D01*
X2131Y23495D01*
X2169Y23463D01*
X2205Y23429D01*
X2238Y23391D01*
X2267Y23351D01*
X2293Y23309D01*
X2316Y23265D01*
X2335Y23219D01*
X2351Y23172D01*
X2363Y23123D01*
X2371Y23074D01*
X2375Y23025D01*
X2375Y22975D01*
X2371Y22926D01*
X2363Y22877D01*
X2351Y22828D01*
X2335Y22781D01*
X2316Y22735D01*
X2293Y22691D01*
X2267Y22649D01*
X2238Y22609D01*
X2205Y22571D01*
X2169Y22537D01*
X2131Y22505D01*
X2091Y22476D01*
X2048Y22451D01*
X2003Y22429D01*
X1957Y22410D01*
X1910Y22396D01*
X1861Y22385D01*
X1812Y22378D01*
X1762Y22375D01*
X1713Y22376D01*
X1663Y22381D01*
X1614Y22390D01*
X1566Y22403D01*
X1519Y22419D01*
X1474Y22439D01*
X1430Y22463D01*
X1389Y22490D01*
X1349Y22520D01*
X1312Y22554D01*
X1278Y22590D01*
X1247Y22629D01*
X1219Y22670D01*
X1195Y22713D01*
X1174Y22758D01*
X1156Y22805D01*
X1143Y22852D01*
X1133Y22901D01*
X1127Y22950D01*
X1125Y23000D01*
X12625Y25000D02*
X12627Y25050D01*
X12633Y25099D01*
X12643Y25148D01*
X12656Y25195D01*
X12674Y25242D01*
X12695Y25287D01*
X12719Y25330D01*
X12747Y25371D01*
X12778Y25410D01*
X12812Y25446D01*
X12849Y25480D01*
X12889Y25510D01*
X12930Y25537D01*
X12974Y25561D01*
X13019Y25581D01*
X13066Y25597D01*
X13114Y25610D01*
X13163Y25619D01*
X13213Y25624D01*
X13262Y25625D01*
X13312Y25622D01*
X13361Y25615D01*
X13410Y25604D01*
X13457Y25590D01*
X13503Y25571D01*
X13548Y25549D01*
X13591Y25524D01*
X13631Y25495D01*
X13669Y25463D01*
X13705Y25429D01*
X13738Y25391D01*
X13767Y25351D01*
X13793Y25309D01*
X13816Y25265D01*
X13835Y25219D01*
X13851Y25172D01*
X13863Y25123D01*
X13871Y25074D01*
X13875Y25025D01*
X13875Y24975D01*
X13871Y24926D01*
X13863Y24877D01*
X13851Y24828D01*
X13835Y24781D01*
X13816Y24735D01*
X13793Y24691D01*
X13767Y24649D01*
X13738Y24609D01*
X13705Y24571D01*
X13669Y24537D01*
X13631Y24505D01*
X13591Y24476D01*
X13548Y24451D01*
X13503Y24429D01*
X13457Y24410D01*
X13410Y24396D01*
X13361Y24385D01*
X13312Y24378D01*
X13262Y24375D01*
X13213Y24376D01*
X13163Y24381D01*
X13114Y24390D01*
X13066Y24403D01*
X13019Y24419D01*
X12974Y24439D01*
X12930Y24463D01*
X12889Y24490D01*
X12849Y24520D01*
X12812Y24554D01*
X12778Y24590D01*
X12747Y24629D01*
X12719Y24670D01*
X12695Y24713D01*
X12674Y24758D01*
X12656Y24805D01*
X12643Y24852D01*
X12633Y24901D01*
X12627Y24950D01*
X12625Y25000D01*
X12625Y23000D02*
X12627Y23050D01*
X12633Y23099D01*
X12643Y23148D01*
X12656Y23195D01*
X12674Y23242D01*
X12695Y23287D01*
X12719Y23330D01*
X12747Y23371D01*
X12778Y23410D01*
X12812Y23446D01*
X12849Y23480D01*
X12889Y23510D01*
X12930Y23537D01*
X12974Y23561D01*
X13019Y23581D01*
X13066Y23597D01*
X13114Y23610D01*
X13163Y23619D01*
X13213Y23624D01*
X13262Y23625D01*
X13312Y23622D01*
X13361Y23615D01*
X13410Y23604D01*
X13457Y23590D01*
X13503Y23571D01*
X13548Y23549D01*
X13591Y23524D01*
X13631Y23495D01*
X13669Y23463D01*
X13705Y23429D01*
X13738Y23391D01*
X13767Y23351D01*
X13793Y23309D01*
X13816Y23265D01*
X13835Y23219D01*
X13851Y23172D01*
X13863Y23123D01*
X13871Y23074D01*
X13875Y23025D01*
X13875Y22975D01*
X13871Y22926D01*
X13863Y22877D01*
X13851Y22828D01*
X13835Y22781D01*
X13816Y22735D01*
X13793Y22691D01*
X13767Y22649D01*
X13738Y22609D01*
X13705Y22571D01*
X13669Y22537D01*
X13631Y22505D01*
X13591Y22476D01*
X13548Y22451D01*
X13503Y22429D01*
X13457Y22410D01*
X13410Y22396D01*
X13361Y22385D01*
X13312Y22378D01*
X13262Y22375D01*
X13213Y22376D01*
X13163Y22381D01*
X13114Y22390D01*
X13066Y22403D01*
X13019Y22419D01*
X12974Y22439D01*
X12930Y22463D01*
X12889Y22490D01*
X12849Y22520D01*
X12812Y22554D01*
X12778Y22590D01*
X12747Y22629D01*
X12719Y22670D01*
X12695Y22713D01*
X12674Y22758D01*
X12656Y22805D01*
X12643Y22852D01*
X12633Y22901D01*
X12627Y22950D01*
X12625Y23000D01*
X11475Y19750D02*
X11477Y19800D01*
X11483Y19849D01*
X11493Y19898D01*
X11506Y19945D01*
X11524Y19992D01*
X11545Y20037D01*
X11569Y20080D01*
X11597Y20121D01*
X11628Y20160D01*
X11662Y20196D01*
X11699Y20230D01*
X11739Y20260D01*
X11780Y20287D01*
X11824Y20311D01*
X11869Y20331D01*
X11916Y20347D01*
X11964Y20360D01*
X12013Y20369D01*
X12063Y20374D01*
X12112Y20375D01*
X12162Y20372D01*
X12211Y20365D01*
X12260Y20354D01*
X12307Y20340D01*
X12353Y20321D01*
X12398Y20299D01*
X12441Y20274D01*
X12481Y20245D01*
X12519Y20213D01*
X12555Y20179D01*
X12588Y20141D01*
X12617Y20101D01*
X12643Y20059D01*
X12666Y20015D01*
X12685Y19969D01*
X12701Y19922D01*
X12713Y19873D01*
X12721Y19824D01*
X12725Y19775D01*
X12725Y19725D01*
X12721Y19676D01*
X12713Y19627D01*
X12701Y19578D01*
X12685Y19531D01*
X12666Y19485D01*
X12643Y19441D01*
X12617Y19399D01*
X12588Y19359D01*
X12555Y19321D01*
X12519Y19287D01*
X12481Y19255D01*
X12441Y19226D01*
X12398Y19201D01*
X12353Y19179D01*
X12307Y19160D01*
X12260Y19146D01*
X12211Y19135D01*
X12162Y19128D01*
X12112Y19125D01*
X12063Y19126D01*
X12013Y19131D01*
X11964Y19140D01*
X11916Y19153D01*
X11869Y19169D01*
X11824Y19189D01*
X11780Y19213D01*
X11739Y19240D01*
X11699Y19270D01*
X11662Y19304D01*
X11628Y19340D01*
X11597Y19379D01*
X11569Y19420D01*
X11545Y19463D01*
X11524Y19508D01*
X11506Y19555D01*
X11493Y19602D01*
X11483Y19651D01*
X11477Y19700D01*
X11475Y19750D01*
X9775Y19700D02*
X9777Y19750D01*
X9783Y19799D01*
X9793Y19848D01*
X9806Y19895D01*
X9824Y19942D01*
X9845Y19987D01*
X9869Y20030D01*
X9897Y20071D01*
X9928Y20110D01*
X9962Y20146D01*
X9999Y20180D01*
X10039Y20210D01*
X10080Y20237D01*
X10124Y20261D01*
X10169Y20281D01*
X10216Y20297D01*
X10264Y20310D01*
X10313Y20319D01*
X10363Y20324D01*
X10412Y20325D01*
X10462Y20322D01*
X10511Y20315D01*
X10560Y20304D01*
X10607Y20290D01*
X10653Y20271D01*
X10698Y20249D01*
X10741Y20224D01*
X10781Y20195D01*
X10819Y20163D01*
X10855Y20129D01*
X10888Y20091D01*
X10917Y20051D01*
X10943Y20009D01*
X10966Y19965D01*
X10985Y19919D01*
X11001Y19872D01*
X11013Y19823D01*
X11021Y19774D01*
X11025Y19725D01*
X11025Y19675D01*
X11021Y19626D01*
X11013Y19577D01*
X11001Y19528D01*
X10985Y19481D01*
X10966Y19435D01*
X10943Y19391D01*
X10917Y19349D01*
X10888Y19309D01*
X10855Y19271D01*
X10819Y19237D01*
X10781Y19205D01*
X10741Y19176D01*
X10698Y19151D01*
X10653Y19129D01*
X10607Y19110D01*
X10560Y19096D01*
X10511Y19085D01*
X10462Y19078D01*
X10412Y19075D01*
X10363Y19076D01*
X10313Y19081D01*
X10264Y19090D01*
X10216Y19103D01*
X10169Y19119D01*
X10124Y19139D01*
X10080Y19163D01*
X10039Y19190D01*
X9999Y19220D01*
X9962Y19254D01*
X9928Y19290D01*
X9897Y19329D01*
X9869Y19370D01*
X9845Y19413D01*
X9824Y19458D01*
X9806Y19505D01*
X9793Y19552D01*
X9783Y19601D01*
X9777Y19650D01*
X9775Y19700D01*
X-25Y19750D02*
X-23Y19800D01*
X-17Y19849D01*
X-7Y19898D01*
X6Y19945D01*
X24Y19992D01*
X45Y20037D01*
X69Y20080D01*
X97Y20121D01*
X128Y20160D01*
X162Y20196D01*
X199Y20230D01*
X239Y20260D01*
X280Y20287D01*
X324Y20311D01*
X369Y20331D01*
X416Y20347D01*
X464Y20360D01*
X513Y20369D01*
X563Y20374D01*
X612Y20375D01*
X662Y20372D01*
X711Y20365D01*
X760Y20354D01*
X807Y20340D01*
X853Y20321D01*
X898Y20299D01*
X941Y20274D01*
X981Y20245D01*
X1019Y20213D01*
X1055Y20179D01*
X1088Y20141D01*
X1117Y20101D01*
X1143Y20059D01*
X1166Y20015D01*
X1185Y19969D01*
X1201Y19922D01*
X1213Y19873D01*
X1221Y19824D01*
X1225Y19775D01*
X1225Y19725D01*
X1221Y19676D01*
X1213Y19627D01*
X1201Y19578D01*
X1185Y19531D01*
X1166Y19485D01*
X1143Y19441D01*
X1117Y19399D01*
X1088Y19359D01*
X1055Y19321D01*
X1019Y19287D01*
X981Y19255D01*
X941Y19226D01*
X898Y19201D01*
X853Y19179D01*
X807Y19160D01*
X760Y19146D01*
X711Y19135D01*
X662Y19128D01*
X612Y19125D01*
X563Y19126D01*
X513Y19131D01*
X464Y19140D01*
X416Y19153D01*
X369Y19169D01*
X324Y19189D01*
X280Y19213D01*
X239Y19240D01*
X199Y19270D01*
X162Y19304D01*
X128Y19340D01*
X97Y19379D01*
X69Y19420D01*
X45Y19463D01*
X24Y19508D01*
X6Y19555D01*
X-7Y19602D01*
X-17Y19651D01*
X-23Y19700D01*
X-25Y19750D01*
X20125Y25000D02*
X20127Y25050D01*
X20133Y25099D01*
X20143Y25148D01*
X20156Y25195D01*
X20174Y25242D01*
X20195Y25287D01*
X20219Y25330D01*
X20247Y25371D01*
X20278Y25410D01*
X20312Y25446D01*
X20349Y25480D01*
X20389Y25510D01*
X20430Y25537D01*
X20474Y25561D01*
X20519Y25581D01*
X20566Y25597D01*
X20614Y25610D01*
X20663Y25619D01*
X20713Y25624D01*
X20762Y25625D01*
X20812Y25622D01*
X20861Y25615D01*
X20910Y25604D01*
X20957Y25590D01*
X21003Y25571D01*
X21048Y25549D01*
X21091Y25524D01*
X21131Y25495D01*
X21169Y25463D01*
X21205Y25429D01*
X21238Y25391D01*
X21267Y25351D01*
X21293Y25309D01*
X21316Y25265D01*
X21335Y25219D01*
X21351Y25172D01*
X21363Y25123D01*
X21371Y25074D01*
X21375Y25025D01*
X21375Y24975D01*
X21371Y24926D01*
X21363Y24877D01*
X21351Y24828D01*
X21335Y24781D01*
X21316Y24735D01*
X21293Y24691D01*
X21267Y24649D01*
X21238Y24609D01*
X21205Y24571D01*
X21169Y24537D01*
X21131Y24505D01*
X21091Y24476D01*
X21048Y24451D01*
X21003Y24429D01*
X20957Y24410D01*
X20910Y24396D01*
X20861Y24385D01*
X20812Y24378D01*
X20762Y24375D01*
X20713Y24376D01*
X20663Y24381D01*
X20614Y24390D01*
X20566Y24403D01*
X20519Y24419D01*
X20474Y24439D01*
X20430Y24463D01*
X20389Y24490D01*
X20349Y24520D01*
X20312Y24554D01*
X20278Y24590D01*
X20247Y24629D01*
X20219Y24670D01*
X20195Y24713D01*
X20174Y24758D01*
X20156Y24805D01*
X20143Y24852D01*
X20133Y24901D01*
X20127Y24950D01*
X20125Y25000D01*
X24125Y25000D02*
X24127Y25050D01*
X24133Y25099D01*
X24143Y25148D01*
X24156Y25195D01*
X24174Y25242D01*
X24195Y25287D01*
X24219Y25330D01*
X24247Y25371D01*
X24278Y25410D01*
X24312Y25446D01*
X24349Y25480D01*
X24389Y25510D01*
X24430Y25537D01*
X24474Y25561D01*
X24519Y25581D01*
X24566Y25597D01*
X24614Y25610D01*
X24663Y25619D01*
X24713Y25624D01*
X24762Y25625D01*
X24812Y25622D01*
X24861Y25615D01*
X24910Y25604D01*
X24957Y25590D01*
X25003Y25571D01*
X25048Y25549D01*
X25091Y25524D01*
X25131Y25495D01*
X25169Y25463D01*
X25205Y25429D01*
X25238Y25391D01*
X25267Y25351D01*
X25293Y25309D01*
X25316Y25265D01*
X25335Y25219D01*
X25351Y25172D01*
X25363Y25123D01*
X25371Y25074D01*
X25375Y25025D01*
X25375Y24975D01*
X25371Y24926D01*
X25363Y24877D01*
X25351Y24828D01*
X25335Y24781D01*
X25316Y24735D01*
X25293Y24691D01*
X25267Y24649D01*
X25238Y24609D01*
X25205Y24571D01*
X25169Y24537D01*
X25131Y24505D01*
X25091Y24476D01*
X25048Y24451D01*
X25003Y24429D01*
X24957Y24410D01*
X24910Y24396D01*
X24861Y24385D01*
X24812Y24378D01*
X24762Y24375D01*
X24713Y24376D01*
X24663Y24381D01*
X24614Y24390D01*
X24566Y24403D01*
X24519Y24419D01*
X24474Y24439D01*
X24430Y24463D01*
X24389Y24490D01*
X24349Y24520D01*
X24312Y24554D01*
X24278Y24590D01*
X24247Y24629D01*
X24219Y24670D01*
X24195Y24713D01*
X24174Y24758D01*
X24156Y24805D01*
X24143Y24852D01*
X24133Y24901D01*
X24127Y24950D01*
X24125Y25000D01*
X24125Y23000D02*
X24127Y23050D01*
X24133Y23099D01*
X24143Y23148D01*
X24156Y23195D01*
X24174Y23242D01*
X24195Y23287D01*
X24219Y23330D01*
X24247Y23371D01*
X24278Y23410D01*
X24312Y23446D01*
X24349Y23480D01*
X24389Y23510D01*
X24430Y23537D01*
X24474Y23561D01*
X24519Y23581D01*
X24566Y23597D01*
X24614Y23610D01*
X24663Y23619D01*
X24713Y23624D01*
X24762Y23625D01*
X24812Y23622D01*
X24861Y23615D01*
X24910Y23604D01*
X24957Y23590D01*
X25003Y23571D01*
X25048Y23549D01*
X25091Y23524D01*
X25131Y23495D01*
X25169Y23463D01*
X25205Y23429D01*
X25238Y23391D01*
X25267Y23351D01*
X25293Y23309D01*
X25316Y23265D01*
X25335Y23219D01*
X25351Y23172D01*
X25363Y23123D01*
X25371Y23074D01*
X25375Y23025D01*
X25375Y22975D01*
X25371Y22926D01*
X25363Y22877D01*
X25351Y22828D01*
X25335Y22781D01*
X25316Y22735D01*
X25293Y22691D01*
X25267Y22649D01*
X25238Y22609D01*
X25205Y22571D01*
X25169Y22537D01*
X25131Y22505D01*
X25091Y22476D01*
X25048Y22451D01*
X25003Y22429D01*
X24957Y22410D01*
X24910Y22396D01*
X24861Y22385D01*
X24812Y22378D01*
X24762Y22375D01*
X24713Y22376D01*
X24663Y22381D01*
X24614Y22390D01*
X24566Y22403D01*
X24519Y22419D01*
X24474Y22439D01*
X24430Y22463D01*
X24389Y22490D01*
X24349Y22520D01*
X24312Y22554D01*
X24278Y22590D01*
X24247Y22629D01*
X24219Y22670D01*
X24195Y22713D01*
X24174Y22758D01*
X24156Y22805D01*
X24143Y22852D01*
X24133Y22901D01*
X24127Y22950D01*
X24125Y23000D01*
X31625Y25000D02*
X31627Y25050D01*
X31633Y25099D01*
X31643Y25148D01*
X31656Y25195D01*
X31674Y25242D01*
X31695Y25287D01*
X31719Y25330D01*
X31747Y25371D01*
X31778Y25410D01*
X31812Y25446D01*
X31849Y25480D01*
X31889Y25510D01*
X31930Y25537D01*
X31974Y25561D01*
X32019Y25581D01*
X32066Y25597D01*
X32114Y25610D01*
X32163Y25619D01*
X32213Y25624D01*
X32262Y25625D01*
X32312Y25622D01*
X32361Y25615D01*
X32410Y25604D01*
X32457Y25590D01*
X32503Y25571D01*
X32548Y25549D01*
X32591Y25524D01*
X32631Y25495D01*
X32669Y25463D01*
X32705Y25429D01*
X32738Y25391D01*
X32767Y25351D01*
X32793Y25309D01*
X32816Y25265D01*
X32835Y25219D01*
X32851Y25172D01*
X32863Y25123D01*
X32871Y25074D01*
X32875Y25025D01*
X32875Y24975D01*
X32871Y24926D01*
X32863Y24877D01*
X32851Y24828D01*
X32835Y24781D01*
X32816Y24735D01*
X32793Y24691D01*
X32767Y24649D01*
X32738Y24609D01*
X32705Y24571D01*
X32669Y24537D01*
X32631Y24505D01*
X32591Y24476D01*
X32548Y24451D01*
X32503Y24429D01*
X32457Y24410D01*
X32410Y24396D01*
X32361Y24385D01*
X32312Y24378D01*
X32262Y24375D01*
X32213Y24376D01*
X32163Y24381D01*
X32114Y24390D01*
X32066Y24403D01*
X32019Y24419D01*
X31974Y24439D01*
X31930Y24463D01*
X31889Y24490D01*
X31849Y24520D01*
X31812Y24554D01*
X31778Y24590D01*
X31747Y24629D01*
X31719Y24670D01*
X31695Y24713D01*
X31674Y24758D01*
X31656Y24805D01*
X31643Y24852D01*
X31633Y24901D01*
X31627Y24950D01*
X31625Y25000D01*
X32775Y19750D02*
X32777Y19800D01*
X32783Y19849D01*
X32793Y19898D01*
X32806Y19945D01*
X32824Y19992D01*
X32845Y20037D01*
X32869Y20080D01*
X32897Y20121D01*
X32928Y20160D01*
X32962Y20196D01*
X32999Y20230D01*
X33039Y20260D01*
X33080Y20287D01*
X33124Y20311D01*
X33169Y20331D01*
X33216Y20347D01*
X33264Y20360D01*
X33313Y20369D01*
X33363Y20374D01*
X33412Y20375D01*
X33462Y20372D01*
X33511Y20365D01*
X33560Y20354D01*
X33607Y20340D01*
X33653Y20321D01*
X33698Y20299D01*
X33741Y20274D01*
X33781Y20245D01*
X33819Y20213D01*
X33855Y20179D01*
X33888Y20141D01*
X33917Y20101D01*
X33943Y20059D01*
X33966Y20015D01*
X33985Y19969D01*
X34001Y19922D01*
X34013Y19873D01*
X34021Y19824D01*
X34025Y19775D01*
X34025Y19725D01*
X34021Y19676D01*
X34013Y19627D01*
X34001Y19578D01*
X33985Y19531D01*
X33966Y19485D01*
X33943Y19441D01*
X33917Y19399D01*
X33888Y19359D01*
X33855Y19321D01*
X33819Y19287D01*
X33781Y19255D01*
X33741Y19226D01*
X33698Y19201D01*
X33653Y19179D01*
X33607Y19160D01*
X33560Y19146D01*
X33511Y19135D01*
X33462Y19128D01*
X33412Y19125D01*
X33363Y19126D01*
X33313Y19131D01*
X33264Y19140D01*
X33216Y19153D01*
X33169Y19169D01*
X33124Y19189D01*
X33080Y19213D01*
X33039Y19240D01*
X32999Y19270D01*
X32962Y19304D01*
X32928Y19340D01*
X32897Y19379D01*
X32869Y19420D01*
X32845Y19463D01*
X32824Y19508D01*
X32806Y19555D01*
X32793Y19602D01*
X32783Y19651D01*
X32777Y19700D01*
X32775Y19750D01*
X22975Y19750D02*
X22977Y19800D01*
X22983Y19849D01*
X22993Y19898D01*
X23006Y19945D01*
X23024Y19992D01*
X23045Y20037D01*
X23069Y20080D01*
X23097Y20121D01*
X23128Y20160D01*
X23162Y20196D01*
X23199Y20230D01*
X23239Y20260D01*
X23280Y20287D01*
X23324Y20311D01*
X23369Y20331D01*
X23416Y20347D01*
X23464Y20360D01*
X23513Y20369D01*
X23563Y20374D01*
X23612Y20375D01*
X23662Y20372D01*
X23711Y20365D01*
X23760Y20354D01*
X23807Y20340D01*
X23853Y20321D01*
X23898Y20299D01*
X23941Y20274D01*
X23981Y20245D01*
X24019Y20213D01*
X24055Y20179D01*
X24088Y20141D01*
X24117Y20101D01*
X24143Y20059D01*
X24166Y20015D01*
X24185Y19969D01*
X24201Y19922D01*
X24213Y19873D01*
X24221Y19824D01*
X24225Y19775D01*
X24225Y19725D01*
X24221Y19676D01*
X24213Y19627D01*
X24201Y19578D01*
X24185Y19531D01*
X24166Y19485D01*
X24143Y19441D01*
X24117Y19399D01*
X24088Y19359D01*
X24055Y19321D01*
X24019Y19287D01*
X23981Y19255D01*
X23941Y19226D01*
X23898Y19201D01*
X23853Y19179D01*
X23807Y19160D01*
X23760Y19146D01*
X23711Y19135D01*
X23662Y19128D01*
X23612Y19125D01*
X23563Y19126D01*
X23513Y19131D01*
X23464Y19140D01*
X23416Y19153D01*
X23369Y19169D01*
X23324Y19189D01*
X23280Y19213D01*
X23239Y19240D01*
X23199Y19270D01*
X23162Y19304D01*
X23128Y19340D01*
X23097Y19379D01*
X23069Y19420D01*
X23045Y19463D01*
X23024Y19508D01*
X23006Y19555D01*
X22993Y19602D01*
X22983Y19651D01*
X22977Y19700D01*
X22975Y19750D01*
X21275Y19750D02*
X21277Y19800D01*
X21283Y19849D01*
X21293Y19898D01*
X21306Y19945D01*
X21324Y19992D01*
X21345Y20037D01*
X21369Y20080D01*
X21397Y20121D01*
X21428Y20160D01*
X21462Y20196D01*
X21499Y20230D01*
X21539Y20260D01*
X21580Y20287D01*
X21624Y20311D01*
X21669Y20331D01*
X21716Y20347D01*
X21764Y20360D01*
X21813Y20369D01*
X21863Y20374D01*
X21912Y20375D01*
X21962Y20372D01*
X22011Y20365D01*
X22060Y20354D01*
X22107Y20340D01*
X22153Y20321D01*
X22198Y20299D01*
X22241Y20274D01*
X22281Y20245D01*
X22319Y20213D01*
X22355Y20179D01*
X22388Y20141D01*
X22417Y20101D01*
X22443Y20059D01*
X22466Y20015D01*
X22485Y19969D01*
X22501Y19922D01*
X22513Y19873D01*
X22521Y19824D01*
X22525Y19775D01*
X22525Y19725D01*
X22521Y19676D01*
X22513Y19627D01*
X22501Y19578D01*
X22485Y19531D01*
X22466Y19485D01*
X22443Y19441D01*
X22417Y19399D01*
X22388Y19359D01*
X22355Y19321D01*
X22319Y19287D01*
X22281Y19255D01*
X22241Y19226D01*
X22198Y19201D01*
X22153Y19179D01*
X22107Y19160D01*
X22060Y19146D01*
X22011Y19135D01*
X21962Y19128D01*
X21912Y19125D01*
X21863Y19126D01*
X21813Y19131D01*
X21764Y19140D01*
X21716Y19153D01*
X21669Y19169D01*
X21624Y19189D01*
X21580Y19213D01*
X21539Y19240D01*
X21499Y19270D01*
X21462Y19304D01*
X21428Y19340D01*
X21397Y19379D01*
X21369Y19420D01*
X21345Y19463D01*
X21324Y19508D01*
X21306Y19555D01*
X21293Y19602D01*
X21283Y19651D01*
X21277Y19700D01*
X21275Y19750D01*
X1125Y11000D02*
X1127Y11050D01*
X1133Y11099D01*
X1143Y11148D01*
X1156Y11195D01*
X1174Y11242D01*
X1195Y11287D01*
X1219Y11330D01*
X1247Y11371D01*
X1278Y11410D01*
X1312Y11446D01*
X1349Y11480D01*
X1389Y11510D01*
X1430Y11537D01*
X1474Y11561D01*
X1519Y11581D01*
X1566Y11597D01*
X1614Y11610D01*
X1663Y11619D01*
X1713Y11624D01*
X1762Y11625D01*
X1812Y11622D01*
X1861Y11615D01*
X1910Y11604D01*
X1957Y11590D01*
X2003Y11571D01*
X2048Y11549D01*
X2091Y11524D01*
X2131Y11495D01*
X2169Y11463D01*
X2205Y11429D01*
X2238Y11391D01*
X2267Y11351D01*
X2293Y11309D01*
X2316Y11265D01*
X2335Y11219D01*
X2351Y11172D01*
X2363Y11123D01*
X2371Y11074D01*
X2375Y11025D01*
X2375Y10975D01*
X2371Y10926D01*
X2363Y10877D01*
X2351Y10828D01*
X2335Y10781D01*
X2316Y10735D01*
X2293Y10691D01*
X2267Y10649D01*
X2238Y10609D01*
X2205Y10571D01*
X2169Y10537D01*
X2131Y10505D01*
X2091Y10476D01*
X2048Y10451D01*
X2003Y10429D01*
X1957Y10410D01*
X1910Y10396D01*
X1861Y10385D01*
X1812Y10378D01*
X1762Y10375D01*
X1713Y10376D01*
X1663Y10381D01*
X1614Y10390D01*
X1566Y10403D01*
X1519Y10419D01*
X1474Y10439D01*
X1430Y10463D01*
X1389Y10490D01*
X1349Y10520D01*
X1312Y10554D01*
X1278Y10590D01*
X1247Y10629D01*
X1219Y10670D01*
X1195Y10713D01*
X1174Y10758D01*
X1156Y10805D01*
X1143Y10852D01*
X1133Y10901D01*
X1127Y10950D01*
X1125Y11000D01*
X1125Y9000D02*
X1127Y9050D01*
X1133Y9099D01*
X1143Y9148D01*
X1156Y9195D01*
X1174Y9242D01*
X1195Y9287D01*
X1219Y9330D01*
X1247Y9371D01*
X1278Y9410D01*
X1312Y9446D01*
X1349Y9480D01*
X1389Y9510D01*
X1430Y9537D01*
X1474Y9561D01*
X1519Y9581D01*
X1566Y9597D01*
X1614Y9610D01*
X1663Y9619D01*
X1713Y9624D01*
X1762Y9625D01*
X1812Y9622D01*
X1861Y9615D01*
X1910Y9604D01*
X1957Y9590D01*
X2003Y9571D01*
X2048Y9549D01*
X2091Y9524D01*
X2131Y9495D01*
X2169Y9463D01*
X2205Y9429D01*
X2238Y9391D01*
X2267Y9351D01*
X2293Y9309D01*
X2316Y9265D01*
X2335Y9219D01*
X2351Y9172D01*
X2363Y9123D01*
X2371Y9074D01*
X2375Y9025D01*
X2375Y8975D01*
X2371Y8926D01*
X2363Y8877D01*
X2351Y8828D01*
X2335Y8781D01*
X2316Y8735D01*
X2293Y8691D01*
X2267Y8649D01*
X2238Y8609D01*
X2205Y8571D01*
X2169Y8537D01*
X2131Y8505D01*
X2091Y8476D01*
X2048Y8451D01*
X2003Y8429D01*
X1957Y8410D01*
X1910Y8396D01*
X1861Y8385D01*
X1812Y8378D01*
X1762Y8375D01*
X1713Y8376D01*
X1663Y8381D01*
X1614Y8390D01*
X1566Y8403D01*
X1519Y8419D01*
X1474Y8439D01*
X1430Y8463D01*
X1389Y8490D01*
X1349Y8520D01*
X1312Y8554D01*
X1278Y8590D01*
X1247Y8629D01*
X1219Y8670D01*
X1195Y8713D01*
X1174Y8758D01*
X1156Y8805D01*
X1143Y8852D01*
X1133Y8901D01*
X1127Y8950D01*
X1125Y9000D01*
X8625Y11000D02*
X8627Y11050D01*
X8633Y11099D01*
X8643Y11148D01*
X8656Y11195D01*
X8674Y11242D01*
X8695Y11287D01*
X8719Y11330D01*
X8747Y11371D01*
X8778Y11410D01*
X8812Y11446D01*
X8849Y11480D01*
X8889Y11510D01*
X8930Y11537D01*
X8974Y11561D01*
X9019Y11581D01*
X9066Y11597D01*
X9114Y11610D01*
X9163Y11619D01*
X9213Y11624D01*
X9262Y11625D01*
X9312Y11622D01*
X9361Y11615D01*
X9410Y11604D01*
X9457Y11590D01*
X9503Y11571D01*
X9548Y11549D01*
X9591Y11524D01*
X9631Y11495D01*
X9669Y11463D01*
X9705Y11429D01*
X9738Y11391D01*
X9767Y11351D01*
X9793Y11309D01*
X9816Y11265D01*
X9835Y11219D01*
X9851Y11172D01*
X9863Y11123D01*
X9871Y11074D01*
X9875Y11025D01*
X9875Y10975D01*
X9871Y10926D01*
X9863Y10877D01*
X9851Y10828D01*
X9835Y10781D01*
X9816Y10735D01*
X9793Y10691D01*
X9767Y10649D01*
X9738Y10609D01*
X9705Y10571D01*
X9669Y10537D01*
X9631Y10505D01*
X9591Y10476D01*
X9548Y10451D01*
X9503Y10429D01*
X9457Y10410D01*
X9410Y10396D01*
X9361Y10385D01*
X9312Y10378D01*
X9262Y10375D01*
X9213Y10376D01*
X9163Y10381D01*
X9114Y10390D01*
X9066Y10403D01*
X9019Y10419D01*
X8974Y10439D01*
X8930Y10463D01*
X8889Y10490D01*
X8849Y10520D01*
X8812Y10554D01*
X8778Y10590D01*
X8747Y10629D01*
X8719Y10670D01*
X8695Y10713D01*
X8674Y10758D01*
X8656Y10805D01*
X8643Y10852D01*
X8633Y10901D01*
X8627Y10950D01*
X8625Y11000D01*
X12625Y11000D02*
X12627Y11050D01*
X12633Y11099D01*
X12643Y11148D01*
X12656Y11195D01*
X12674Y11242D01*
X12695Y11287D01*
X12719Y11330D01*
X12747Y11371D01*
X12778Y11410D01*
X12812Y11446D01*
X12849Y11480D01*
X12889Y11510D01*
X12930Y11537D01*
X12974Y11561D01*
X13019Y11581D01*
X13066Y11597D01*
X13114Y11610D01*
X13163Y11619D01*
X13213Y11624D01*
X13262Y11625D01*
X13312Y11622D01*
X13361Y11615D01*
X13410Y11604D01*
X13457Y11590D01*
X13503Y11571D01*
X13548Y11549D01*
X13591Y11524D01*
X13631Y11495D01*
X13669Y11463D01*
X13705Y11429D01*
X13738Y11391D01*
X13767Y11351D01*
X13793Y11309D01*
X13816Y11265D01*
X13835Y11219D01*
X13851Y11172D01*
X13863Y11123D01*
X13871Y11074D01*
X13875Y11025D01*
X13875Y10975D01*
X13871Y10926D01*
X13863Y10877D01*
X13851Y10828D01*
X13835Y10781D01*
X13816Y10735D01*
X13793Y10691D01*
X13767Y10649D01*
X13738Y10609D01*
X13705Y10571D01*
X13669Y10537D01*
X13631Y10505D01*
X13591Y10476D01*
X13548Y10451D01*
X13503Y10429D01*
X13457Y10410D01*
X13410Y10396D01*
X13361Y10385D01*
X13312Y10378D01*
X13262Y10375D01*
X13213Y10376D01*
X13163Y10381D01*
X13114Y10390D01*
X13066Y10403D01*
X13019Y10419D01*
X12974Y10439D01*
X12930Y10463D01*
X12889Y10490D01*
X12849Y10520D01*
X12812Y10554D01*
X12778Y10590D01*
X12747Y10629D01*
X12719Y10670D01*
X12695Y10713D01*
X12674Y10758D01*
X12656Y10805D01*
X12643Y10852D01*
X12633Y10901D01*
X12627Y10950D01*
X12625Y11000D01*
X12625Y9000D02*
X12627Y9050D01*
X12633Y9099D01*
X12643Y9148D01*
X12656Y9195D01*
X12674Y9242D01*
X12695Y9287D01*
X12719Y9330D01*
X12747Y9371D01*
X12778Y9410D01*
X12812Y9446D01*
X12849Y9480D01*
X12889Y9510D01*
X12930Y9537D01*
X12974Y9561D01*
X13019Y9581D01*
X13066Y9597D01*
X13114Y9610D01*
X13163Y9619D01*
X13213Y9624D01*
X13262Y9625D01*
X13312Y9622D01*
X13361Y9615D01*
X13410Y9604D01*
X13457Y9590D01*
X13503Y9571D01*
X13548Y9549D01*
X13591Y9524D01*
X13631Y9495D01*
X13669Y9463D01*
X13705Y9429D01*
X13738Y9391D01*
X13767Y9351D01*
X13793Y9309D01*
X13816Y9265D01*
X13835Y9219D01*
X13851Y9172D01*
X13863Y9123D01*
X13871Y9074D01*
X13875Y9025D01*
X13875Y8975D01*
X13871Y8926D01*
X13863Y8877D01*
X13851Y8828D01*
X13835Y8781D01*
X13816Y8735D01*
X13793Y8691D01*
X13767Y8649D01*
X13738Y8609D01*
X13705Y8571D01*
X13669Y8537D01*
X13631Y8505D01*
X13591Y8476D01*
X13548Y8451D01*
X13503Y8429D01*
X13457Y8410D01*
X13410Y8396D01*
X13361Y8385D01*
X13312Y8378D01*
X13262Y8375D01*
X13213Y8376D01*
X13163Y8381D01*
X13114Y8390D01*
X13066Y8403D01*
X13019Y8419D01*
X12974Y8439D01*
X12930Y8463D01*
X12889Y8490D01*
X12849Y8520D01*
X12812Y8554D01*
X12778Y8590D01*
X12747Y8629D01*
X12719Y8670D01*
X12695Y8713D01*
X12674Y8758D01*
X12656Y8805D01*
X12643Y8852D01*
X12633Y8901D01*
X12627Y8950D01*
X12625Y9000D01*
X20125Y11000D02*
X20127Y11050D01*
X20133Y11099D01*
X20143Y11148D01*
X20156Y11195D01*
X20174Y11242D01*
X20195Y11287D01*
X20219Y11330D01*
X20247Y11371D01*
X20278Y11410D01*
X20312Y11446D01*
X20349Y11480D01*
X20389Y11510D01*
X20430Y11537D01*
X20474Y11561D01*
X20519Y11581D01*
X20566Y11597D01*
X20614Y11610D01*
X20663Y11619D01*
X20713Y11624D01*
X20762Y11625D01*
X20812Y11622D01*
X20861Y11615D01*
X20910Y11604D01*
X20957Y11590D01*
X21003Y11571D01*
X21048Y11549D01*
X21091Y11524D01*
X21131Y11495D01*
X21169Y11463D01*
X21205Y11429D01*
X21238Y11391D01*
X21267Y11351D01*
X21293Y11309D01*
X21316Y11265D01*
X21335Y11219D01*
X21351Y11172D01*
X21363Y11123D01*
X21371Y11074D01*
X21375Y11025D01*
X21375Y10975D01*
X21371Y10926D01*
X21363Y10877D01*
X21351Y10828D01*
X21335Y10781D01*
X21316Y10735D01*
X21293Y10691D01*
X21267Y10649D01*
X21238Y10609D01*
X21205Y10571D01*
X21169Y10537D01*
X21131Y10505D01*
X21091Y10476D01*
X21048Y10451D01*
X21003Y10429D01*
X20957Y10410D01*
X20910Y10396D01*
X20861Y10385D01*
X20812Y10378D01*
X20762Y10375D01*
X20713Y10376D01*
X20663Y10381D01*
X20614Y10390D01*
X20566Y10403D01*
X20519Y10419D01*
X20474Y10439D01*
X20430Y10463D01*
X20389Y10490D01*
X20349Y10520D01*
X20312Y10554D01*
X20278Y10590D01*
X20247Y10629D01*
X20219Y10670D01*
X20195Y10713D01*
X20174Y10758D01*
X20156Y10805D01*
X20143Y10852D01*
X20133Y10901D01*
X20127Y10950D01*
X20125Y11000D01*
X24175Y11000D02*
X24177Y11050D01*
X24183Y11099D01*
X24193Y11148D01*
X24206Y11195D01*
X24224Y11242D01*
X24245Y11287D01*
X24269Y11330D01*
X24297Y11371D01*
X24328Y11410D01*
X24362Y11446D01*
X24399Y11480D01*
X24439Y11510D01*
X24480Y11537D01*
X24524Y11561D01*
X24569Y11581D01*
X24616Y11597D01*
X24664Y11610D01*
X24713Y11619D01*
X24763Y11624D01*
X24812Y11625D01*
X24862Y11622D01*
X24911Y11615D01*
X24960Y11604D01*
X25007Y11590D01*
X25053Y11571D01*
X25098Y11549D01*
X25141Y11524D01*
X25181Y11495D01*
X25219Y11463D01*
X25255Y11429D01*
X25288Y11391D01*
X25317Y11351D01*
X25343Y11309D01*
X25366Y11265D01*
X25385Y11219D01*
X25401Y11172D01*
X25413Y11123D01*
X25421Y11074D01*
X25425Y11025D01*
X25425Y10975D01*
X25421Y10926D01*
X25413Y10877D01*
X25401Y10828D01*
X25385Y10781D01*
X25366Y10735D01*
X25343Y10691D01*
X25317Y10649D01*
X25288Y10609D01*
X25255Y10571D01*
X25219Y10537D01*
X25181Y10505D01*
X25141Y10476D01*
X25098Y10451D01*
X25053Y10429D01*
X25007Y10410D01*
X24960Y10396D01*
X24911Y10385D01*
X24862Y10378D01*
X24812Y10375D01*
X24763Y10376D01*
X24713Y10381D01*
X24664Y10390D01*
X24616Y10403D01*
X24569Y10419D01*
X24524Y10439D01*
X24480Y10463D01*
X24439Y10490D01*
X24399Y10520D01*
X24362Y10554D01*
X24328Y10590D01*
X24297Y10629D01*
X24269Y10670D01*
X24245Y10713D01*
X24224Y10758D01*
X24206Y10805D01*
X24193Y10852D01*
X24183Y10901D01*
X24177Y10950D01*
X24175Y11000D01*
X24125Y9000D02*
X24127Y9050D01*
X24133Y9099D01*
X24143Y9148D01*
X24156Y9195D01*
X24174Y9242D01*
X24195Y9287D01*
X24219Y9330D01*
X24247Y9371D01*
X24278Y9410D01*
X24312Y9446D01*
X24349Y9480D01*
X24389Y9510D01*
X24430Y9537D01*
X24474Y9561D01*
X24519Y9581D01*
X24566Y9597D01*
X24614Y9610D01*
X24663Y9619D01*
X24713Y9624D01*
X24762Y9625D01*
X24812Y9622D01*
X24861Y9615D01*
X24910Y9604D01*
X24957Y9590D01*
X25003Y9571D01*
X25048Y9549D01*
X25091Y9524D01*
X25131Y9495D01*
X25169Y9463D01*
X25205Y9429D01*
X25238Y9391D01*
X25267Y9351D01*
X25293Y9309D01*
X25316Y9265D01*
X25335Y9219D01*
X25351Y9172D01*
X25363Y9123D01*
X25371Y9074D01*
X25375Y9025D01*
X25375Y8975D01*
X25371Y8926D01*
X25363Y8877D01*
X25351Y8828D01*
X25335Y8781D01*
X25316Y8735D01*
X25293Y8691D01*
X25267Y8649D01*
X25238Y8609D01*
X25205Y8571D01*
X25169Y8537D01*
X25131Y8505D01*
X25091Y8476D01*
X25048Y8451D01*
X25003Y8429D01*
X24957Y8410D01*
X24910Y8396D01*
X24861Y8385D01*
X24812Y8378D01*
X24762Y8375D01*
X24713Y8376D01*
X24663Y8381D01*
X24614Y8390D01*
X24566Y8403D01*
X24519Y8419D01*
X24474Y8439D01*
X24430Y8463D01*
X24389Y8490D01*
X24349Y8520D01*
X24312Y8554D01*
X24278Y8590D01*
X24247Y8629D01*
X24219Y8670D01*
X24195Y8713D01*
X24174Y8758D01*
X24156Y8805D01*
X24143Y8852D01*
X24133Y8901D01*
X24127Y8950D01*
X24125Y9000D01*
X21275Y5750D02*
X21277Y5800D01*
X21283Y5849D01*
X21293Y5898D01*
X21306Y5945D01*
X21324Y5992D01*
X21345Y6037D01*
X21369Y6080D01*
X21397Y6121D01*
X21428Y6160D01*
X21462Y6196D01*
X21499Y6230D01*
X21539Y6260D01*
X21580Y6287D01*
X21624Y6311D01*
X21669Y6331D01*
X21716Y6347D01*
X21764Y6360D01*
X21813Y6369D01*
X21863Y6374D01*
X21912Y6375D01*
X21962Y6372D01*
X22011Y6365D01*
X22060Y6354D01*
X22107Y6340D01*
X22153Y6321D01*
X22198Y6299D01*
X22241Y6274D01*
X22281Y6245D01*
X22319Y6213D01*
X22355Y6179D01*
X22388Y6141D01*
X22417Y6101D01*
X22443Y6059D01*
X22466Y6015D01*
X22485Y5969D01*
X22501Y5922D01*
X22513Y5873D01*
X22521Y5824D01*
X22525Y5775D01*
X22525Y5725D01*
X22521Y5676D01*
X22513Y5627D01*
X22501Y5578D01*
X22485Y5531D01*
X22466Y5485D01*
X22443Y5441D01*
X22417Y5399D01*
X22388Y5359D01*
X22355Y5321D01*
X22319Y5287D01*
X22281Y5255D01*
X22241Y5226D01*
X22198Y5201D01*
X22153Y5179D01*
X22107Y5160D01*
X22060Y5146D01*
X22011Y5135D01*
X21962Y5128D01*
X21912Y5125D01*
X21863Y5126D01*
X21813Y5131D01*
X21764Y5140D01*
X21716Y5153D01*
X21669Y5169D01*
X21624Y5189D01*
X21580Y5213D01*
X21539Y5240D01*
X21499Y5270D01*
X21462Y5304D01*
X21428Y5340D01*
X21397Y5379D01*
X21369Y5420D01*
X21345Y5463D01*
X21324Y5508D01*
X21306Y5555D01*
X21293Y5602D01*
X21283Y5651D01*
X21277Y5700D01*
X21275Y5750D01*
X22975Y5750D02*
X22977Y5800D01*
X22983Y5849D01*
X22993Y5898D01*
X23006Y5945D01*
X23024Y5992D01*
X23045Y6037D01*
X23069Y6080D01*
X23097Y6121D01*
X23128Y6160D01*
X23162Y6196D01*
X23199Y6230D01*
X23239Y6260D01*
X23280Y6287D01*
X23324Y6311D01*
X23369Y6331D01*
X23416Y6347D01*
X23464Y6360D01*
X23513Y6369D01*
X23563Y6374D01*
X23612Y6375D01*
X23662Y6372D01*
X23711Y6365D01*
X23760Y6354D01*
X23807Y6340D01*
X23853Y6321D01*
X23898Y6299D01*
X23941Y6274D01*
X23981Y6245D01*
X24019Y6213D01*
X24055Y6179D01*
X24088Y6141D01*
X24117Y6101D01*
X24143Y6059D01*
X24166Y6015D01*
X24185Y5969D01*
X24201Y5922D01*
X24213Y5873D01*
X24221Y5824D01*
X24225Y5775D01*
X24225Y5725D01*
X24221Y5676D01*
X24213Y5627D01*
X24201Y5578D01*
X24185Y5531D01*
X24166Y5485D01*
X24143Y5441D01*
X24117Y5399D01*
X24088Y5359D01*
X24055Y5321D01*
X24019Y5287D01*
X23981Y5255D01*
X23941Y5226D01*
X23898Y5201D01*
X23853Y5179D01*
X23807Y5160D01*
X23760Y5146D01*
X23711Y5135D01*
X23662Y5128D01*
X23612Y5125D01*
X23563Y5126D01*
X23513Y5131D01*
X23464Y5140D01*
X23416Y5153D01*
X23369Y5169D01*
X23324Y5189D01*
X23280Y5213D01*
X23239Y5240D01*
X23199Y5270D01*
X23162Y5304D01*
X23128Y5340D01*
X23097Y5379D01*
X23069Y5420D01*
X23045Y5463D01*
X23024Y5508D01*
X23006Y5555D01*
X22993Y5602D01*
X22983Y5651D01*
X22977Y5700D01*
X22975Y5750D01*
X31625Y11000D02*
X31627Y11050D01*
X31633Y11099D01*
X31643Y11148D01*
X31656Y11195D01*
X31674Y11242D01*
X31695Y11287D01*
X31719Y11330D01*
X31747Y11371D01*
X31778Y11410D01*
X31812Y11446D01*
X31849Y11480D01*
X31889Y11510D01*
X31930Y11537D01*
X31974Y11561D01*
X32019Y11581D01*
X32066Y11597D01*
X32114Y11610D01*
X32163Y11619D01*
X32213Y11624D01*
X32262Y11625D01*
X32312Y11622D01*
X32361Y11615D01*
X32410Y11604D01*
X32457Y11590D01*
X32503Y11571D01*
X32548Y11549D01*
X32591Y11524D01*
X32631Y11495D01*
X32669Y11463D01*
X32705Y11429D01*
X32738Y11391D01*
X32767Y11351D01*
X32793Y11309D01*
X32816Y11265D01*
X32835Y11219D01*
X32851Y11172D01*
X32863Y11123D01*
X32871Y11074D01*
X32875Y11025D01*
X32875Y10975D01*
X32871Y10926D01*
X32863Y10877D01*
X32851Y10828D01*
X32835Y10781D01*
X32816Y10735D01*
X32793Y10691D01*
X32767Y10649D01*
X32738Y10609D01*
X32705Y10571D01*
X32669Y10537D01*
X32631Y10505D01*
X32591Y10476D01*
X32548Y10451D01*
X32503Y10429D01*
X32457Y10410D01*
X32410Y10396D01*
X32361Y10385D01*
X32312Y10378D01*
X32262Y10375D01*
X32213Y10376D01*
X32163Y10381D01*
X32114Y10390D01*
X32066Y10403D01*
X32019Y10419D01*
X31974Y10439D01*
X31930Y10463D01*
X31889Y10490D01*
X31849Y10520D01*
X31812Y10554D01*
X31778Y10590D01*
X31747Y10629D01*
X31719Y10670D01*
X31695Y10713D01*
X31674Y10758D01*
X31656Y10805D01*
X31643Y10852D01*
X31633Y10901D01*
X31627Y10950D01*
X31625Y11000D01*
X32775Y5700D02*
X32777Y5750D01*
X32783Y5799D01*
X32793Y5848D01*
X32806Y5895D01*
X32824Y5942D01*
X32845Y5987D01*
X32869Y6030D01*
X32897Y6071D01*
X32928Y6110D01*
X32962Y6146D01*
X32999Y6180D01*
X33039Y6210D01*
X33080Y6237D01*
X33124Y6261D01*
X33169Y6281D01*
X33216Y6297D01*
X33264Y6310D01*
X33313Y6319D01*
X33363Y6324D01*
X33412Y6325D01*
X33462Y6322D01*
X33511Y6315D01*
X33560Y6304D01*
X33607Y6290D01*
X33653Y6271D01*
X33698Y6249D01*
X33741Y6224D01*
X33781Y6195D01*
X33819Y6163D01*
X33855Y6129D01*
X33888Y6091D01*
X33917Y6051D01*
X33943Y6009D01*
X33966Y5965D01*
X33985Y5919D01*
X34001Y5872D01*
X34013Y5823D01*
X34021Y5774D01*
X34025Y5725D01*
X34025Y5675D01*
X34021Y5626D01*
X34013Y5577D01*
X34001Y5528D01*
X33985Y5481D01*
X33966Y5435D01*
X33943Y5391D01*
X33917Y5349D01*
X33888Y5309D01*
X33855Y5271D01*
X33819Y5237D01*
X33781Y5205D01*
X33741Y5176D01*
X33698Y5151D01*
X33653Y5129D01*
X33607Y5110D01*
X33560Y5096D01*
X33511Y5085D01*
X33462Y5078D01*
X33412Y5075D01*
X33363Y5076D01*
X33313Y5081D01*
X33264Y5090D01*
X33216Y5103D01*
X33169Y5119D01*
X33124Y5139D01*
X33080Y5163D01*
X33039Y5190D01*
X32999Y5220D01*
X32962Y5254D01*
X32928Y5290D01*
X32897Y5329D01*
X32869Y5370D01*
X32845Y5413D01*
X32824Y5458D01*
X32806Y5505D01*
X32793Y5552D01*
X32783Y5601D01*
X32777Y5650D01*
X32775Y5700D01*
X11475Y5750D02*
X11477Y5800D01*
X11483Y5849D01*
X11493Y5898D01*
X11506Y5945D01*
X11524Y5992D01*
X11545Y6037D01*
X11569Y6080D01*
X11597Y6121D01*
X11628Y6160D01*
X11662Y6196D01*
X11699Y6230D01*
X11739Y6260D01*
X11780Y6287D01*
X11824Y6311D01*
X11869Y6331D01*
X11916Y6347D01*
X11964Y6360D01*
X12013Y6369D01*
X12063Y6374D01*
X12112Y6375D01*
X12162Y6372D01*
X12211Y6365D01*
X12260Y6354D01*
X12307Y6340D01*
X12353Y6321D01*
X12398Y6299D01*
X12441Y6274D01*
X12481Y6245D01*
X12519Y6213D01*
X12555Y6179D01*
X12588Y6141D01*
X12617Y6101D01*
X12643Y6059D01*
X12666Y6015D01*
X12685Y5969D01*
X12701Y5922D01*
X12713Y5873D01*
X12721Y5824D01*
X12725Y5775D01*
X12725Y5725D01*
X12721Y5676D01*
X12713Y5627D01*
X12701Y5578D01*
X12685Y5531D01*
X12666Y5485D01*
X12643Y5441D01*
X12617Y5399D01*
X12588Y5359D01*
X12555Y5321D01*
X12519Y5287D01*
X12481Y5255D01*
X12441Y5226D01*
X12398Y5201D01*
X12353Y5179D01*
X12307Y5160D01*
X12260Y5146D01*
X12211Y5135D01*
X12162Y5128D01*
X12112Y5125D01*
X12063Y5126D01*
X12013Y5131D01*
X11964Y5140D01*
X11916Y5153D01*
X11869Y5169D01*
X11824Y5189D01*
X11780Y5213D01*
X11739Y5240D01*
X11699Y5270D01*
X11662Y5304D01*
X11628Y5340D01*
X11597Y5379D01*
X11569Y5420D01*
X11545Y5463D01*
X11524Y5508D01*
X11506Y5555D01*
X11493Y5602D01*
X11483Y5651D01*
X11477Y5700D01*
X11475Y5750D01*
X9775Y5750D02*
X9777Y5800D01*
X9783Y5849D01*
X9793Y5898D01*
X9806Y5945D01*
X9824Y5992D01*
X9845Y6037D01*
X9869Y6080D01*
X9897Y6121D01*
X9928Y6160D01*
X9962Y6196D01*
X9999Y6230D01*
X10039Y6260D01*
X10080Y6287D01*
X10124Y6311D01*
X10169Y6331D01*
X10216Y6347D01*
X10264Y6360D01*
X10313Y6369D01*
X10363Y6374D01*
X10412Y6375D01*
X10462Y6372D01*
X10511Y6365D01*
X10560Y6354D01*
X10607Y6340D01*
X10653Y6321D01*
X10698Y6299D01*
X10741Y6274D01*
X10781Y6245D01*
X10819Y6213D01*
X10855Y6179D01*
X10888Y6141D01*
X10917Y6101D01*
X10943Y6059D01*
X10966Y6015D01*
X10985Y5969D01*
X11001Y5922D01*
X11013Y5873D01*
X11021Y5824D01*
X11025Y5775D01*
X11025Y5725D01*
X11021Y5676D01*
X11013Y5627D01*
X11001Y5578D01*
X10985Y5531D01*
X10966Y5485D01*
X10943Y5441D01*
X10917Y5399D01*
X10888Y5359D01*
X10855Y5321D01*
X10819Y5287D01*
X10781Y5255D01*
X10741Y5226D01*
X10698Y5201D01*
X10653Y5179D01*
X10607Y5160D01*
X10560Y5146D01*
X10511Y5135D01*
X10462Y5128D01*
X10412Y5125D01*
X10363Y5126D01*
X10313Y5131D01*
X10264Y5140D01*
X10216Y5153D01*
X10169Y5169D01*
X10124Y5189D01*
X10080Y5213D01*
X10039Y5240D01*
X9999Y5270D01*
X9962Y5304D01*
X9928Y5340D01*
X9897Y5379D01*
X9869Y5420D01*
X9845Y5463D01*
X9824Y5508D01*
X9806Y5555D01*
X9793Y5602D01*
X9783Y5651D01*
X9777Y5700D01*
X9775Y5750D01*
X-25Y5700D02*
X-23Y5750D01*
X-17Y5799D01*
X-7Y5848D01*
X6Y5895D01*
X24Y5942D01*
X45Y5987D01*
X69Y6030D01*
X97Y6071D01*
X128Y6110D01*
X162Y6146D01*
X199Y6180D01*
X239Y6210D01*
X280Y6237D01*
X324Y6261D01*
X369Y6281D01*
X416Y6297D01*
X464Y6310D01*
X513Y6319D01*
X563Y6324D01*
X612Y6325D01*
X662Y6322D01*
X711Y6315D01*
X760Y6304D01*
X807Y6290D01*
X853Y6271D01*
X898Y6249D01*
X941Y6224D01*
X981Y6195D01*
X1019Y6163D01*
X1055Y6129D01*
X1088Y6091D01*
X1117Y6051D01*
X1143Y6009D01*
X1166Y5965D01*
X1185Y5919D01*
X1201Y5872D01*
X1213Y5823D01*
X1221Y5774D01*
X1225Y5725D01*
X1225Y5675D01*
X1221Y5626D01*
X1213Y5577D01*
X1201Y5528D01*
X1185Y5481D01*
X1166Y5435D01*
X1143Y5391D01*
X1117Y5349D01*
X1088Y5309D01*
X1055Y5271D01*
X1019Y5237D01*
X981Y5205D01*
X941Y5176D01*
X898Y5151D01*
X853Y5129D01*
X807Y5110D01*
X760Y5096D01*
X711Y5085D01*
X662Y5078D01*
X612Y5075D01*
X563Y5076D01*
X513Y5081D01*
X464Y5090D01*
X416Y5103D01*
X369Y5119D01*
X324Y5139D01*
X280Y5163D01*
X239Y5190D01*
X199Y5220D01*
X162Y5254D01*
X128Y5290D01*
X97Y5329D01*
X69Y5370D01*
X45Y5413D01*
X24Y5458D01*
X6Y5505D01*
X-7Y5552D01*
X-17Y5601D01*
X-23Y5650D01*
X-25Y5700D01*
M02*
