G04 EAGLE Gerber X2 export*
%TF.Part,Single*%
%TF.FileFunction,Soldermask,Bot,1*%
%TF.FilePolarity,Negative*%
%TF.GenerationSoftware,Autodesk,EAGLE,9.1.3*%
%TF.CreationDate,2018-11-04T16:40:41Z*%
G75*
%MOIN*%
%FSLAX34Y34*%
%LPD*%
%AMOC8*
5,1,8,0,0,1.08239X$1,22.5*%
G01*
%ADD10C,0.133000*%
%ADD11R,0.038000X0.098000*%
%ADD12C,0.074000*%
%ADD13R,0.055244X0.055244*%
%ADD14R,0.039496X0.055244*%


D10*
X1750Y25000D03*
X9250Y25000D03*
X1750Y23000D03*
X13250Y25000D03*
X13250Y23000D03*
X12100Y19750D03*
X10400Y19700D03*
X600Y19750D03*
X20750Y25000D03*
X24750Y25000D03*
X24750Y23000D03*
X32250Y25000D03*
X33400Y19750D03*
X23600Y19750D03*
X21900Y19750D03*
X1750Y11000D03*
X1750Y9000D03*
X9250Y11000D03*
X13250Y11000D03*
X13250Y9000D03*
X20750Y11000D03*
X24800Y11000D03*
X24750Y9000D03*
X21900Y5750D03*
X23600Y5750D03*
X32250Y11000D03*
X33400Y5700D03*
X12100Y5750D03*
X10400Y5750D03*
X600Y5700D03*
D11*
X4500Y10250D03*
X4500Y11750D03*
X5000Y10250D03*
X5000Y11750D03*
X5500Y10250D03*
X5500Y11750D03*
X6000Y10250D03*
X6000Y11750D03*
X6500Y10250D03*
X6500Y11750D03*
D12*
X4350Y7500D03*
X4350Y6500D03*
X4350Y5500D03*
X8250Y3000D03*
X9250Y3000D03*
X10250Y3000D03*
X750Y3000D03*
X1750Y3000D03*
X2750Y3000D03*
X4000Y3000D03*
X5000Y3000D03*
X6000Y3000D03*
X7000Y3000D03*
X6700Y9100D03*
D11*
X16000Y10250D03*
X16000Y11750D03*
X16500Y10250D03*
X16500Y11750D03*
X17000Y10250D03*
X17000Y11750D03*
X17500Y10250D03*
X17500Y11750D03*
X18000Y10250D03*
X18000Y11750D03*
D12*
X15850Y7500D03*
X15850Y6500D03*
X15850Y5500D03*
X19750Y3000D03*
X20750Y3000D03*
X21750Y3000D03*
X12250Y3000D03*
X13250Y3000D03*
X14250Y3000D03*
X15500Y3000D03*
X16500Y3000D03*
X17500Y3000D03*
X18500Y3000D03*
X18200Y9100D03*
D11*
X27500Y10250D03*
X27500Y11750D03*
X28000Y10250D03*
X28000Y11750D03*
X28500Y10250D03*
X28500Y11750D03*
X29000Y10250D03*
X29000Y11750D03*
X29500Y10250D03*
X29500Y11750D03*
D12*
X27350Y7500D03*
X27350Y6500D03*
X27350Y5500D03*
X31250Y3000D03*
X32250Y3000D03*
X33250Y3000D03*
X23750Y3000D03*
X24750Y3000D03*
X25750Y3000D03*
X27000Y3000D03*
X28000Y3000D03*
X29000Y3000D03*
X30000Y3000D03*
X29700Y9100D03*
D11*
X4500Y24250D03*
X4500Y25750D03*
X5000Y24250D03*
X5000Y25750D03*
X5500Y24250D03*
X5500Y25750D03*
X6000Y24250D03*
X6000Y25750D03*
X6500Y24250D03*
X6500Y25750D03*
D12*
X4350Y21500D03*
X4350Y20500D03*
X4350Y19500D03*
X8250Y17000D03*
X9250Y17000D03*
X10250Y17000D03*
X750Y17000D03*
X1750Y17000D03*
X2750Y17000D03*
X4000Y17000D03*
X5000Y17000D03*
X6000Y17000D03*
X7000Y17000D03*
X6700Y23100D03*
D11*
X16000Y24250D03*
X16000Y25750D03*
X16500Y24250D03*
X16500Y25750D03*
X17000Y24250D03*
X17000Y25750D03*
X17500Y24250D03*
X17500Y25750D03*
X18000Y24250D03*
X18000Y25750D03*
D12*
X15850Y21500D03*
X15850Y20500D03*
X15850Y19500D03*
X19750Y17000D03*
X20750Y17000D03*
X21750Y17000D03*
X12250Y17000D03*
X13250Y17000D03*
X14250Y17000D03*
X15500Y17000D03*
X16500Y17000D03*
X17500Y17000D03*
X18500Y17000D03*
X18200Y23100D03*
D11*
X27500Y24250D03*
X27500Y25750D03*
X28000Y24250D03*
X28000Y25750D03*
X28500Y24250D03*
X28500Y25750D03*
X29000Y24250D03*
X29000Y25750D03*
X29500Y24250D03*
X29500Y25750D03*
D12*
X27350Y21500D03*
X27350Y20500D03*
X27350Y19500D03*
X31250Y17000D03*
X32250Y17000D03*
X33250Y17000D03*
X23750Y17000D03*
X24750Y17000D03*
X25750Y17000D03*
X27000Y17000D03*
X28000Y17000D03*
X29000Y17000D03*
X30000Y17000D03*
X29700Y23100D03*
X1000Y31500D03*
X2000Y31500D03*
X3000Y31500D03*
X4000Y31500D03*
X5000Y31500D03*
X4500Y29500D03*
X3500Y29500D03*
X2500Y29500D03*
X1500Y29500D03*
D13*
X3413Y33450D03*
X2587Y33450D03*
X1913Y33450D03*
X1087Y33450D03*
X4913Y33450D03*
X4087Y33450D03*
D14*
X3354Y32500D03*
X2646Y32500D03*
X1146Y32500D03*
X1854Y32500D03*
X4146Y32500D03*
X4854Y32500D03*
D12*
X6500Y31500D03*
X7500Y31500D03*
X8500Y31500D03*
X9500Y31500D03*
X10500Y31500D03*
X10000Y29500D03*
X9000Y29500D03*
X8000Y29500D03*
X7000Y29500D03*
D13*
X8913Y33450D03*
X8087Y33450D03*
X7413Y33450D03*
X6587Y33450D03*
X10413Y33450D03*
X9587Y33450D03*
D14*
X8854Y32500D03*
X8146Y32500D03*
X6646Y32500D03*
X7354Y32500D03*
X9646Y32500D03*
X10354Y32500D03*
D12*
X12000Y31500D03*
X13000Y31500D03*
X14000Y31500D03*
X15000Y31500D03*
X16000Y31500D03*
X15500Y29500D03*
X14500Y29500D03*
X13500Y29500D03*
X12500Y29500D03*
D13*
X14413Y33450D03*
X13587Y33450D03*
X12913Y33450D03*
X12087Y33450D03*
X15913Y33450D03*
X15087Y33450D03*
D14*
X14354Y32500D03*
X13646Y32500D03*
X12146Y32500D03*
X12854Y32500D03*
X15146Y32500D03*
X15854Y32500D03*
D12*
X18000Y31500D03*
X19000Y31500D03*
X20000Y31500D03*
X21000Y31500D03*
X22000Y31500D03*
X21500Y29500D03*
X20500Y29500D03*
X19500Y29500D03*
X18500Y29500D03*
D13*
X20413Y33450D03*
X19587Y33450D03*
X18913Y33450D03*
X18087Y33450D03*
X21913Y33450D03*
X21087Y33450D03*
D14*
X20354Y32500D03*
X19646Y32500D03*
X18146Y32500D03*
X18854Y32500D03*
X21146Y32500D03*
X21854Y32500D03*
D12*
X23500Y31500D03*
X24500Y31500D03*
X25500Y31500D03*
X26500Y31500D03*
X27500Y31500D03*
X27000Y29500D03*
X26000Y29500D03*
X25000Y29500D03*
X24000Y29500D03*
D13*
X25913Y33450D03*
X25087Y33450D03*
X24413Y33450D03*
X23587Y33450D03*
X27413Y33450D03*
X26587Y33450D03*
D14*
X25854Y32500D03*
X25146Y32500D03*
X23646Y32500D03*
X24354Y32500D03*
X26646Y32500D03*
X27354Y32500D03*
D12*
X29000Y31500D03*
X30000Y31500D03*
X31000Y31500D03*
X32000Y31500D03*
X33000Y31500D03*
X32500Y29500D03*
X31500Y29500D03*
X30500Y29500D03*
X29500Y29500D03*
D13*
X31413Y33450D03*
X30587Y33450D03*
X29913Y33450D03*
X29087Y33450D03*
X32913Y33450D03*
X32087Y33450D03*
D14*
X31354Y32500D03*
X30646Y32500D03*
X29146Y32500D03*
X29854Y32500D03*
X32146Y32500D03*
X32854Y32500D03*
M02*
