G04 EAGLE Gerber X2 export*
%TF.Part,Single*%
%TF.FileFunction,Paste,Bot*%
%TF.FilePolarity,Positive*%
%TF.GenerationSoftware,Autodesk,EAGLE,9.1.3*%
%TF.CreationDate,2018-11-04T16:40:41Z*%
G75*
%MOIN*%
%FSLAX34Y34*%
%LPD*%
%AMOC8*
5,1,8,0,0,1.08239X$1,22.5*%
G01*
%ADD10R,0.030000X0.090000*%
%ADD11R,0.047244X0.047244*%
%ADD12R,0.031496X0.047244*%


D10*
X4500Y10250D03*
X4500Y11750D03*
X5000Y10250D03*
X5000Y11750D03*
X5500Y10250D03*
X5500Y11750D03*
X6000Y10250D03*
X6000Y11750D03*
X6500Y10250D03*
X6500Y11750D03*
X16000Y10250D03*
X16000Y11750D03*
X16500Y10250D03*
X16500Y11750D03*
X17000Y10250D03*
X17000Y11750D03*
X17500Y10250D03*
X17500Y11750D03*
X18000Y10250D03*
X18000Y11750D03*
X27500Y10250D03*
X27500Y11750D03*
X28000Y10250D03*
X28000Y11750D03*
X28500Y10250D03*
X28500Y11750D03*
X29000Y10250D03*
X29000Y11750D03*
X29500Y10250D03*
X29500Y11750D03*
X4500Y24250D03*
X4500Y25750D03*
X5000Y24250D03*
X5000Y25750D03*
X5500Y24250D03*
X5500Y25750D03*
X6000Y24250D03*
X6000Y25750D03*
X6500Y24250D03*
X6500Y25750D03*
X16000Y24250D03*
X16000Y25750D03*
X16500Y24250D03*
X16500Y25750D03*
X17000Y24250D03*
X17000Y25750D03*
X17500Y24250D03*
X17500Y25750D03*
X18000Y24250D03*
X18000Y25750D03*
X27500Y24250D03*
X27500Y25750D03*
X28000Y24250D03*
X28000Y25750D03*
X28500Y24250D03*
X28500Y25750D03*
X29000Y24250D03*
X29000Y25750D03*
X29500Y24250D03*
X29500Y25750D03*
D11*
X3413Y33450D03*
X2587Y33450D03*
X1913Y33450D03*
X1087Y33450D03*
X4913Y33450D03*
X4087Y33450D03*
D12*
X3354Y32500D03*
X2646Y32500D03*
X1146Y32500D03*
X1854Y32500D03*
X4146Y32500D03*
X4854Y32500D03*
D11*
X8913Y33450D03*
X8087Y33450D03*
X7413Y33450D03*
X6587Y33450D03*
X10413Y33450D03*
X9587Y33450D03*
D12*
X8854Y32500D03*
X8146Y32500D03*
X6646Y32500D03*
X7354Y32500D03*
X9646Y32500D03*
X10354Y32500D03*
D11*
X14413Y33450D03*
X13587Y33450D03*
X12913Y33450D03*
X12087Y33450D03*
X15913Y33450D03*
X15087Y33450D03*
D12*
X14354Y32500D03*
X13646Y32500D03*
X12146Y32500D03*
X12854Y32500D03*
X15146Y32500D03*
X15854Y32500D03*
D11*
X20413Y33450D03*
X19587Y33450D03*
X18913Y33450D03*
X18087Y33450D03*
X21913Y33450D03*
X21087Y33450D03*
D12*
X20354Y32500D03*
X19646Y32500D03*
X18146Y32500D03*
X18854Y32500D03*
X21146Y32500D03*
X21854Y32500D03*
D11*
X25913Y33450D03*
X25087Y33450D03*
X24413Y33450D03*
X23587Y33450D03*
X27413Y33450D03*
X26587Y33450D03*
D12*
X25854Y32500D03*
X25146Y32500D03*
X23646Y32500D03*
X24354Y32500D03*
X26646Y32500D03*
X27354Y32500D03*
D11*
X31413Y33450D03*
X30587Y33450D03*
X29913Y33450D03*
X29087Y33450D03*
X32913Y33450D03*
X32087Y33450D03*
D12*
X31354Y32500D03*
X30646Y32500D03*
X29146Y32500D03*
X29854Y32500D03*
X32146Y32500D03*
X32854Y32500D03*
M02*
