  0
SECTION
  2
HEADER
  9
$ACADVER
  1
AC1009
  9
$FILLMODE
 70
0
  9
$EXTMIN
 10
-0.005500
 20
-0.114000
 30
0.000000
  9
$EXTMAX
 10
1.105500
 20
1.353900
 30
0.000000
  0
ENDSEC
  0
SECTION
  2
TABLES
  0
TABLE
  2
LTYPE
 70
1
  0
LTYPE
  2
CONTINUOUS
 70
64
  3
Solid line
 72
65
 73
0
 40
0
  0
ENDTAB
  0
TABLE
  2
LAYER
 70
255
  0
LAYER
  2
17
 70
64
 62
110
  6
CONTINUOUS
  0
LAYER
  2
18
 70
64
 62
110
  6
CONTINUOUS
  0
LAYER
  2
19
 70
64
 62
53
  6
CONTINUOUS
  0
LAYER
  2
20
 70
64
 62
31
  6
CONTINUOUS
  0
LAYER
  2
39
 70
64
 62
12
  6
CONTINUOUS
  0
LAYER
  2
41
 70
64
 62
12
  6
CONTINUOUS
  0
LAYER
  2
44
 70
64
 62
253
  6
CONTINUOUS
  0
LAYER
  2
45
 70
64
 62
253
  6
CONTINUOUS
  0
LAYER
  2
112
 70
64
 62
253
  6
CONTINUOUS
  0
ENDTAB
  0
ENDSEC
  0
SECTION
  2
BLOCKS
  0
BLOCK
  8
0
  2
RECT
 70
64
 10
0.000000
 20
0.000000
 30
0.000000
  3
RECT
  0
SOLID
  8
0
 10
-0.500000
 20
-0.500000
 30
0.000000
 11
0.500000
 21
-0.500000
 31
0.000000
 12
-0.500000
 22
0.500000
 32
0.000000
 13
0.500000
 23
0.500000
 33
0.000000
  0
ENDBLK
  8
0
  0
BLOCK
  8
0
  2
PIE
 70
64
 10
0.000000
 20
0.000000
 30
0.000000
  3
PIE
  0
CIRCLE
  8
0
 10
0.000000
 20
0.000000
 30
0.000000
 40
0.500000
  0
ENDBLK
  8
0
  0
BLOCK
  8
0
  2
OCTAGONP
 70
64
 10
0.000000
 20
0.000000
 30
0.000000
  3
OCTAGONP
  0
POLYLINE
  8
0
 66
1
 10
0.000000
 20
0.000000
 30
0.000000
 40
0.000000
 41
0.000000
 70
1
  0
VERTEX
  8
0
 10
-0.500000
 20
-0.207107
 30
0.000000
  0
VERTEX
  8
0
 10
-0.500000
 20
0.207107
 30
0.000000
  0
VERTEX
  8
0
 10
-0.207107
 20
0.500000
 30
0.000000
  0
VERTEX
  8
0
 10
0.207107
 20
0.500000
 30
0.000000
  0
VERTEX
  8
0
 10
0.500000
 20
0.207107
 30
0.000000
  0
VERTEX
  8
0
 10
0.500000
 20
-0.207107
 30
0.000000
  0
VERTEX
  8
0
 10
0.207107
 20
-0.500000
 30
0.000000
  0
VERTEX
  8
0
 10
-0.207107
 20
-0.500000
 30
0.000000
  0
SEQEND
  8
0
  0
ENDBLK
  8
0
  0
BLOCK
  8
0
  2
SQUAREP
 70
64
 10
0.000000
 20
0.000000
 30
0.000000
  3
SQUAREP
  0
SOLID
  8
0
 10
-0.500000
 20
-0.500000
 30
0.000000
 11
0.500000
 21
-0.500000
 31
0.000000
 12
-0.500000
 22
0.500000
 32
0.000000
 13
0.500000
 23
0.500000
 33
0.000000
  0
ENDBLK
  8
0
  0
BLOCK
  8
0
  2
ROUNDP
 70
64
 10
0.000000
 20
0.000000
 30
0.000000
  3
ROUNDP
  0
CIRCLE
  8
0
 10
0.000000
 20
0.000000
 30
0.000000
 40
0.500000
  0
ENDBLK
  8
0
  0
BLOCK
  8
0
  2
ANNULUSP
 70
64
 10
0.000000
 20
0.000000
 30
0.000000
  3
ANNULUSP
  0
CIRCLE
  8
0
 10
0.000000
 20
0.000000
 30
0.000000
 40
0.500000
  0
ENDBLK
  8
0
  0
BLOCK
  8
0
  2
THERMALP
 70
64
 10
0.000000
 20
0.000000
 30
0.000000
  3
THERMALP
  0
POLYLINE
  8
0
 66
1
 10
0.000000
 20
0.000000
 30
0.000000
 40
0.000000
 41
0.000000
 70
1
  0
VERTEX
  8
0
 10
-0.237868
 20
0.400000
 30
0.000000
  0
VERTEX
  8
0
 10
0.237868
 20
0.400000
 30
0.000000
 42
1.000000
  0
VERTEX
  8
0
 10
0.237868
 20
0.500000
 30
0.000000
  0
VERTEX
  8
0
 10
-0.237868
 20
0.500000
 30
0.000000
 42
1.000000
  0
SEQEND
  8
0
  0
POLYLINE
  8
0
 66
1
 10
0.000000
 20
0.000000
 30
0.000000
 40
0.000000
 41
0.000000
 70
1
  0
VERTEX
  8
0
 10
0.400000
 20
0.237868
 30
0.000000
  0
VERTEX
  8
0
 10
0.400000
 20
-0.237868
 30
0.000000
 42
1.000000
  0
VERTEX
  8
0
 10
0.500000
 20
-0.237868
 30
0.000000
  0
VERTEX
  8
0
 10
0.500000
 20
0.237868
 30
0.000000
 42
1.000000
  0
SEQEND
  8
0
  0
POLYLINE
  8
0
 66
1
 10
0.000000
 20
0.000000
 30
0.000000
 40
0.000000
 41
0.000000
 70
1
  0
VERTEX
  8
0
 10
0.237868
 20
-0.400000
 30
0.000000
  0
VERTEX
  8
0
 10
-0.237868
 20
-0.400000
 30
0.000000
 42
1.000000
  0
VERTEX
  8
0
 10
-0.237868
 20
-0.500000
 30
0.000000
  0
VERTEX
  8
0
 10
0.237868
 20
-0.500000
 30
0.000000
 42
1.000000
  0
SEQEND
  8
0
  0
POLYLINE
  8
0
 66
1
 10
0.000000
 20
0.000000
 30
0.000000
 40
0.000000
 41
0.000000
 70
1
  0
VERTEX
  8
0
 10
-0.400000
 20
-0.237868
 30
0.000000
  0
VERTEX
  8
0
 10
-0.400000
 20
0.237868
 30
0.000000
 42
1.000000
  0
VERTEX
  8
0
 10
-0.500000
 20
0.237868
 30
0.000000
  0
VERTEX
  8
0
 10
-0.500000
 20
-0.237868
 30
0.000000
 42
1.000000
  0
SEQEND
  8
0
  0
ENDBLK
  8
0
  0
BLOCK
  8
0
  2
OCTAGONV
 70
64
 10
0.000000
 20
0.000000
 30
0.000000
  3
OCTAGONV
  0
POLYLINE
  8
0
 66
1
 10
0.000000
 20
0.000000
 30
0.000000
 40
0.000000
 41
0.000000
 70
1
  0
VERTEX
  8
0
 10
-0.500000
 20
-0.207107
 30
0.000000
  0
VERTEX
  8
0
 10
-0.500000
 20
0.207107
 30
0.000000
  0
VERTEX
  8
0
 10
-0.207107
 20
0.500000
 30
0.000000
  0
VERTEX
  8
0
 10
0.207107
 20
0.500000
 30
0.000000
  0
VERTEX
  8
0
 10
0.500000
 20
0.207107
 30
0.000000
  0
VERTEX
  8
0
 10
0.500000
 20
-0.207107
 30
0.000000
  0
VERTEX
  8
0
 10
0.207107
 20
-0.500000
 30
0.000000
  0
VERTEX
  8
0
 10
-0.207107
 20
-0.500000
 30
0.000000
  0
SEQEND
  8
0
  0
ENDBLK
  8
0
  0
BLOCK
  8
0
  2
SQUAREV
 70
64
 10
0.000000
 20
0.000000
 30
0.000000
  3
SQUAREV
  0
SOLID
  8
0
 10
-0.500000
 20
-0.500000
 30
0.000000
 11
0.500000
 21
-0.500000
 31
0.000000
 12
-0.500000
 22
0.500000
 32
0.000000
 13
0.500000
 23
0.500000
 33
0.000000
  0
ENDBLK
  8
0
  0
BLOCK
  8
0
  2
ROUNDV
 70
64
 10
0.000000
 20
0.000000
 30
0.000000
  3
ROUNDV
  0
CIRCLE
  8
0
 10
0.000000
 20
0.000000
 30
0.000000
 40
0.500000
  0
ENDBLK
  8
0
  0
BLOCK
  8
0
  2
ANNULUSV
 70
64
 10
0.000000
 20
0.000000
 30
0.000000
  3
ANNULUSV
  0
CIRCLE
  8
0
 10
0.000000
 20
0.000000
 30
0.000000
 40
0.500000
  0
ENDBLK
  8
0
  0
BLOCK
  8
0
  2
THERMALV
 70
64
 10
0.000000
 20
0.000000
 30
0.000000
  3
THERMALV
  0
POLYLINE
  8
0
 66
1
 10
0.000000
 20
0.000000
 30
0.000000
 40
0.000000
 41
0.000000
 70
1
  0
VERTEX
  8
0
 10
-0.237868
 20
0.400000
 30
0.000000
  0
VERTEX
  8
0
 10
0.237868
 20
0.400000
 30
0.000000
 42
1.000000
  0
VERTEX
  8
0
 10
0.237868
 20
0.500000
 30
0.000000
  0
VERTEX
  8
0
 10
-0.237868
 20
0.500000
 30
0.000000
 42
1.000000
  0
SEQEND
  8
0
  0
POLYLINE
  8
0
 66
1
 10
0.000000
 20
0.000000
 30
0.000000
 40
0.000000
 41
0.000000
 70
1
  0
VERTEX
  8
0
 10
0.400000
 20
0.237868
 30
0.000000
  0
VERTEX
  8
0
 10
0.400000
 20
-0.237868
 30
0.000000
 42
1.000000
  0
VERTEX
  8
0
 10
0.500000
 20
-0.237868
 30
0.000000
  0
VERTEX
  8
0
 10
0.500000
 20
0.237868
 30
0.000000
 42
1.000000
  0
SEQEND
  8
0
  0
POLYLINE
  8
0
 66
1
 10
0.000000
 20
0.000000
 30
0.000000
 40
0.000000
 41
0.000000
 70
1
  0
VERTEX
  8
0
 10
0.237868
 20
-0.400000
 30
0.000000
  0
VERTEX
  8
0
 10
-0.237868
 20
-0.400000
 30
0.000000
 42
1.000000
  0
VERTEX
  8
0
 10
-0.237868
 20
-0.500000
 30
0.000000
  0
VERTEX
  8
0
 10
0.237868
 20
-0.500000
 30
0.000000
 42
1.000000
  0
SEQEND
  8
0
  0
POLYLINE
  8
0
 66
1
 10
0.000000
 20
0.000000
 30
0.000000
 40
0.000000
 41
0.000000
 70
1
  0
VERTEX
  8
0
 10
-0.400000
 20
-0.237868
 30
0.000000
  0
VERTEX
  8
0
 10
-0.400000
 20
0.237868
 30
0.000000
 42
1.000000
  0
VERTEX
  8
0
 10
-0.500000
 20
0.237868
 30
0.000000
  0
VERTEX
  8
0
 10
-0.500000
 20
-0.237868
 30
0.000000
 42
1.000000
  0
SEQEND
  8
0
  0
ENDBLK
  8
0
  0
ENDSEC
  0
SECTION
  2
ENTITIES
  0
POLYLINE
  8
112
 66
1
 10
0.000000
 20
0.000000
 30
0.000000
 40
0.000000
 41
0.000000
 70
1
  0
VERTEX
  8
112
 10
0.003000
 20
0.000000
 30
0.000000
  0
VERTEX
  8
112
 10
0.003000
 20
1.350000
 30
0.000000
 42
1.000000
  0
VERTEX
  8
112
 10
-0.003000
 20
1.350000
 30
0.000000
  0
VERTEX
  8
112
 10
-0.003000
 20
0.000000
 30
0.000000
 42
1.000000
  0
SEQEND
  8
0
  0
POLYLINE
  8
112
 66
1
 10
0.000000
 20
0.000000
 30
0.000000
 40
0.000000
 41
0.000000
 70
1
  0
VERTEX
  8
112
 10
0.000000
 20
1.347000
 30
0.000000
  0
VERTEX
  8
112
 10
1.100000
 20
1.347000
 30
0.000000
 42
1.000000
  0
VERTEX
  8
112
 10
1.100000
 20
1.353000
 30
0.000000
  0
VERTEX
  8
112
 10
0.000000
 20
1.353000
 30
0.000000
 42
1.000000
  0
SEQEND
  8
0
  0
POLYLINE
  8
112
 66
1
 10
0.000000
 20
0.000000
 30
0.000000
 40
0.000000
 41
0.000000
 70
1
  0
VERTEX
  8
112
 10
1.097000
 20
1.350000
 30
0.000000
  0
VERTEX
  8
112
 10
1.097000
 20
0.000000
 30
0.000000
 42
1.000000
  0
VERTEX
  8
112
 10
1.103000
 20
0.000000
 30
0.000000
  0
VERTEX
  8
112
 10
1.103000
 20
1.350000
 30
0.000000
 42
1.000000
  0
SEQEND
  8
0
  0
POLYLINE
  8
112
 66
1
 10
0.000000
 20
0.000000
 30
0.000000
 40
0.000000
 41
0.000000
 70
1
  0
VERTEX
  8
112
 10
1.100000
 20
0.003000
 30
0.000000
  0
VERTEX
  8
112
 10
0.000000
 20
0.003000
 30
0.000000
 42
1.000000
  0
VERTEX
  8
112
 10
0.000000
 20
-0.003000
 30
0.000000
  0
VERTEX
  8
112
 10
1.100000
 20
-0.003000
 30
0.000000
 42
1.000000
  0
SEQEND
  8
0
  0
POLYLINE
  8
112
 66
1
 10
0.000000
 20
0.000000
 30
0.000000
 40
0.000000
 41
0.000000
 70
1
  0
VERTEX
  8
112
 10
0.597000
 20
0.840000
 30
0.000000
  0
VERTEX
  8
112
 10
0.597000
 20
0.752500
 30
0.000000
 42
1.000000
  0
VERTEX
  8
112
 10
0.603000
 20
0.752500
 30
0.000000
  0
VERTEX
  8
112
 10
0.603000
 20
0.840000
 30
0.000000
 42
1.000000
  0
SEQEND
  8
0
  0
POLYLINE
  8
112
 66
1
 10
0.000000
 20
0.000000
 30
0.000000
 40
0.000000
 41
0.000000
 70
1
  0
VERTEX
  8
112
 10
0.600000
 20
0.749500
 30
0.000000
  0
VERTEX
  8
112
 10
0.732500
 20
0.749500
 30
0.000000
 42
1.000000
  0
VERTEX
  8
112
 10
0.732500
 20
0.755500
 30
0.000000
  0
VERTEX
  8
112
 10
0.600000
 20
0.755500
 30
0.000000
 42
1.000000
  0
SEQEND
  8
0
  0
POLYLINE
  8
112
 66
1
 10
0.000000
 20
0.000000
 30
0.000000
 40
0.000000
 41
0.000000
 70
1
  0
VERTEX
  8
112
 10
0.735500
 20
0.752500
 30
0.000000
  0
VERTEX
  8
112
 10
0.735500
 20
0.842500
 30
0.000000
 42
1.000000
  0
VERTEX
  8
112
 10
0.729500
 20
0.842500
 30
0.000000
  0
VERTEX
  8
112
 10
0.729500
 20
0.752500
 30
0.000000
 42
1.000000
  0
SEQEND
  8
0
  0
POLYLINE
  8
112
 66
1
 10
0.000000
 20
0.000000
 30
0.000000
 40
0.000000
 41
0.000000
 70
1
  0
VERTEX
  8
112
 10
0.732500
 20
0.845500
 30
0.000000
  0
VERTEX
  8
112
 10
0.600000
 20
0.845500
 30
0.000000
 42
1.000000
  0
VERTEX
  8
112
 10
0.600000
 20
0.839500
 30
0.000000
  0
VERTEX
  8
112
 10
0.732500
 20
0.839500
 30
0.000000
 42
1.000000
  0
SEQEND
  8
0
  0
POLYLINE
  8
112
 66
1
 10
0.000000
 20
0.000000
 30
0.000000
 40
0.000000
 41
0.000000
 70
1
  0
VERTEX
  8
112
 10
0.067833
 20
0.362500
 30
0.000000
 42
1.000000
  0
VERTEX
  8
112
 10
0.067833
 20
0.357500
 30
0.000000
 42
0.414211
  0
VERTEX
  8
112
 10
0.083889
 20
0.373555
 30
0.000000
 42
1.000000
  0
VERTEX
  8
112
 10
0.078889
 20
0.373555
 30
0.000000
 42
-0.414211
  0
SEQEND
  8
0
  0
POLYLINE
  8
112
 66
1
 10
0.000000
 20
0.000000
 30
0.000000
 40
0.000000
 41
0.000000
 70
1
  0
VERTEX
  8
112
 10
0.049275
 20
0.370233
 30
0.000000
 42
1.000000
  0
VERTEX
  8
112
 10
0.045725
 20
0.366712
 30
0.000000
 42
0.200004
  0
VERTEX
  8
112
 10
0.067833
 20
0.357500
 30
0.000000
 42
1.000000
  0
VERTEX
  8
112
 10
0.067833
 20
0.362500
 30
0.000000
 42
-0.200004
  0
SEQEND
  8
0
  0
POLYLINE
  8
112
 66
1
 10
0.000000
 20
0.000000
 30
0.000000
 40
0.000000
 41
0.000000
 70
1
  0
VERTEX
  8
112
 10
0.062750
 20
0.418500
 30
0.000000
 42
1.000000
  0
VERTEX
  8
112
 10
0.062750
 20
0.423500
 30
0.000000
 42
0.414214
  0
VERTEX
  8
112
 10
0.046694
 20
0.407444
 30
0.000000
 42
1.000000
  0
VERTEX
  8
112
 10
0.051694
 20
0.407444
 30
0.000000
 42
-0.414214
  0
SEQEND
  8
0
  0
POLYLINE
  8
112
 66
1
 10
0.000000
 20
0.000000
 30
0.000000
 40
0.000000
 41
0.000000
 70
1
  0
VERTEX
  8
112
 10
0.076500
 20
0.413917
 30
0.000000
 42
1.000000
  0
VERTEX
  8
112
 10
0.079500
 20
0.417917
 30
0.000000
 42
0.162280
  0
VERTEX
  8
112
 10
0.062750
 20
0.423500
 30
0.000000
 42
1.000000
  0
VERTEX
  8
112
 10
0.062750
 20
0.418500
 30
0.000000
 42
-0.162280
  0
SEQEND
  8
0
  0
POLYLINE
  8
112
 66
1
 10
0.000000
 20
0.000000
 30
0.000000
 40
0.000000
 41
0.000000
 70
1
  0
VERTEX
  8
112
 10
0.051694
 20
0.407444
 30
0.000000
 42
1.000000
  0
VERTEX
  8
112
 10
0.046694
 20
0.407444
 30
0.000000
 42
0.265563
  0
VERTEX
  8
112
 10
0.054703
 20
0.393429
 30
0.000000
 42
1.000000
  0
VERTEX
  8
112
 10
0.057241
 20
0.397737
 30
0.000000
 42
-0.265563
  0
SEQEND
  8
0
  0
POLYLINE
  8
112
 66
1
 10
0.000000
 20
0.000000
 30
0.000000
 40
0.000000
 41
0.000000
 70
1
  0
VERTEX
  8
112
 10
0.078889
 20
0.373555
 30
0.000000
 42
1.000000
  0
VERTEX
  8
112
 10
0.083889
 20
0.373555
 30
0.000000
 42
0.265563
  0
VERTEX
  8
112
 10
0.075880
 20
0.387570
 30
0.000000
 42
1.000000
  0
VERTEX
  8
112
 10
0.073342
 20
0.383263
 30
0.000000
 42
-0.265563
  0
SEQEND
  8
0
  0
POLYLINE
  8
112
 66
1
 10
0.000000
 20
0.000000
 30
0.000000
 40
0.000000
 41
0.000000
 70
1
  0
VERTEX
  8
112
 10
0.075808
 20
0.387611
 30
0.000000
  0
VERTEX
  8
112
 10
0.057169
 20
0.397778
 30
0.000000
 42
1.000000
  0
VERTEX
  8
112
 10
0.054775
 20
0.393389
 30
0.000000
  0
VERTEX
  8
112
 10
0.073414
 20
0.383222
 30
0.000000
 42
1.000000
  0
SEQEND
  8
0
  0
POLYLINE
  8
112
 66
1
 10
0.000000
 20
0.000000
 30
0.000000
 40
0.000000
 41
0.000000
 70
1
  0
VERTEX
  8
112
 10
0.817833
 20
0.357500
 30
0.000000
 42
1.000000
  0
VERTEX
  8
112
 10
0.817833
 20
0.352500
 30
0.000000
 42
0.414211
  0
VERTEX
  8
112
 10
0.833889
 20
0.368555
 30
0.000000
 42
1.000000
  0
VERTEX
  8
112
 10
0.828889
 20
0.368555
 30
0.000000
 42
-0.414211
  0
SEQEND
  8
0
  0
POLYLINE
  8
112
 66
1
 10
0.000000
 20
0.000000
 30
0.000000
 40
0.000000
 41
0.000000
 70
1
  0
VERTEX
  8
112
 10
0.799275
 20
0.365233
 30
0.000000
 42
1.000000
  0
VERTEX
  8
112
 10
0.795725
 20
0.361712
 30
0.000000
 42
0.200004
  0
VERTEX
  8
112
 10
0.817833
 20
0.352500
 30
0.000000
 42
1.000000
  0
VERTEX
  8
112
 10
0.817833
 20
0.357500
 30
0.000000
 42
-0.200004
  0
SEQEND
  8
0
  0
POLYLINE
  8
112
 66
1
 10
0.000000
 20
0.000000
 30
0.000000
 40
0.000000
 41
0.000000
 70
1
  0
VERTEX
  8
112
 10
0.812750
 20
0.413500
 30
0.000000
 42
1.000000
  0
VERTEX
  8
112
 10
0.812750
 20
0.418500
 30
0.000000
 42
0.414214
  0
VERTEX
  8
112
 10
0.796694
 20
0.402444
 30
0.000000
 42
1.000000
  0
VERTEX
  8
112
 10
0.801694
 20
0.402444
 30
0.000000
 42
-0.414214
  0
SEQEND
  8
0
  0
POLYLINE
  8
112
 66
1
 10
0.000000
 20
0.000000
 30
0.000000
 40
0.000000
 41
0.000000
 70
1
  0
VERTEX
  8
112
 10
0.826500
 20
0.408917
 30
0.000000
 42
1.000000
  0
VERTEX
  8
112
 10
0.829500
 20
0.412917
 30
0.000000
 42
0.162280
  0
VERTEX
  8
112
 10
0.812750
 20
0.418500
 30
0.000000
 42
1.000000
  0
VERTEX
  8
112
 10
0.812750
 20
0.413500
 30
0.000000
 42
-0.162280
  0
SEQEND
  8
0
  0
POLYLINE
  8
112
 66
1
 10
0.000000
 20
0.000000
 30
0.000000
 40
0.000000
 41
0.000000
 70
1
  0
VERTEX
  8
112
 10
0.801694
 20
0.402444
 30
0.000000
 42
1.000000
  0
VERTEX
  8
112
 10
0.796694
 20
0.402444
 30
0.000000
 42
0.265563
  0
VERTEX
  8
112
 10
0.804703
 20
0.388429
 30
0.000000
 42
1.000000
  0
VERTEX
  8
112
 10
0.807241
 20
0.392737
 30
0.000000
 42
-0.265563
  0
SEQEND
  8
0
  0
POLYLINE
  8
112
 66
1
 10
0.000000
 20
0.000000
 30
0.000000
 40
0.000000
 41
0.000000
 70
1
  0
VERTEX
  8
112
 10
0.828889
 20
0.368555
 30
0.000000
 42
1.000000
  0
VERTEX
  8
112
 10
0.833889
 20
0.368555
 30
0.000000
 42
0.265563
  0
VERTEX
  8
112
 10
0.825880
 20
0.382570
 30
0.000000
 42
1.000000
  0
VERTEX
  8
112
 10
0.823342
 20
0.378263
 30
0.000000
 42
-0.265563
  0
SEQEND
  8
0
  0
POLYLINE
  8
112
 66
1
 10
0.000000
 20
0.000000
 30
0.000000
 40
0.000000
 41
0.000000
 70
1
  0
VERTEX
  8
112
 10
0.825808
 20
0.382611
 30
0.000000
  0
VERTEX
  8
112
 10
0.807169
 20
0.392778
 30
0.000000
 42
1.000000
  0
VERTEX
  8
112
 10
0.804775
 20
0.388389
 30
0.000000
  0
VERTEX
  8
112
 10
0.823414
 20
0.378222
 30
0.000000
 42
1.000000
  0
SEQEND
  8
0
  0
POLYLINE
  8
112
 66
1
 10
0.000000
 20
0.000000
 30
0.000000
 40
0.000000
 41
0.000000
 70
1
  0
VERTEX
  8
112
 10
0.152500
 20
0.357500
 30
0.000000
  0
VERTEX
  8
112
 10
0.172833
 20
0.357500
 30
0.000000
 42
1.000000
  0
VERTEX
  8
112
 10
0.172833
 20
0.362500
 30
0.000000
  0
VERTEX
  8
112
 10
0.152500
 20
0.362500
 30
0.000000
 42
1.000000
  0
SEQEND
  8
0
  0
POLYLINE
  8
112
 66
1
 10
0.000000
 20
0.000000
 30
0.000000
 40
0.000000
 41
0.000000
 70
1
  0
VERTEX
  8
112
 10
0.172833
 20
0.362500
 30
0.000000
 42
1.000000
  0
VERTEX
  8
112
 10
0.172833
 20
0.357500
 30
0.000000
 42
0.414216
  0
VERTEX
  8
112
 10
0.188889
 20
0.373556
 30
0.000000
 42
1.000000
  0
VERTEX
  8
112
 10
0.183889
 20
0.373555
 30
0.000000
 42
-0.414216
  0
SEQEND
  8
0
  0
POLYLINE
  8
112
 66
1
 10
0.000000
 20
0.000000
 30
0.000000
 40
0.000000
 41
0.000000
 70
1
  0
VERTEX
  8
112
 10
0.188889
 20
0.373555
 30
0.000000
  0
VERTEX
  8
112
 10
0.188889
 20
0.380333
 30
0.000000
 42
1.000000
  0
VERTEX
  8
112
 10
0.183889
 20
0.380333
 30
0.000000
  0
VERTEX
  8
112
 10
0.183889
 20
0.373555
 30
0.000000
 42
1.000000
  0
SEQEND
  8
0
  0
POLYLINE
  8
112
 66
1
 10
0.000000
 20
0.000000
 30
0.000000
 40
0.000000
 41
0.000000
 70
1
  0
VERTEX
  8
112
 10
0.183889
 20
0.380333
 30
0.000000
 42
1.000000
  0
VERTEX
  8
112
 10
0.188889
 20
0.380333
 30
0.000000
 42
0.414214
  0
VERTEX
  8
112
 10
0.172833
 20
0.396389
 30
0.000000
 42
1.000000
  0
VERTEX
  8
112
 10
0.172833
 20
0.391389
 30
0.000000
 42
-0.414214
  0
SEQEND
  8
0
  0
POLYLINE
  8
112
 66
1
 10
0.000000
 20
0.000000
 30
0.000000
 40
0.000000
 41
0.000000
 70
1
  0
VERTEX
  8
112
 10
0.172833
 20
0.396389
 30
0.000000
  0
VERTEX
  8
112
 10
0.152500
 20
0.396389
 30
0.000000
 42
1.000000
  0
VERTEX
  8
112
 10
0.152500
 20
0.391389
 30
0.000000
  0
VERTEX
  8
112
 10
0.172833
 20
0.391389
 30
0.000000
 42
1.000000
  0
SEQEND
  8
0
  0
POLYLINE
  8
112
 66
1
 10
0.000000
 20
0.000000
 30
0.000000
 40
0.000000
 41
0.000000
 70
1
  0
VERTEX
  8
112
 10
0.155000
 20
0.393889
 30
0.000000
  0
VERTEX
  8
112
 10
0.155000
 20
0.421000
 30
0.000000
 42
1.000000
  0
VERTEX
  8
112
 10
0.150000
 20
0.421000
 30
0.000000
  0
VERTEX
  8
112
 10
0.150000
 20
0.393889
 30
0.000000
 42
1.000000
  0
SEQEND
  8
0
  0
POLYLINE
  8
112
 66
1
 10
0.000000
 20
0.000000
 30
0.000000
 40
0.000000
 41
0.000000
 70
1
  0
VERTEX
  8
112
 10
0.152500
 20
0.418500
 30
0.000000
  0
VERTEX
  8
112
 10
0.186389
 20
0.418500
 30
0.000000
 42
1.000000
  0
VERTEX
  8
112
 10
0.186389
 20
0.423500
 30
0.000000
  0
VERTEX
  8
112
 10
0.152500
 20
0.423500
 30
0.000000
 42
1.000000
  0
SEQEND
  8
0
  0
POLYLINE
  8
112
 66
1
 10
0.000000
 20
0.000000
 30
0.000000
 40
0.000000
 41
0.000000
 70
1
  0
VERTEX
  8
112
 10
0.905000
 20
0.352500
 30
0.000000
  0
VERTEX
  8
112
 10
0.925333
 20
0.352500
 30
0.000000
 42
1.000000
  0
VERTEX
  8
112
 10
0.925333
 20
0.357500
 30
0.000000
  0
VERTEX
  8
112
 10
0.905000
 20
0.357500
 30
0.000000
 42
1.000000
  0
SEQEND
  8
0
  0
POLYLINE
  8
112
 66
1
 10
0.000000
 20
0.000000
 30
0.000000
 40
0.000000
 41
0.000000
 70
1
  0
VERTEX
  8
112
 10
0.925333
 20
0.357500
 30
0.000000
 42
1.000000
  0
VERTEX
  8
112
 10
0.925333
 20
0.352500
 30
0.000000
 42
0.414216
  0
VERTEX
  8
112
 10
0.941389
 20
0.368556
 30
0.000000
 42
1.000000
  0
VERTEX
  8
112
 10
0.936389
 20
0.368555
 30
0.000000
 42
-0.414216
  0
SEQEND
  8
0
  0
POLYLINE
  8
112
 66
1
 10
0.000000
 20
0.000000
 30
0.000000
 40
0.000000
 41
0.000000
 70
1
  0
VERTEX
  8
112
 10
0.941389
 20
0.368555
 30
0.000000
  0
VERTEX
  8
112
 10
0.941389
 20
0.375333
 30
0.000000
 42
1.000000
  0
VERTEX
  8
112
 10
0.936389
 20
0.375333
 30
0.000000
  0
VERTEX
  8
112
 10
0.936389
 20
0.368555
 30
0.000000
 42
1.000000
  0
SEQEND
  8
0
  0
POLYLINE
  8
112
 66
1
 10
0.000000
 20
0.000000
 30
0.000000
 40
0.000000
 41
0.000000
 70
1
  0
VERTEX
  8
112
 10
0.936389
 20
0.375333
 30
0.000000
 42
1.000000
  0
VERTEX
  8
112
 10
0.941389
 20
0.375333
 30
0.000000
 42
0.414214
  0
VERTEX
  8
112
 10
0.925333
 20
0.391389
 30
0.000000
 42
1.000000
  0
VERTEX
  8
112
 10
0.925333
 20
0.386389
 30
0.000000
 42
-0.414214
  0
SEQEND
  8
0
  0
POLYLINE
  8
112
 66
1
 10
0.000000
 20
0.000000
 30
0.000000
 40
0.000000
 41
0.000000
 70
1
  0
VERTEX
  8
112
 10
0.925333
 20
0.391389
 30
0.000000
  0
VERTEX
  8
112
 10
0.905000
 20
0.391389
 30
0.000000
 42
1.000000
  0
VERTEX
  8
112
 10
0.905000
 20
0.386389
 30
0.000000
  0
VERTEX
  8
112
 10
0.925333
 20
0.386389
 30
0.000000
 42
1.000000
  0
SEQEND
  8
0
  0
POLYLINE
  8
112
 66
1
 10
0.000000
 20
0.000000
 30
0.000000
 40
0.000000
 41
0.000000
 70
1
  0
VERTEX
  8
112
 10
0.907500
 20
0.388889
 30
0.000000
  0
VERTEX
  8
112
 10
0.907500
 20
0.416000
 30
0.000000
 42
1.000000
  0
VERTEX
  8
112
 10
0.902500
 20
0.416000
 30
0.000000
  0
VERTEX
  8
112
 10
0.902500
 20
0.388889
 30
0.000000
 42
1.000000
  0
SEQEND
  8
0
  0
POLYLINE
  8
112
 66
1
 10
0.000000
 20
0.000000
 30
0.000000
 40
0.000000
 41
0.000000
 70
1
  0
VERTEX
  8
112
 10
0.905000
 20
0.413500
 30
0.000000
  0
VERTEX
  8
112
 10
0.938889
 20
0.413500
 30
0.000000
 42
1.000000
  0
VERTEX
  8
112
 10
0.938889
 20
0.418500
 30
0.000000
  0
VERTEX
  8
112
 10
0.905000
 20
0.418500
 30
0.000000
 42
1.000000
  0
SEQEND
  8
0
  0
POLYLINE
  8
112
 66
1
 10
0.000000
 20
0.000000
 30
0.000000
 40
0.000000
 41
0.000000
 70
1
  0
VERTEX
  8
112
 10
0.261222
 20
0.391389
 30
0.000000
  0
VERTEX
  8
112
 10
0.271389
 20
0.391389
 30
0.000000
 42
1.000000
  0
VERTEX
  8
112
 10
0.271389
 20
0.396389
 30
0.000000
  0
VERTEX
  8
112
 10
0.261222
 20
0.396389
 30
0.000000
 42
1.000000
  0
SEQEND
  8
0
  0
POLYLINE
  8
112
 66
1
 10
0.000000
 20
0.000000
 30
0.000000
 40
0.000000
 41
0.000000
 70
1
  0
VERTEX
  8
112
 10
0.268889
 20
0.393889
 30
0.000000
  0
VERTEX
  8
112
 10
0.268889
 20
0.360000
 30
0.000000
 42
1.000000
  0
VERTEX
  8
112
 10
0.273889
 20
0.360000
 30
0.000000
  0
VERTEX
  8
112
 10
0.273889
 20
0.393889
 30
0.000000
 42
1.000000
  0
SEQEND
  8
0
  0
POLYLINE
  8
112
 66
1
 10
0.000000
 20
0.000000
 30
0.000000
 40
0.000000
 41
0.000000
 70
1
  0
VERTEX
  8
112
 10
0.271389
 20
0.362500
 30
0.000000
  0
VERTEX
  8
112
 10
0.251055
 20
0.362500
 30
0.000000
 42
1.000000
  0
VERTEX
  8
112
 10
0.251055
 20
0.357500
 30
0.000000
  0
VERTEX
  8
112
 10
0.271389
 20
0.357500
 30
0.000000
 42
1.000000
  0
SEQEND
  8
0
  0
POLYLINE
  8
112
 66
1
 10
0.000000
 20
0.000000
 30
0.000000
 40
0.000000
 41
0.000000
 70
1
  0
VERTEX
  8
112
 10
0.240000
 20
0.373555
 30
0.000000
 42
1.000000
  0
VERTEX
  8
112
 10
0.235000
 20
0.373555
 30
0.000000
 42
0.414214
  0
VERTEX
  8
112
 10
0.251055
 20
0.357500
 30
0.000000
 42
1.000000
  0
VERTEX
  8
112
 10
0.251055
 20
0.362500
 30
0.000000
 42
-0.414214
  0
SEQEND
  8
0
  0
POLYLINE
  8
112
 66
1
 10
0.000000
 20
0.000000
 30
0.000000
 40
0.000000
 41
0.000000
 70
1
  0
VERTEX
  8
112
 10
0.240000
 20
0.373555
 30
0.000000
  0
VERTEX
  8
112
 10
0.240000
 20
0.407444
 30
0.000000
 42
1.000000
  0
VERTEX
  8
112
 10
0.235000
 20
0.407444
 30
0.000000
  0
VERTEX
  8
112
 10
0.235000
 20
0.373555
 30
0.000000
 42
1.000000
  0
SEQEND
  8
0
  0
POLYLINE
  8
112
 66
1
 10
0.000000
 20
0.000000
 30
0.000000
 40
0.000000
 41
0.000000
 70
1
  0
VERTEX
  8
112
 10
0.251056
 20
0.418500
 30
0.000000
 42
1.000000
  0
VERTEX
  8
112
 10
0.251055
 20
0.423500
 30
0.000000
 42
0.414211
  0
VERTEX
  8
112
 10
0.235000
 20
0.407444
 30
0.000000
 42
1.000000
  0
VERTEX
  8
112
 10
0.240000
 20
0.407444
 30
0.000000
 42
-0.414211
  0
SEQEND
  8
0
  0
POLYLINE
  8
112
 66
1
 10
0.000000
 20
0.000000
 30
0.000000
 40
0.000000
 41
0.000000
 70
1
  0
VERTEX
  8
112
 10
0.251055
 20
0.418500
 30
0.000000
  0
VERTEX
  8
112
 10
0.271389
 20
0.418500
 30
0.000000
 42
1.000000
  0
VERTEX
  8
112
 10
0.271389
 20
0.423500
 30
0.000000
  0
VERTEX
  8
112
 10
0.251055
 20
0.423500
 30
0.000000
 42
1.000000
  0
SEQEND
  8
0
  0
POLYLINE
  8
112
 66
1
 10
0.000000
 20
0.000000
 30
0.000000
 40
0.000000
 41
0.000000
 70
1
  0
VERTEX
  8
112
 10
0.688722
 20
0.383889
 30
0.000000
  0
VERTEX
  8
112
 10
0.698889
 20
0.383889
 30
0.000000
 42
1.000000
  0
VERTEX
  8
112
 10
0.698889
 20
0.388889
 30
0.000000
  0
VERTEX
  8
112
 10
0.688722
 20
0.388889
 30
0.000000
 42
1.000000
  0
SEQEND
  8
0
  0
POLYLINE
  8
112
 66
1
 10
0.000000
 20
0.000000
 30
0.000000
 40
0.000000
 41
0.000000
 70
1
  0
VERTEX
  8
112
 10
0.696389
 20
0.386389
 30
0.000000
  0
VERTEX
  8
112
 10
0.696389
 20
0.352500
 30
0.000000
 42
1.000000
  0
VERTEX
  8
112
 10
0.701389
 20
0.352500
 30
0.000000
  0
VERTEX
  8
112
 10
0.701389
 20
0.386389
 30
0.000000
 42
1.000000
  0
SEQEND
  8
0
  0
POLYLINE
  8
112
 66
1
 10
0.000000
 20
0.000000
 30
0.000000
 40
0.000000
 41
0.000000
 70
1
  0
VERTEX
  8
112
 10
0.698889
 20
0.355000
 30
0.000000
  0
VERTEX
  8
112
 10
0.678555
 20
0.355000
 30
0.000000
 42
1.000000
  0
VERTEX
  8
112
 10
0.678555
 20
0.350000
 30
0.000000
  0
VERTEX
  8
112
 10
0.698889
 20
0.350000
 30
0.000000
 42
1.000000
  0
SEQEND
  8
0
  0
POLYLINE
  8
112
 66
1
 10
0.000000
 20
0.000000
 30
0.000000
 40
0.000000
 41
0.000000
 70
1
  0
VERTEX
  8
112
 10
0.667500
 20
0.366055
 30
0.000000
 42
1.000000
  0
VERTEX
  8
112
 10
0.662500
 20
0.366055
 30
0.000000
 42
0.414214
  0
VERTEX
  8
112
 10
0.678555
 20
0.350000
 30
0.000000
 42
1.000000
  0
VERTEX
  8
112
 10
0.678555
 20
0.355000
 30
0.000000
 42
-0.414214
  0
SEQEND
  8
0
  0
POLYLINE
  8
112
 66
1
 10
0.000000
 20
0.000000
 30
0.000000
 40
0.000000
 41
0.000000
 70
1
  0
VERTEX
  8
112
 10
0.667500
 20
0.366055
 30
0.000000
  0
VERTEX
  8
112
 10
0.667500
 20
0.399944
 30
0.000000
 42
1.000000
  0
VERTEX
  8
112
 10
0.662500
 20
0.399944
 30
0.000000
  0
VERTEX
  8
112
 10
0.662500
 20
0.366055
 30
0.000000
 42
1.000000
  0
SEQEND
  8
0
  0
POLYLINE
  8
112
 66
1
 10
0.000000
 20
0.000000
 30
0.000000
 40
0.000000
 41
0.000000
 70
1
  0
VERTEX
  8
112
 10
0.678556
 20
0.411000
 30
0.000000
 42
1.000000
  0
VERTEX
  8
112
 10
0.678555
 20
0.416000
 30
0.000000
 42
0.414211
  0
VERTEX
  8
112
 10
0.662500
 20
0.399944
 30
0.000000
 42
1.000000
  0
VERTEX
  8
112
 10
0.667500
 20
0.399944
 30
0.000000
 42
-0.414211
  0
SEQEND
  8
0
  0
POLYLINE
  8
112
 66
1
 10
0.000000
 20
0.000000
 30
0.000000
 40
0.000000
 41
0.000000
 70
1
  0
VERTEX
  8
112
 10
0.678555
 20
0.411000
 30
0.000000
  0
VERTEX
  8
112
 10
0.698889
 20
0.411000
 30
0.000000
 42
1.000000
  0
VERTEX
  8
112
 10
0.698889
 20
0.416000
 30
0.000000
  0
VERTEX
  8
112
 10
0.678555
 20
0.416000
 30
0.000000
 42
1.000000
  0
SEQEND
  8
0
  0
POLYLINE
  8
112
 66
1
 10
0.000000
 20
0.000000
 30
0.000000
 40
0.000000
 41
0.000000
 70
1
  0
VERTEX
  8
112
 10
1.013722
 20
0.386389
 30
0.000000
  0
VERTEX
  8
112
 10
1.023889
 20
0.386389
 30
0.000000
 42
1.000000
  0
VERTEX
  8
112
 10
1.023889
 20
0.391389
 30
0.000000
  0
VERTEX
  8
112
 10
1.013722
 20
0.391389
 30
0.000000
 42
1.000000
  0
SEQEND
  8
0
  0
POLYLINE
  8
112
 66
1
 10
0.000000
 20
0.000000
 30
0.000000
 40
0.000000
 41
0.000000
 70
1
  0
VERTEX
  8
112
 10
1.021389
 20
0.388889
 30
0.000000
  0
VERTEX
  8
112
 10
1.021389
 20
0.355000
 30
0.000000
 42
1.000000
  0
VERTEX
  8
112
 10
1.026389
 20
0.355000
 30
0.000000
  0
VERTEX
  8
112
 10
1.026389
 20
0.388889
 30
0.000000
 42
1.000000
  0
SEQEND
  8
0
  0
POLYLINE
  8
112
 66
1
 10
0.000000
 20
0.000000
 30
0.000000
 40
0.000000
 41
0.000000
 70
1
  0
VERTEX
  8
112
 10
1.023889
 20
0.357500
 30
0.000000
  0
VERTEX
  8
112
 10
1.003555
 20
0.357500
 30
0.000000
 42
1.000000
  0
VERTEX
  8
112
 10
1.003555
 20
0.352500
 30
0.000000
  0
VERTEX
  8
112
 10
1.023889
 20
0.352500
 30
0.000000
 42
1.000000
  0
SEQEND
  8
0
  0
POLYLINE
  8
112
 66
1
 10
0.000000
 20
0.000000
 30
0.000000
 40
0.000000
 41
0.000000
 70
1
  0
VERTEX
  8
112
 10
0.992500
 20
0.368555
 30
0.000000
 42
1.000000
  0
VERTEX
  8
112
 10
0.987500
 20
0.368555
 30
0.000000
 42
0.414214
  0
VERTEX
  8
112
 10
1.003555
 20
0.352500
 30
0.000000
 42
1.000000
  0
VERTEX
  8
112
 10
1.003555
 20
0.357500
 30
0.000000
 42
-0.414214
  0
SEQEND
  8
0
  0
POLYLINE
  8
112
 66
1
 10
0.000000
 20
0.000000
 30
0.000000
 40
0.000000
 41
0.000000
 70
1
  0
VERTEX
  8
112
 10
0.992500
 20
0.368555
 30
0.000000
  0
VERTEX
  8
112
 10
0.992500
 20
0.402444
 30
0.000000
 42
1.000000
  0
VERTEX
  8
112
 10
0.987500
 20
0.402444
 30
0.000000
  0
VERTEX
  8
112
 10
0.987500
 20
0.368555
 30
0.000000
 42
1.000000
  0
SEQEND
  8
0
  0
POLYLINE
  8
112
 66
1
 10
0.000000
 20
0.000000
 30
0.000000
 40
0.000000
 41
0.000000
 70
1
  0
VERTEX
  8
112
 10
1.003556
 20
0.413500
 30
0.000000
 42
1.000000
  0
VERTEX
  8
112
 10
1.003555
 20
0.418500
 30
0.000000
 42
0.414211
  0
VERTEX
  8
112
 10
0.987500
 20
0.402444
 30
0.000000
 42
1.000000
  0
VERTEX
  8
112
 10
0.992500
 20
0.402444
 30
0.000000
 42
-0.414211
  0
SEQEND
  8
0
  0
POLYLINE
  8
112
 66
1
 10
0.000000
 20
0.000000
 30
0.000000
 40
0.000000
 41
0.000000
 70
1
  0
VERTEX
  8
112
 10
1.003555
 20
0.413500
 30
0.000000
  0
VERTEX
  8
112
 10
1.023889
 20
0.413500
 30
0.000000
 42
1.000000
  0
VERTEX
  8
112
 10
1.023889
 20
0.418500
 30
0.000000
  0
VERTEX
  8
112
 10
1.003555
 20
0.418500
 30
0.000000
 42
1.000000
  0
SEQEND
  8
0
  0
POLYLINE
  8
112
 66
1
 10
0.000000
 20
0.000000
 30
0.000000
 40
0.000000
 41
0.000000
 70
1
  0
VERTEX
  8
112
 10
0.331222
 20
0.551389
 30
0.000000
  0
VERTEX
  8
112
 10
0.341389
 20
0.551389
 30
0.000000
 42
1.000000
  0
VERTEX
  8
112
 10
0.341389
 20
0.556389
 30
0.000000
  0
VERTEX
  8
112
 10
0.331222
 20
0.556389
 30
0.000000
 42
1.000000
  0
SEQEND
  8
0
  0
POLYLINE
  8
112
 66
1
 10
0.000000
 20
0.000000
 30
0.000000
 40
0.000000
 41
0.000000
 70
1
  0
VERTEX
  8
112
 10
0.338889
 20
0.553889
 30
0.000000
  0
VERTEX
  8
112
 10
0.338889
 20
0.520000
 30
0.000000
 42
1.000000
  0
VERTEX
  8
112
 10
0.343889
 20
0.520000
 30
0.000000
  0
VERTEX
  8
112
 10
0.343889
 20
0.553889
 30
0.000000
 42
1.000000
  0
SEQEND
  8
0
  0
POLYLINE
  8
112
 66
1
 10
0.000000
 20
0.000000
 30
0.000000
 40
0.000000
 41
0.000000
 70
1
  0
VERTEX
  8
112
 10
0.341389
 20
0.522500
 30
0.000000
  0
VERTEX
  8
112
 10
0.321055
 20
0.522500
 30
0.000000
 42
1.000000
  0
VERTEX
  8
112
 10
0.321055
 20
0.517500
 30
0.000000
  0
VERTEX
  8
112
 10
0.341389
 20
0.517500
 30
0.000000
 42
1.000000
  0
SEQEND
  8
0
  0
POLYLINE
  8
112
 66
1
 10
0.000000
 20
0.000000
 30
0.000000
 40
0.000000
 41
0.000000
 70
1
  0
VERTEX
  8
112
 10
0.310000
 20
0.533555
 30
0.000000
 42
1.000000
  0
VERTEX
  8
112
 10
0.305000
 20
0.533555
 30
0.000000
 42
0.414214
  0
VERTEX
  8
112
 10
0.321055
 20
0.517500
 30
0.000000
 42
1.000000
  0
VERTEX
  8
112
 10
0.321055
 20
0.522500
 30
0.000000
 42
-0.414214
  0
SEQEND
  8
0
  0
POLYLINE
  8
112
 66
1
 10
0.000000
 20
0.000000
 30
0.000000
 40
0.000000
 41
0.000000
 70
1
  0
VERTEX
  8
112
 10
0.310000
 20
0.533555
 30
0.000000
  0
VERTEX
  8
112
 10
0.310000
 20
0.567444
 30
0.000000
 42
1.000000
  0
VERTEX
  8
112
 10
0.305000
 20
0.567444
 30
0.000000
  0
VERTEX
  8
112
 10
0.305000
 20
0.533555
 30
0.000000
 42
1.000000
  0
SEQEND
  8
0
  0
POLYLINE
  8
112
 66
1
 10
0.000000
 20
0.000000
 30
0.000000
 40
0.000000
 41
0.000000
 70
1
  0
VERTEX
  8
112
 10
0.321056
 20
0.578500
 30
0.000000
 42
1.000000
  0
VERTEX
  8
112
 10
0.321055
 20
0.583500
 30
0.000000
 42
0.414211
  0
VERTEX
  8
112
 10
0.305000
 20
0.567444
 30
0.000000
 42
1.000000
  0
VERTEX
  8
112
 10
0.310000
 20
0.567444
 30
0.000000
 42
-0.414211
  0
SEQEND
  8
0
  0
POLYLINE
  8
112
 66
1
 10
0.000000
 20
0.000000
 30
0.000000
 40
0.000000
 41
0.000000
 70
1
  0
VERTEX
  8
112
 10
0.321055
 20
0.578500
 30
0.000000
  0
VERTEX
  8
112
 10
0.341389
 20
0.578500
 30
0.000000
 42
1.000000
  0
VERTEX
  8
112
 10
0.341389
 20
0.583500
 30
0.000000
  0
VERTEX
  8
112
 10
0.321055
 20
0.583500
 30
0.000000
 42
1.000000
  0
SEQEND
  8
0
  0
POLYLINE
  8
112
 66
1
 10
0.000000
 20
0.000000
 30
0.000000
 40
0.000000
 41
0.000000
 70
1
  0
VERTEX
  8
112
 10
0.257500
 20
0.617500
 30
0.000000
  0
VERTEX
  8
112
 10
0.274444
 20
0.617500
 30
0.000000
 42
1.000000
  0
VERTEX
  8
112
 10
0.274444
 20
0.622500
 30
0.000000
  0
VERTEX
  8
112
 10
0.257500
 20
0.622500
 30
0.000000
 42
1.000000
  0
SEQEND
  8
0
  0
POLYLINE
  8
112
 66
1
 10
0.000000
 20
0.000000
 30
0.000000
 40
0.000000
 41
0.000000
 70
1
  0
VERTEX
  8
112
 10
0.274444
 20
0.622500
 30
0.000000
 42
1.000000
  0
VERTEX
  8
112
 10
0.274444
 20
0.617500
 30
0.000000
 42
1.000000
  0
VERTEX
  8
112
 10
0.274444
 20
0.656389
 30
0.000000
 42
1.000000
  0
VERTEX
  8
112
 10
0.274444
 20
0.651389
 30
0.000000
 42
-1.000000
  0
SEQEND
  8
0
  0
POLYLINE
  8
112
 66
1
 10
0.000000
 20
0.000000
 30
0.000000
 40
0.000000
 41
0.000000
 70
1
  0
VERTEX
  8
112
 10
0.257500
 20
0.678500
 30
0.000000
  0
VERTEX
  8
112
 10
0.277833
 20
0.678500
 30
0.000000
 42
1.000000
  0
VERTEX
  8
112
 10
0.277833
 20
0.683500
 30
0.000000
  0
VERTEX
  8
112
 10
0.257500
 20
0.683500
 30
0.000000
 42
1.000000
  0
SEQEND
  8
0
  0
POLYLINE
  8
112
 66
1
 10
0.000000
 20
0.000000
 30
0.000000
 40
0.000000
 41
0.000000
 70
1
  0
VERTEX
  8
112
 10
0.277833
 20
0.656389
 30
0.000000
 42
1.000000
  0
VERTEX
  8
112
 10
0.277833
 20
0.651389
 30
0.000000
 42
1.000000
  0
VERTEX
  8
112
 10
0.277833
 20
0.683500
 30
0.000000
 42
1.000000
  0
VERTEX
  8
112
 10
0.277833
 20
0.678500
 30
0.000000
 42
-1.000000
  0
SEQEND
  8
0
  0
POLYLINE
  8
112
 66
1
 10
0.000000
 20
0.000000
 30
0.000000
 40
0.000000
 41
0.000000
 70
1
  0
VERTEX
  8
112
 10
0.277833
 20
0.656389
 30
0.000000
  0
VERTEX
  8
112
 10
0.264278
 20
0.656389
 30
0.000000
 42
1.000000
  0
VERTEX
  8
112
 10
0.264278
 20
0.651389
 30
0.000000
  0
VERTEX
  8
112
 10
0.277833
 20
0.651389
 30
0.000000
 42
1.000000
  0
SEQEND
  8
0
  0
POLYLINE
  8
112
 66
1
 10
0.000000
 20
0.000000
 30
0.000000
 40
0.000000
 41
0.000000
 70
1
  0
VERTEX
  8
112
 10
0.316219
 20
0.620000
 30
0.000000
  0
VERTEX
  8
112
 10
0.316219
 20
0.623389
 30
0.000000
 42
1.000000
  0
VERTEX
  8
112
 10
0.311219
 20
0.623389
 30
0.000000
  0
VERTEX
  8
112
 10
0.311219
 20
0.620000
 30
0.000000
 42
1.000000
  0
SEQEND
  8
0
  0
POLYLINE
  8
112
 66
1
 10
0.000000
 20
0.000000
 30
0.000000
 40
0.000000
 41
0.000000
 70
1
  0
VERTEX
  8
112
 10
0.313719
 20
0.620889
 30
0.000000
  0
VERTEX
  8
112
 10
0.317107
 20
0.620889
 30
0.000000
 42
1.000000
  0
VERTEX
  8
112
 10
0.317107
 20
0.625889
 30
0.000000
  0
VERTEX
  8
112
 10
0.313719
 20
0.625889
 30
0.000000
 42
1.000000
  0
SEQEND
  8
0
  0
POLYLINE
  8
112
 66
1
 10
0.000000
 20
0.000000
 30
0.000000
 40
0.000000
 41
0.000000
 70
1
  0
VERTEX
  8
112
 10
0.314607
 20
0.623389
 30
0.000000
  0
VERTEX
  8
112
 10
0.314607
 20
0.620000
 30
0.000000
 42
1.000000
  0
VERTEX
  8
112
 10
0.319607
 20
0.620000
 30
0.000000
  0
VERTEX
  8
112
 10
0.319607
 20
0.623389
 30
0.000000
 42
1.000000
  0
SEQEND
  8
0
  0
POLYLINE
  8
112
 66
1
 10
0.000000
 20
0.000000
 30
0.000000
 40
0.000000
 41
0.000000
 70
1
  0
VERTEX
  8
112
 10
0.317107
 20
0.622500
 30
0.000000
  0
VERTEX
  8
112
 10
0.313719
 20
0.622500
 30
0.000000
 42
1.000000
  0
VERTEX
  8
112
 10
0.313719
 20
0.617500
 30
0.000000
  0
VERTEX
  8
112
 10
0.317107
 20
0.617500
 30
0.000000
 42
1.000000
  0
SEQEND
  8
0
  0
POLYLINE
  8
112
 66
1
 10
0.000000
 20
0.000000
 30
0.000000
 40
0.000000
 41
0.000000
 70
1
  0
VERTEX
  8
112
 10
0.339437
 20
0.617500
 30
0.000000
  0
VERTEX
  8
112
 10
0.356381
 20
0.617500
 30
0.000000
 42
1.000000
  0
VERTEX
  8
112
 10
0.356381
 20
0.622500
 30
0.000000
  0
VERTEX
  8
112
 10
0.339437
 20
0.622500
 30
0.000000
 42
1.000000
  0
SEQEND
  8
0
  0
POLYLINE
  8
112
 66
1
 10
0.000000
 20
0.000000
 30
0.000000
 40
0.000000
 41
0.000000
 70
1
  0
VERTEX
  8
112
 10
0.356381
 20
0.622500
 30
0.000000
 42
1.000000
  0
VERTEX
  8
112
 10
0.356381
 20
0.617500
 30
0.000000
 42
1.000000
  0
VERTEX
  8
112
 10
0.356381
 20
0.656389
 30
0.000000
 42
1.000000
  0
VERTEX
  8
112
 10
0.356381
 20
0.651389
 30
0.000000
 42
-1.000000
  0
SEQEND
  8
0
  0
POLYLINE
  8
112
 66
1
 10
0.000000
 20
0.000000
 30
0.000000
 40
0.000000
 41
0.000000
 70
1
  0
VERTEX
  8
112
 10
0.339437
 20
0.678500
 30
0.000000
  0
VERTEX
  8
112
 10
0.359770
 20
0.678500
 30
0.000000
 42
1.000000
  0
VERTEX
  8
112
 10
0.359770
 20
0.683500
 30
0.000000
  0
VERTEX
  8
112
 10
0.339437
 20
0.683500
 30
0.000000
 42
1.000000
  0
SEQEND
  8
0
  0
POLYLINE
  8
112
 66
1
 10
0.000000
 20
0.000000
 30
0.000000
 40
0.000000
 41
0.000000
 70
1
  0
VERTEX
  8
112
 10
0.359770
 20
0.656389
 30
0.000000
 42
1.000000
  0
VERTEX
  8
112
 10
0.359770
 20
0.651389
 30
0.000000
 42
1.000000
  0
VERTEX
  8
112
 10
0.359770
 20
0.683500
 30
0.000000
 42
1.000000
  0
VERTEX
  8
112
 10
0.359770
 20
0.678500
 30
0.000000
 42
-1.000000
  0
SEQEND
  8
0
  0
POLYLINE
  8
112
 66
1
 10
0.000000
 20
0.000000
 30
0.000000
 40
0.000000
 41
0.000000
 70
1
  0
VERTEX
  8
112
 10
0.359770
 20
0.656389
 30
0.000000
  0
VERTEX
  8
112
 10
0.346215
 20
0.656389
 30
0.000000
 42
1.000000
  0
VERTEX
  8
112
 10
0.346215
 20
0.651389
 30
0.000000
  0
VERTEX
  8
112
 10
0.359770
 20
0.651389
 30
0.000000
 42
1.000000
  0
SEQEND
  8
0
  0
POLYLINE
  8
112
 66
1
 10
0.000000
 20
0.000000
 30
0.000000
 40
0.000000
 41
0.000000
 70
1
  0
VERTEX
  8
112
 10
0.572372
 20
0.346709
 30
0.000000
  0
VERTEX
  8
112
 10
0.592705
 20
0.407709
 30
0.000000
 42
1.000000
  0
VERTEX
  8
112
 10
0.587962
 20
0.409291
 30
0.000000
  0
VERTEX
  8
112
 10
0.567628
 20
0.348291
 30
0.000000
 42
1.000000
  0
SEQEND
  8
0
  0
POLYLINE
  8
112
 66
1
 10
0.000000
 20
0.000000
 30
0.000000
 40
0.000000
 41
0.000000
 70
1
  0
VERTEX
  8
112
 10
0.587962
 20
0.407709
 30
0.000000
  0
VERTEX
  8
112
 10
0.608295
 20
0.346709
 30
0.000000
 42
1.000000
  0
VERTEX
  8
112
 10
0.613038
 20
0.348291
 30
0.000000
  0
VERTEX
  8
112
 10
0.592705
 20
0.409291
 30
0.000000
 42
1.000000
  0
SEQEND
  8
0
  0
POLYLINE
  8
112
 66
1
 10
0.000000
 20
0.000000
 30
0.000000
 40
0.000000
 41
0.000000
 70
1
  0
VERTEX
  8
112
 10
0.605583
 20
0.365250
 30
0.000000
  0
VERTEX
  8
112
 10
0.575083
 20
0.365250
 30
0.000000
 42
1.000000
  0
VERTEX
  8
112
 10
0.575083
 20
0.360250
 30
0.000000
  0
VERTEX
  8
112
 10
0.605583
 20
0.360250
 30
0.000000
 42
1.000000
  0
SEQEND
  8
0
  0
POLYLINE
  8
112
 66
1
 10
0.000000
 20
0.000000
 30
0.000000
 40
0.000000
 41
0.000000
 70
1
  0
VERTEX
  8
112
 10
0.377500
 20
0.383889
 30
0.000000
  0
VERTEX
  8
112
 10
0.394444
 20
0.383889
 30
0.000000
 42
1.000000
  0
VERTEX
  8
112
 10
0.394444
 20
0.388889
 30
0.000000
  0
VERTEX
  8
112
 10
0.377500
 20
0.388889
 30
0.000000
 42
1.000000
  0
SEQEND
  8
0
  0
POLYLINE
  8
112
 66
1
 10
0.000000
 20
0.000000
 30
0.000000
 40
0.000000
 41
0.000000
 70
1
  0
VERTEX
  8
112
 10
0.394444
 20
0.355000
 30
0.000000
 42
1.000000
  0
VERTEX
  8
112
 10
0.394444
 20
0.350000
 30
0.000000
 42
1.000000
  0
VERTEX
  8
112
 10
0.394444
 20
0.388889
 30
0.000000
 42
1.000000
  0
VERTEX
  8
112
 10
0.394444
 20
0.383889
 30
0.000000
 42
-1.000000
  0
SEQEND
  8
0
  0
POLYLINE
  8
112
 66
1
 10
0.000000
 20
0.000000
 30
0.000000
 40
0.000000
 41
0.000000
 70
1
  0
VERTEX
  8
112
 10
0.394444
 20
0.355000
 30
0.000000
  0
VERTEX
  8
112
 10
0.377500
 20
0.355000
 30
0.000000
 42
1.000000
  0
VERTEX
  8
112
 10
0.377500
 20
0.350000
 30
0.000000
  0
VERTEX
  8
112
 10
0.394444
 20
0.350000
 30
0.000000
 42
1.000000
  0
SEQEND
  8
0
  0
POLYLINE
  8
112
 66
1
 10
0.000000
 20
0.000000
 30
0.000000
 40
0.000000
 41
0.000000
 70
1
  0
VERTEX
  8
112
 10
0.380000
 20
0.352500
 30
0.000000
  0
VERTEX
  8
112
 10
0.380000
 20
0.413500
 30
0.000000
 42
1.000000
  0
VERTEX
  8
112
 10
0.375000
 20
0.413500
 30
0.000000
  0
VERTEX
  8
112
 10
0.375000
 20
0.352500
 30
0.000000
 42
1.000000
  0
SEQEND
  8
0
  0
POLYLINE
  8
112
 66
1
 10
0.000000
 20
0.000000
 30
0.000000
 40
0.000000
 41
0.000000
 70
1
  0
VERTEX
  8
112
 10
0.377500
 20
0.411000
 30
0.000000
  0
VERTEX
  8
112
 10
0.394444
 20
0.411000
 30
0.000000
 42
1.000000
  0
VERTEX
  8
112
 10
0.394444
 20
0.416000
 30
0.000000
  0
VERTEX
  8
112
 10
0.377500
 20
0.416000
 30
0.000000
 42
1.000000
  0
SEQEND
  8
0
  0
POLYLINE
  8
112
 66
1
 10
0.000000
 20
0.000000
 30
0.000000
 40
0.000000
 41
0.000000
 70
1
  0
VERTEX
  8
112
 10
0.394444
 20
0.388889
 30
0.000000
 42
1.000000
  0
VERTEX
  8
112
 10
0.394444
 20
0.383889
 30
0.000000
 42
1.000000
  0
VERTEX
  8
112
 10
0.394444
 20
0.416000
 30
0.000000
 42
1.000000
  0
VERTEX
  8
112
 10
0.394444
 20
0.411000
 30
0.000000
 42
-1.000000
  0
SEQEND
  8
0
  0
POLYLINE
  8
112
 66
1
 10
0.000000
 20
0.000000
 30
0.000000
 40
0.000000
 41
0.000000
 70
1
  0
VERTEX
  8
112
 10
0.475000
 20
0.371222
 30
0.000000
  0
VERTEX
  8
112
 10
0.515667
 20
0.371222
 30
0.000000
 42
1.000000
  0
VERTEX
  8
112
 10
0.515667
 20
0.376222
 30
0.000000
  0
VERTEX
  8
112
 10
0.475000
 20
0.376222
 30
0.000000
 42
1.000000
  0
SEQEND
  8
0
  0
POLYLINE
  8
112
 66
1
 10
0.000000
 20
0.000000
 30
0.000000
 40
0.000000
 41
0.000000
 70
1
  0
VERTEX
  8
112
 10
0.497833
 20
0.353389
 30
0.000000
  0
VERTEX
  8
112
 10
0.497833
 20
0.394055
 30
0.000000
 42
1.000000
  0
VERTEX
  8
112
 10
0.492833
 20
0.394055
 30
0.000000
  0
VERTEX
  8
112
 10
0.492833
 20
0.353389
 30
0.000000
 42
1.000000
  0
SEQEND
  8
0
  0
POLYLINE
  8
112
 66
1
 10
0.000000
 20
0.000000
 30
0.000000
 40
0.000000
 41
0.000000
 70
1
  0
VERTEX
  8
112
 10
0.262372
 20
0.726709
 30
0.000000
  0
VERTEX
  8
112
 10
0.282705
 20
0.787709
 30
0.000000
 42
1.000000
  0
VERTEX
  8
112
 10
0.277962
 20
0.789291
 30
0.000000
  0
VERTEX
  8
112
 10
0.257628
 20
0.728291
 30
0.000000
 42
1.000000
  0
SEQEND
  8
0
  0
POLYLINE
  8
112
 66
1
 10
0.000000
 20
0.000000
 30
0.000000
 40
0.000000
 41
0.000000
 70
1
  0
VERTEX
  8
112
 10
0.277962
 20
0.787709
 30
0.000000
  0
VERTEX
  8
112
 10
0.298295
 20
0.726709
 30
0.000000
 42
1.000000
  0
VERTEX
  8
112
 10
0.303038
 20
0.728291
 30
0.000000
  0
VERTEX
  8
112
 10
0.282705
 20
0.789291
 30
0.000000
 42
1.000000
  0
SEQEND
  8
0
  0
POLYLINE
  8
112
 66
1
 10
0.000000
 20
0.000000
 30
0.000000
 40
0.000000
 41
0.000000
 70
1
  0
VERTEX
  8
112
 10
0.295583
 20
0.745250
 30
0.000000
  0
VERTEX
  8
112
 10
0.265083
 20
0.745250
 30
0.000000
 42
1.000000
  0
VERTEX
  8
112
 10
0.265083
 20
0.740250
 30
0.000000
  0
VERTEX
  8
112
 10
0.295583
 20
0.740250
 30
0.000000
 42
1.000000
  0
SEQEND
  8
0
  0
POLYLINE
  8
112
 66
1
 10
0.000000
 20
0.000000
 30
0.000000
 40
0.000000
 41
0.000000
 70
1
  0
VERTEX
  8
112
 10
0.325854
 20
0.727500
 30
0.000000
  0
VERTEX
  8
112
 10
0.325854
 20
0.768167
 30
0.000000
 42
1.000000
  0
VERTEX
  8
112
 10
0.320854
 20
0.768167
 30
0.000000
  0
VERTEX
  8
112
 10
0.320854
 20
0.727500
 30
0.000000
 42
1.000000
  0
SEQEND
  8
0
  0
POLYLINE
  8
112
 66
1
 10
0.000000
 20
0.000000
 30
0.000000
 40
0.000000
 41
0.000000
 70
1
  0
VERTEX
  8
112
 10
0.323354
 20
0.765667
 30
0.000000
  0
VERTEX
  8
112
 10
0.340298
 20
0.765667
 30
0.000000
 42
1.000000
  0
VERTEX
  8
112
 10
0.340298
 20
0.770667
 30
0.000000
  0
VERTEX
  8
112
 10
0.323354
 20
0.770667
 30
0.000000
 42
1.000000
  0
SEQEND
  8
0
  0
POLYLINE
  8
112
 66
1
 10
0.000000
 20
0.000000
 30
0.000000
 40
0.000000
 41
0.000000
 70
1
  0
VERTEX
  8
112
 10
0.347965
 20
0.758000
 30
0.000000
 42
1.000000
  0
VERTEX
  8
112
 10
0.352965
 20
0.758000
 30
0.000000
 42
0.414210
  0
VERTEX
  8
112
 10
0.340298
 20
0.770667
 30
0.000000
 42
1.000000
  0
VERTEX
  8
112
 10
0.340298
 20
0.765667
 30
0.000000
 42
-0.414210
  0
SEQEND
  8
0
  0
POLYLINE
  8
112
 66
1
 10
0.000000
 20
0.000000
 30
0.000000
 40
0.000000
 41
0.000000
 70
1
  0
VERTEX
  8
112
 10
0.347965
 20
0.758000
 30
0.000000
  0
VERTEX
  8
112
 10
0.347965
 20
0.727500
 30
0.000000
 42
1.000000
  0
VERTEX
  8
112
 10
0.352965
 20
0.727500
 30
0.000000
  0
VERTEX
  8
112
 10
0.352965
 20
0.758000
 30
0.000000
 42
1.000000
  0
SEQEND
  8
0
  0
POLYLINE
  8
112
 66
1
 10
0.000000
 20
0.000000
 30
0.000000
 40
0.000000
 41
0.000000
 70
1
  0
VERTEX
  8
112
 10
0.734278
 20
0.943500
 30
0.000000
  0
VERTEX
  8
112
 10
0.734278
 20
0.882500
 30
0.000000
 42
1.000000
  0
VERTEX
  8
112
 10
0.739278
 20
0.882500
 30
0.000000
  0
VERTEX
  8
112
 10
0.739278
 20
0.943500
 30
0.000000
 42
1.000000
  0
SEQEND
  8
0
  0
POLYLINE
  8
112
 66
1
 10
0.000000
 20
0.000000
 30
0.000000
 40
0.000000
 41
0.000000
 70
1
  0
VERTEX
  8
112
 10
0.730000
 20
0.880000
 30
0.000000
  0
VERTEX
  8
112
 10
0.743555
 20
0.880000
 30
0.000000
 42
1.000000
  0
VERTEX
  8
112
 10
0.743555
 20
0.885000
 30
0.000000
  0
VERTEX
  8
112
 10
0.730000
 20
0.885000
 30
0.000000
 42
1.000000
  0
SEQEND
  8
0
  0
POLYLINE
  8
112
 66
1
 10
0.000000
 20
0.000000
 30
0.000000
 40
0.000000
 41
0.000000
 70
1
  0
VERTEX
  8
112
 10
0.730000
 20
0.941000
 30
0.000000
  0
VERTEX
  8
112
 10
0.743555
 20
0.941000
 30
0.000000
 42
1.000000
  0
VERTEX
  8
112
 10
0.743555
 20
0.946000
 30
0.000000
  0
VERTEX
  8
112
 10
0.730000
 20
0.946000
 30
0.000000
 42
1.000000
  0
SEQEND
  8
0
  0
POLYLINE
  8
112
 66
1
 10
0.000000
 20
0.000000
 30
0.000000
 40
0.000000
 41
0.000000
 70
1
  0
VERTEX
  8
112
 10
0.770593
 20
0.882500
 30
0.000000
  0
VERTEX
  8
112
 10
0.770593
 20
0.923167
 30
0.000000
 42
1.000000
  0
VERTEX
  8
112
 10
0.765593
 20
0.923167
 30
0.000000
  0
VERTEX
  8
112
 10
0.765593
 20
0.882500
 30
0.000000
 42
1.000000
  0
SEQEND
  8
0
  0
POLYLINE
  8
112
 66
1
 10
0.000000
 20
0.000000
 30
0.000000
 40
0.000000
 41
0.000000
 70
1
  0
VERTEX
  8
112
 10
0.768093
 20
0.920667
 30
0.000000
  0
VERTEX
  8
112
 10
0.785037
 20
0.920667
 30
0.000000
 42
1.000000
  0
VERTEX
  8
112
 10
0.785037
 20
0.925667
 30
0.000000
  0
VERTEX
  8
112
 10
0.768093
 20
0.925667
 30
0.000000
 42
1.000000
  0
SEQEND
  8
0
  0
POLYLINE
  8
112
 66
1
 10
0.000000
 20
0.000000
 30
0.000000
 40
0.000000
 41
0.000000
 70
1
  0
VERTEX
  8
112
 10
0.792704
 20
0.913000
 30
0.000000
 42
1.000000
  0
VERTEX
  8
112
 10
0.797704
 20
0.913000
 30
0.000000
 42
0.414210
  0
VERTEX
  8
112
 10
0.785037
 20
0.925667
 30
0.000000
 42
1.000000
  0
VERTEX
  8
112
 10
0.785037
 20
0.920667
 30
0.000000
 42
-0.414210
  0
SEQEND
  8
0
  0
POLYLINE
  8
112
 66
1
 10
0.000000
 20
0.000000
 30
0.000000
 40
0.000000
 41
0.000000
 70
1
  0
VERTEX
  8
112
 10
0.792704
 20
0.913000
 30
0.000000
  0
VERTEX
  8
112
 10
0.792704
 20
0.882500
 30
0.000000
 42
1.000000
  0
VERTEX
  8
112
 10
0.797704
 20
0.882500
 30
0.000000
  0
VERTEX
  8
112
 10
0.797704
 20
0.913000
 30
0.000000
 42
1.000000
  0
SEQEND
  8
0
  0
POLYLINE
  8
112
 66
1
 10
0.000000
 20
0.000000
 30
0.000000
 40
0.000000
 41
0.000000
 70
1
  0
VERTEX
  8
112
 10
0.845108
 20
0.943500
 30
0.000000
  0
VERTEX
  8
112
 10
0.845108
 20
0.882500
 30
0.000000
 42
1.000000
  0
VERTEX
  8
112
 10
0.850108
 20
0.882500
 30
0.000000
  0
VERTEX
  8
112
 10
0.850108
 20
0.943500
 30
0.000000
 42
1.000000
  0
SEQEND
  8
0
  0
POLYLINE
  8
112
 66
1
 10
0.000000
 20
0.000000
 30
0.000000
 40
0.000000
 41
0.000000
 70
1
  0
VERTEX
  8
112
 10
0.847608
 20
0.885000
 30
0.000000
  0
VERTEX
  8
112
 10
0.830664
 20
0.885000
 30
0.000000
 42
1.000000
  0
VERTEX
  8
112
 10
0.830664
 20
0.880000
 30
0.000000
  0
VERTEX
  8
112
 10
0.847608
 20
0.880000
 30
0.000000
 42
1.000000
  0
SEQEND
  8
0
  0
POLYLINE
  8
112
 66
1
 10
0.000000
 20
0.000000
 30
0.000000
 40
0.000000
 41
0.000000
 70
1
  0
VERTEX
  8
112
 10
0.822997
 20
0.892667
 30
0.000000
 42
1.000000
  0
VERTEX
  8
112
 10
0.817997
 20
0.892667
 30
0.000000
 42
0.414214
  0
VERTEX
  8
112
 10
0.830664
 20
0.880000
 30
0.000000
 42
1.000000
  0
VERTEX
  8
112
 10
0.830664
 20
0.885000
 30
0.000000
 42
-0.414214
  0
SEQEND
  8
0
  0
POLYLINE
  8
112
 66
1
 10
0.000000
 20
0.000000
 30
0.000000
 40
0.000000
 41
0.000000
 70
1
  0
VERTEX
  8
112
 10
0.822997
 20
0.892667
 30
0.000000
  0
VERTEX
  8
112
 10
0.822997
 20
0.913000
 30
0.000000
 42
1.000000
  0
VERTEX
  8
112
 10
0.817997
 20
0.913000
 30
0.000000
  0
VERTEX
  8
112
 10
0.817997
 20
0.892667
 30
0.000000
 42
1.000000
  0
SEQEND
  8
0
  0
POLYLINE
  8
112
 66
1
 10
0.000000
 20
0.000000
 30
0.000000
 40
0.000000
 41
0.000000
 70
1
  0
VERTEX
  8
112
 10
0.830664
 20
0.920667
 30
0.000000
 42
1.000000
  0
VERTEX
  8
112
 10
0.830664
 20
0.925667
 30
0.000000
 42
0.414214
  0
VERTEX
  8
112
 10
0.817997
 20
0.913000
 30
0.000000
 42
1.000000
  0
VERTEX
  8
112
 10
0.822997
 20
0.913000
 30
0.000000
 42
-0.414214
  0
SEQEND
  8
0
  0
POLYLINE
  8
112
 66
1
 10
0.000000
 20
0.000000
 30
0.000000
 40
0.000000
 41
0.000000
 70
1
  0
VERTEX
  8
112
 10
0.830664
 20
0.920667
 30
0.000000
  0
VERTEX
  8
112
 10
0.847608
 20
0.920667
 30
0.000000
 42
1.000000
  0
VERTEX
  8
112
 10
0.847608
 20
0.925667
 30
0.000000
  0
VERTEX
  8
112
 10
0.830664
 20
0.925667
 30
0.000000
 42
1.000000
  0
SEQEND
  8
0
  0
POLYLINE
  8
112
 66
1
 10
0.000000
 20
0.000000
 30
0.000000
 40
0.000000
 41
0.000000
 70
1
  0
VERTEX
  8
112
 10
0.873570
 20
0.881113
 30
0.000000
  0
VERTEX
  8
112
 10
0.900681
 20
0.921780
 30
0.000000
 42
1.000000
  0
VERTEX
  8
112
 10
0.896521
 20
0.924553
 30
0.000000
  0
VERTEX
  8
112
 10
0.869410
 20
0.883887
 30
0.000000
 42
1.000000
  0
SEQEND
  8
0
  0
POLYLINE
  8
112
 66
1
 10
0.000000
 20
0.000000
 30
0.000000
 40
0.000000
 41
0.000000
 70
1
  0
VERTEX
  8
112
 10
0.869410
 20
0.921780
 30
0.000000
  0
VERTEX
  8
112
 10
0.896521
 20
0.881113
 30
0.000000
 42
1.000000
  0
VERTEX
  8
112
 10
0.900681
 20
0.883887
 30
0.000000
  0
VERTEX
  8
112
 10
0.873570
 20
0.924553
 30
0.000000
 42
1.000000
  0
SEQEND
  8
0
  0
POLYLINE
  8
112
 66
1
 10
0.000000
 20
0.000000
 30
0.000000
 40
0.000000
 41
0.000000
 70
1
  0
VERTEX
  8
112
 10
0.537500
 20
0.755000
 30
0.000000
  0
VERTEX
  8
112
 10
0.557833
 20
0.755000
 30
0.000000
 42
1.000000
  0
VERTEX
  8
112
 10
0.557833
 20
0.760000
 30
0.000000
  0
VERTEX
  8
112
 10
0.537500
 20
0.760000
 30
0.000000
 42
1.000000
  0
SEQEND
  8
0
  0
POLYLINE
  8
112
 66
1
 10
0.000000
 20
0.000000
 30
0.000000
 40
0.000000
 41
0.000000
 70
1
  0
VERTEX
  8
112
 10
0.557833
 20
0.760000
 30
0.000000
 42
1.000000
  0
VERTEX
  8
112
 10
0.557833
 20
0.755000
 30
0.000000
 42
0.414216
  0
VERTEX
  8
112
 10
0.573889
 20
0.771056
 30
0.000000
 42
1.000000
  0
VERTEX
  8
112
 10
0.568889
 20
0.771055
 30
0.000000
 42
-0.414216
  0
SEQEND
  8
0
  0
POLYLINE
  8
112
 66
1
 10
0.000000
 20
0.000000
 30
0.000000
 40
0.000000
 41
0.000000
 70
1
  0
VERTEX
  8
112
 10
0.573889
 20
0.771055
 30
0.000000
  0
VERTEX
  8
112
 10
0.573889
 20
0.777833
 30
0.000000
 42
1.000000
  0
VERTEX
  8
112
 10
0.568889
 20
0.777833
 30
0.000000
  0
VERTEX
  8
112
 10
0.568889
 20
0.771055
 30
0.000000
 42
1.000000
  0
SEQEND
  8
0
  0
POLYLINE
  8
112
 66
1
 10
0.000000
 20
0.000000
 30
0.000000
 40
0.000000
 41
0.000000
 70
1
  0
VERTEX
  8
112
 10
0.568889
 20
0.777833
 30
0.000000
 42
1.000000
  0
VERTEX
  8
112
 10
0.573889
 20
0.777833
 30
0.000000
 42
0.414214
  0
VERTEX
  8
112
 10
0.557833
 20
0.793889
 30
0.000000
 42
1.000000
  0
VERTEX
  8
112
 10
0.557833
 20
0.788889
 30
0.000000
 42
-0.414214
  0
SEQEND
  8
0
  0
POLYLINE
  8
112
 66
1
 10
0.000000
 20
0.000000
 30
0.000000
 40
0.000000
 41
0.000000
 70
1
  0
VERTEX
  8
112
 10
0.557833
 20
0.793889
 30
0.000000
  0
VERTEX
  8
112
 10
0.537500
 20
0.793889
 30
0.000000
 42
1.000000
  0
VERTEX
  8
112
 10
0.537500
 20
0.788889
 30
0.000000
  0
VERTEX
  8
112
 10
0.557833
 20
0.788889
 30
0.000000
 42
1.000000
  0
SEQEND
  8
0
  0
POLYLINE
  8
112
 66
1
 10
0.000000
 20
0.000000
 30
0.000000
 40
0.000000
 41
0.000000
 70
1
  0
VERTEX
  8
112
 10
0.540000
 20
0.791389
 30
0.000000
  0
VERTEX
  8
112
 10
0.540000
 20
0.818500
 30
0.000000
 42
1.000000
  0
VERTEX
  8
112
 10
0.535000
 20
0.818500
 30
0.000000
  0
VERTEX
  8
112
 10
0.535000
 20
0.791389
 30
0.000000
 42
1.000000
  0
SEQEND
  8
0
  0
POLYLINE
  8
112
 66
1
 10
0.000000
 20
0.000000
 30
0.000000
 40
0.000000
 41
0.000000
 70
1
  0
VERTEX
  8
112
 10
0.537500
 20
0.816000
 30
0.000000
  0
VERTEX
  8
112
 10
0.571389
 20
0.816000
 30
0.000000
 42
1.000000
  0
VERTEX
  8
112
 10
0.571389
 20
0.821000
 30
0.000000
  0
VERTEX
  8
112
 10
0.537500
 20
0.821000
 30
0.000000
 42
1.000000
  0
SEQEND
  8
0
  0
POLYLINE
  8
112
 66
1
 10
0.000000
 20
0.000000
 30
0.000000
 40
0.000000
 41
0.000000
 70
1
  0
VERTEX
  8
112
 10
0.747500
 20
0.755000
 30
0.000000
  0
VERTEX
  8
112
 10
0.764444
 20
0.755000
 30
0.000000
 42
1.000000
  0
VERTEX
  8
112
 10
0.764444
 20
0.760000
 30
0.000000
  0
VERTEX
  8
112
 10
0.747500
 20
0.760000
 30
0.000000
 42
1.000000
  0
SEQEND
  8
0
  0
POLYLINE
  8
112
 66
1
 10
0.000000
 20
0.000000
 30
0.000000
 40
0.000000
 41
0.000000
 70
1
  0
VERTEX
  8
112
 10
0.764444
 20
0.760000
 30
0.000000
 42
1.000000
  0
VERTEX
  8
112
 10
0.764444
 20
0.755000
 30
0.000000
 42
1.000000
  0
VERTEX
  8
112
 10
0.764444
 20
0.793889
 30
0.000000
 42
1.000000
  0
VERTEX
  8
112
 10
0.764444
 20
0.788889
 30
0.000000
 42
-1.000000
  0
SEQEND
  8
0
  0
POLYLINE
  8
112
 66
1
 10
0.000000
 20
0.000000
 30
0.000000
 40
0.000000
 41
0.000000
 70
1
  0
VERTEX
  8
112
 10
0.747500
 20
0.816000
 30
0.000000
  0
VERTEX
  8
112
 10
0.767833
 20
0.816000
 30
0.000000
 42
1.000000
  0
VERTEX
  8
112
 10
0.767833
 20
0.821000
 30
0.000000
  0
VERTEX
  8
112
 10
0.747500
 20
0.821000
 30
0.000000
 42
1.000000
  0
SEQEND
  8
0
  0
POLYLINE
  8
112
 66
1
 10
0.000000
 20
0.000000
 30
0.000000
 40
0.000000
 41
0.000000
 70
1
  0
VERTEX
  8
112
 10
0.767833
 20
0.793889
 30
0.000000
 42
1.000000
  0
VERTEX
  8
112
 10
0.767833
 20
0.788889
 30
0.000000
 42
1.000000
  0
VERTEX
  8
112
 10
0.767833
 20
0.821000
 30
0.000000
 42
1.000000
  0
VERTEX
  8
112
 10
0.767833
 20
0.816000
 30
0.000000
 42
-1.000000
  0
SEQEND
  8
0
  0
POLYLINE
  8
112
 66
1
 10
0.000000
 20
0.000000
 30
0.000000
 40
0.000000
 41
0.000000
 70
1
  0
VERTEX
  8
112
 10
0.767833
 20
0.793889
 30
0.000000
  0
VERTEX
  8
112
 10
0.754278
 20
0.793889
 30
0.000000
 42
1.000000
  0
VERTEX
  8
112
 10
0.754278
 20
0.788889
 30
0.000000
  0
VERTEX
  8
112
 10
0.767833
 20
0.788889
 30
0.000000
 42
1.000000
  0
SEQEND
  8
0
  0
POLYLINE
  8
112
 66
1
 10
0.000000
 20
0.000000
 30
0.000000
 40
0.000000
 41
0.000000
 70
1
  0
VERTEX
  8
112
 10
0.806219
 20
0.757500
 30
0.000000
  0
VERTEX
  8
112
 10
0.806219
 20
0.760889
 30
0.000000
 42
1.000000
  0
VERTEX
  8
112
 10
0.801219
 20
0.760889
 30
0.000000
  0
VERTEX
  8
112
 10
0.801219
 20
0.757500
 30
0.000000
 42
1.000000
  0
SEQEND
  8
0
  0
POLYLINE
  8
112
 66
1
 10
0.000000
 20
0.000000
 30
0.000000
 40
0.000000
 41
0.000000
 70
1
  0
VERTEX
  8
112
 10
0.803719
 20
0.758389
 30
0.000000
  0
VERTEX
  8
112
 10
0.807107
 20
0.758389
 30
0.000000
 42
1.000000
  0
VERTEX
  8
112
 10
0.807107
 20
0.763389
 30
0.000000
  0
VERTEX
  8
112
 10
0.803719
 20
0.763389
 30
0.000000
 42
1.000000
  0
SEQEND
  8
0
  0
POLYLINE
  8
112
 66
1
 10
0.000000
 20
0.000000
 30
0.000000
 40
0.000000
 41
0.000000
 70
1
  0
VERTEX
  8
112
 10
0.804607
 20
0.760889
 30
0.000000
  0
VERTEX
  8
112
 10
0.804607
 20
0.757500
 30
0.000000
 42
1.000000
  0
VERTEX
  8
112
 10
0.809607
 20
0.757500
 30
0.000000
  0
VERTEX
  8
112
 10
0.809607
 20
0.760889
 30
0.000000
 42
1.000000
  0
SEQEND
  8
0
  0
POLYLINE
  8
112
 66
1
 10
0.000000
 20
0.000000
 30
0.000000
 40
0.000000
 41
0.000000
 70
1
  0
VERTEX
  8
112
 10
0.807107
 20
0.760000
 30
0.000000
  0
VERTEX
  8
112
 10
0.803719
 20
0.760000
 30
0.000000
 42
1.000000
  0
VERTEX
  8
112
 10
0.803719
 20
0.755000
 30
0.000000
  0
VERTEX
  8
112
 10
0.807107
 20
0.755000
 30
0.000000
 42
1.000000
  0
SEQEND
  8
0
  0
POLYLINE
  8
112
 66
1
 10
0.000000
 20
0.000000
 30
0.000000
 40
0.000000
 41
0.000000
 70
1
  0
VERTEX
  8
112
 10
0.829437
 20
0.755000
 30
0.000000
  0
VERTEX
  8
112
 10
0.846381
 20
0.755000
 30
0.000000
 42
1.000000
  0
VERTEX
  8
112
 10
0.846381
 20
0.760000
 30
0.000000
  0
VERTEX
  8
112
 10
0.829437
 20
0.760000
 30
0.000000
 42
1.000000
  0
SEQEND
  8
0
  0
POLYLINE
  8
112
 66
1
 10
0.000000
 20
0.000000
 30
0.000000
 40
0.000000
 41
0.000000
 70
1
  0
VERTEX
  8
112
 10
0.846381
 20
0.760000
 30
0.000000
 42
1.000000
  0
VERTEX
  8
112
 10
0.846381
 20
0.755000
 30
0.000000
 42
1.000000
  0
VERTEX
  8
112
 10
0.846381
 20
0.793889
 30
0.000000
 42
1.000000
  0
VERTEX
  8
112
 10
0.846381
 20
0.788889
 30
0.000000
 42
-1.000000
  0
SEQEND
  8
0
  0
POLYLINE
  8
112
 66
1
 10
0.000000
 20
0.000000
 30
0.000000
 40
0.000000
 41
0.000000
 70
1
  0
VERTEX
  8
112
 10
0.829437
 20
0.816000
 30
0.000000
  0
VERTEX
  8
112
 10
0.849770
 20
0.816000
 30
0.000000
 42
1.000000
  0
VERTEX
  8
112
 10
0.849770
 20
0.821000
 30
0.000000
  0
VERTEX
  8
112
 10
0.829437
 20
0.821000
 30
0.000000
 42
1.000000
  0
SEQEND
  8
0
  0
POLYLINE
  8
112
 66
1
 10
0.000000
 20
0.000000
 30
0.000000
 40
0.000000
 41
0.000000
 70
1
  0
VERTEX
  8
112
 10
0.849770
 20
0.793889
 30
0.000000
 42
1.000000
  0
VERTEX
  8
112
 10
0.849770
 20
0.788889
 30
0.000000
 42
1.000000
  0
VERTEX
  8
112
 10
0.849770
 20
0.821000
 30
0.000000
 42
1.000000
  0
VERTEX
  8
112
 10
0.849770
 20
0.816000
 30
0.000000
 42
-1.000000
  0
SEQEND
  8
0
  0
POLYLINE
  8
112
 66
1
 10
0.000000
 20
0.000000
 30
0.000000
 40
0.000000
 41
0.000000
 70
1
  0
VERTEX
  8
112
 10
0.849770
 20
0.793889
 30
0.000000
  0
VERTEX
  8
112
 10
0.836215
 20
0.793889
 30
0.000000
 42
1.000000
  0
VERTEX
  8
112
 10
0.836215
 20
0.788889
 30
0.000000
  0
VERTEX
  8
112
 10
0.849770
 20
0.788889
 30
0.000000
 42
1.000000
  0
SEQEND
  8
0
  0
POLYLINE
  8
112
 66
1
 10
0.000000
 20
0.000000
 30
0.000000
 40
0.000000
 41
0.000000
 70
1
  0
VERTEX
  8
112
 10
0.822500
 20
0.110000
 30
0.000000
  0
VERTEX
  8
112
 10
0.822500
 20
0.171000
 30
0.000000
 42
1.000000
  0
VERTEX
  8
112
 10
0.817500
 20
0.171000
 30
0.000000
  0
VERTEX
  8
112
 10
0.817500
 20
0.110000
 30
0.000000
 42
1.000000
  0
SEQEND
  8
0
  0
POLYLINE
  8
112
 66
1
 10
0.000000
 20
0.000000
 30
0.000000
 40
0.000000
 41
0.000000
 70
1
  0
VERTEX
  8
112
 10
0.820000
 20
0.168500
 30
0.000000
  0
VERTEX
  8
112
 10
0.847111
 20
0.168500
 30
0.000000
 42
1.000000
  0
VERTEX
  8
112
 10
0.847111
 20
0.173500
 30
0.000000
  0
VERTEX
  8
112
 10
0.820000
 20
0.173500
 30
0.000000
 42
1.000000
  0
SEQEND
  8
0
  0
POLYLINE
  8
112
 66
1
 10
0.000000
 20
0.000000
 30
0.000000
 40
0.000000
 41
0.000000
 70
1
  0
VERTEX
  8
112
 10
0.820000
 20
0.141389
 30
0.000000
  0
VERTEX
  8
112
 10
0.847111
 20
0.141389
 30
0.000000
 42
1.000000
  0
VERTEX
  8
112
 10
0.847111
 20
0.146389
 30
0.000000
  0
VERTEX
  8
112
 10
0.820000
 20
0.146389
 30
0.000000
 42
1.000000
  0
SEQEND
  8
0
  0
POLYLINE
  8
112
 66
1
 10
0.000000
 20
0.000000
 30
0.000000
 40
0.000000
 41
0.000000
 70
1
  0
VERTEX
  8
112
 10
0.863861
 20
0.170458
 30
0.000000
  0
VERTEX
  8
112
 10
0.877417
 20
0.109458
 30
0.000000
 42
1.000000
  0
VERTEX
  8
112
 10
0.882298
 20
0.110542
 30
0.000000
  0
VERTEX
  8
112
 10
0.868742
 20
0.171542
 30
0.000000
 42
1.000000
  0
SEQEND
  8
0
  0
POLYLINE
  8
112
 66
1
 10
0.000000
 20
0.000000
 30
0.000000
 40
0.000000
 41
0.000000
 70
1
  0
VERTEX
  8
112
 10
0.882229
 20
0.109209
 30
0.000000
  0
VERTEX
  8
112
 10
0.895785
 20
0.149876
 30
0.000000
 42
1.000000
  0
VERTEX
  8
112
 10
0.891041
 20
0.151457
 30
0.000000
  0
VERTEX
  8
112
 10
0.877486
 20
0.110791
 30
0.000000
 42
1.000000
  0
SEQEND
  8
0
  0
POLYLINE
  8
112
 66
1
 10
0.000000
 20
0.000000
 30
0.000000
 40
0.000000
 41
0.000000
 70
1
  0
VERTEX
  8
112
 10
0.891041
 20
0.149876
 30
0.000000
  0
VERTEX
  8
112
 10
0.904597
 20
0.109209
 30
0.000000
 42
1.000000
  0
VERTEX
  8
112
 10
0.909340
 20
0.110791
 30
0.000000
  0
VERTEX
  8
112
 10
0.895785
 20
0.151457
 30
0.000000
 42
1.000000
  0
SEQEND
  8
0
  0
POLYLINE
  8
112
 66
1
 10
0.000000
 20
0.000000
 30
0.000000
 40
0.000000
 41
0.000000
 70
1
  0
VERTEX
  8
112
 10
0.909409
 20
0.109458
 30
0.000000
  0
VERTEX
  8
112
 10
0.922965
 20
0.170458
 30
0.000000
 42
1.000000
  0
VERTEX
  8
112
 10
0.918084
 20
0.171542
 30
0.000000
  0
VERTEX
  8
112
 10
0.904528
 20
0.110542
 30
0.000000
 42
1.000000
  0
SEQEND
  8
0
  0
POLYLINE
  8
112
 66
1
 10
0.000000
 20
0.000000
 30
0.000000
 40
0.000000
 41
0.000000
 70
1
  0
VERTEX
  8
112
 10
0.947250
 20
0.110000
 30
0.000000
  0
VERTEX
  8
112
 10
0.947250
 20
0.171000
 30
0.000000
 42
1.000000
  0
VERTEX
  8
112
 10
0.942250
 20
0.171000
 30
0.000000
  0
VERTEX
  8
112
 10
0.942250
 20
0.110000
 30
0.000000
 42
1.000000
  0
SEQEND
  8
0
  0
POLYLINE
  8
112
 66
1
 10
0.000000
 20
0.000000
 30
0.000000
 40
0.000000
 41
0.000000
 70
1
  0
VERTEX
  8
112
 10
0.944750
 20
0.168500
 30
0.000000
  0
VERTEX
  8
112
 10
0.961694
 20
0.168500
 30
0.000000
 42
1.000000
  0
VERTEX
  8
112
 10
0.961694
 20
0.173500
 30
0.000000
  0
VERTEX
  8
112
 10
0.944750
 20
0.173500
 30
0.000000
 42
1.000000
  0
SEQEND
  8
0
  0
POLYLINE
  8
112
 66
1
 10
0.000000
 20
0.000000
 30
0.000000
 40
0.000000
 41
0.000000
 70
1
  0
VERTEX
  8
112
 10
0.976139
 20
0.154055
 30
0.000000
 42
1.000000
  0
VERTEX
  8
112
 10
0.981139
 20
0.154055
 30
0.000000
 42
0.414214
  0
VERTEX
  8
112
 10
0.961694
 20
0.173500
 30
0.000000
 42
1.000000
  0
VERTEX
  8
112
 10
0.961694
 20
0.168500
 30
0.000000
 42
-0.414214
  0
SEQEND
  8
0
  0
POLYLINE
  8
112
 66
1
 10
0.000000
 20
0.000000
 30
0.000000
 40
0.000000
 41
0.000000
 70
1
  0
VERTEX
  8
112
 10
0.976139
 20
0.154055
 30
0.000000
  0
VERTEX
  8
112
 10
0.976139
 20
0.126944
 30
0.000000
 42
1.000000
  0
VERTEX
  8
112
 10
0.981139
 20
0.126944
 30
0.000000
  0
VERTEX
  8
112
 10
0.981139
 20
0.154055
 30
0.000000
 42
1.000000
  0
SEQEND
  8
0
  0
POLYLINE
  8
112
 66
1
 10
0.000000
 20
0.000000
 30
0.000000
 40
0.000000
 41
0.000000
 70
1
  0
VERTEX
  8
112
 10
0.961694
 20
0.112500
 30
0.000000
 42
1.000000
  0
VERTEX
  8
112
 10
0.961694
 20
0.107500
 30
0.000000
 42
0.414214
  0
VERTEX
  8
112
 10
0.981139
 20
0.126944
 30
0.000000
 42
1.000000
  0
VERTEX
  8
112
 10
0.976139
 20
0.126944
 30
0.000000
 42
-0.414214
  0
SEQEND
  8
0
  0
POLYLINE
  8
112
 66
1
 10
0.000000
 20
0.000000
 30
0.000000
 40
0.000000
 41
0.000000
 70
1
  0
VERTEX
  8
112
 10
0.961694
 20
0.112500
 30
0.000000
  0
VERTEX
  8
112
 10
0.944750
 20
0.112500
 30
0.000000
 42
1.000000
  0
VERTEX
  8
112
 10
0.944750
 20
0.107500
 30
0.000000
  0
VERTEX
  8
112
 10
0.961694
 20
0.107500
 30
0.000000
 42
1.000000
  0
SEQEND
  8
0
  0
POLYLINE
  8
112
 66
1
 10
0.000000
 20
0.000000
 30
0.000000
 40
0.000000
 41
0.000000
 70
1
  0
VERTEX
  8
112
 10
0.087500
 20
0.115000
 30
0.000000
  0
VERTEX
  8
112
 10
0.087500
 20
0.176000
 30
0.000000
 42
1.000000
  0
VERTEX
  8
112
 10
0.082500
 20
0.176000
 30
0.000000
  0
VERTEX
  8
112
 10
0.082500
 20
0.115000
 30
0.000000
 42
1.000000
  0
SEQEND
  8
0
  0
POLYLINE
  8
112
 66
1
 10
0.000000
 20
0.000000
 30
0.000000
 40
0.000000
 41
0.000000
 70
1
  0
VERTEX
  8
112
 10
0.085000
 20
0.173500
 30
0.000000
  0
VERTEX
  8
112
 10
0.101944
 20
0.173500
 30
0.000000
 42
1.000000
  0
VERTEX
  8
112
 10
0.101944
 20
0.178500
 30
0.000000
  0
VERTEX
  8
112
 10
0.085000
 20
0.178500
 30
0.000000
 42
1.000000
  0
SEQEND
  8
0
  0
POLYLINE
  8
112
 66
1
 10
0.000000
 20
0.000000
 30
0.000000
 40
0.000000
 41
0.000000
 70
1
  0
VERTEX
  8
112
 10
0.101944
 20
0.144611
 30
0.000000
 42
1.000000
  0
VERTEX
  8
112
 10
0.101944
 20
0.139611
 30
0.000000
 42
1.000000
  0
VERTEX
  8
112
 10
0.101944
 20
0.178500
 30
0.000000
 42
1.000000
  0
VERTEX
  8
112
 10
0.101944
 20
0.173500
 30
0.000000
 42
-1.000000
  0
SEQEND
  8
0
  0
POLYLINE
  8
112
 66
1
 10
0.000000
 20
0.000000
 30
0.000000
 40
0.000000
 41
0.000000
 70
1
  0
VERTEX
  8
112
 10
0.101944
 20
0.144611
 30
0.000000
  0
VERTEX
  8
112
 10
0.085000
 20
0.144611
 30
0.000000
 42
1.000000
  0
VERTEX
  8
112
 10
0.085000
 20
0.139611
 30
0.000000
  0
VERTEX
  8
112
 10
0.101944
 20
0.139611
 30
0.000000
 42
1.000000
  0
SEQEND
  8
0
  0
POLYLINE
  8
112
 66
1
 10
0.000000
 20
0.000000
 30
0.000000
 40
0.000000
 41
0.000000
 70
1
  0
VERTEX
  8
112
 10
0.121125
 20
0.116118
 30
0.000000
  0
VERTEX
  8
112
 10
0.107569
 20
0.143229
 30
0.000000
 42
1.000000
  0
VERTEX
  8
112
 10
0.103097
 20
0.140993
 30
0.000000
  0
VERTEX
  8
112
 10
0.116653
 20
0.113882
 30
0.000000
 42
1.000000
  0
SEQEND
  8
0
  0
POLYLINE
  8
112
 66
1
 10
0.000000
 20
0.000000
 30
0.000000
 40
0.000000
 41
0.000000
 70
1
  0
VERTEX
  8
112
 10
0.172359
 20
0.117500
 30
0.000000
  0
VERTEX
  8
112
 10
0.145248
 20
0.117500
 30
0.000000
 42
1.000000
  0
VERTEX
  8
112
 10
0.145248
 20
0.112500
 30
0.000000
  0
VERTEX
  8
112
 10
0.172359
 20
0.112500
 30
0.000000
 42
1.000000
  0
SEQEND
  8
0
  0
POLYLINE
  8
112
 66
1
 10
0.000000
 20
0.000000
 30
0.000000
 40
0.000000
 41
0.000000
 70
1
  0
VERTEX
  8
112
 10
0.147748
 20
0.115000
 30
0.000000
  0
VERTEX
  8
112
 10
0.147748
 20
0.176000
 30
0.000000
 42
1.000000
  0
VERTEX
  8
112
 10
0.142748
 20
0.176000
 30
0.000000
  0
VERTEX
  8
112
 10
0.142748
 20
0.115000
 30
0.000000
 42
1.000000
  0
SEQEND
  8
0
  0
POLYLINE
  8
112
 66
1
 10
0.000000
 20
0.000000
 30
0.000000
 40
0.000000
 41
0.000000
 70
1
  0
VERTEX
  8
112
 10
0.145248
 20
0.173500
 30
0.000000
  0
VERTEX
  8
112
 10
0.172359
 20
0.173500
 30
0.000000
 42
1.000000
  0
VERTEX
  8
112
 10
0.172359
 20
0.178500
 30
0.000000
  0
VERTEX
  8
112
 10
0.145248
 20
0.178500
 30
0.000000
 42
1.000000
  0
SEQEND
  8
0
  0
POLYLINE
  8
112
 66
1
 10
0.000000
 20
0.000000
 30
0.000000
 40
0.000000
 41
0.000000
 70
1
  0
VERTEX
  8
112
 10
0.145248
 20
0.146389
 30
0.000000
  0
VERTEX
  8
112
 10
0.165581
 20
0.146389
 30
0.000000
 42
1.000000
  0
VERTEX
  8
112
 10
0.165581
 20
0.151389
 30
0.000000
  0
VERTEX
  8
112
 10
0.145248
 20
0.151389
 30
0.000000
 42
1.000000
  0
SEQEND
  8
0
  0
POLYLINE
  8
112
 66
1
 10
0.000000
 20
0.000000
 30
0.000000
 40
0.000000
 41
0.000000
 70
1
  0
VERTEX
  8
112
 10
0.188153
 20
0.175209
 30
0.000000
  0
VERTEX
  8
112
 10
0.208486
 20
0.114209
 30
0.000000
 42
1.000000
  0
VERTEX
  8
112
 10
0.213229
 20
0.115791
 30
0.000000
  0
VERTEX
  8
112
 10
0.192896
 20
0.176791
 30
0.000000
 42
1.000000
  0
SEQEND
  8
0
  0
POLYLINE
  8
112
 66
1
 10
0.000000
 20
0.000000
 30
0.000000
 40
0.000000
 41
0.000000
 70
1
  0
VERTEX
  8
112
 10
0.213229
 20
0.114209
 30
0.000000
  0
VERTEX
  8
112
 10
0.233563
 20
0.175209
 30
0.000000
 42
1.000000
  0
VERTEX
  8
112
 10
0.228819
 20
0.176791
 30
0.000000
  0
VERTEX
  8
112
 10
0.208486
 20
0.115791
 30
0.000000
 42
1.000000
  0
SEQEND
  8
0
  0
POLYLINE
  8
112
 66
1
 10
0.000000
 20
0.000000
 30
0.000000
 40
0.000000
 41
0.000000
 70
1
  0
VERTEX
  8
112
 10
0.427111
 20
0.117500
 30
0.000000
  0
VERTEX
  8
112
 10
0.400000
 20
0.117500
 30
0.000000
 42
1.000000
  0
VERTEX
  8
112
 10
0.400000
 20
0.112500
 30
0.000000
  0
VERTEX
  8
112
 10
0.427111
 20
0.112500
 30
0.000000
 42
1.000000
  0
SEQEND
  8
0
  0
POLYLINE
  8
112
 66
1
 10
0.000000
 20
0.000000
 30
0.000000
 40
0.000000
 41
0.000000
 70
1
  0
VERTEX
  8
112
 10
0.402500
 20
0.115000
 30
0.000000
  0
VERTEX
  8
112
 10
0.402500
 20
0.176000
 30
0.000000
 42
1.000000
  0
VERTEX
  8
112
 10
0.397500
 20
0.176000
 30
0.000000
  0
VERTEX
  8
112
 10
0.397500
 20
0.115000
 30
0.000000
 42
1.000000
  0
SEQEND
  8
0
  0
POLYLINE
  8
112
 66
1
 10
0.000000
 20
0.000000
 30
0.000000
 40
0.000000
 41
0.000000
 70
1
  0
VERTEX
  8
112
 10
0.400000
 20
0.173500
 30
0.000000
  0
VERTEX
  8
112
 10
0.427111
 20
0.173500
 30
0.000000
 42
1.000000
  0
VERTEX
  8
112
 10
0.427111
 20
0.178500
 30
0.000000
  0
VERTEX
  8
112
 10
0.400000
 20
0.178500
 30
0.000000
 42
1.000000
  0
SEQEND
  8
0
  0
POLYLINE
  8
112
 66
1
 10
0.000000
 20
0.000000
 30
0.000000
 40
0.000000
 41
0.000000
 70
1
  0
VERTEX
  8
112
 10
0.400000
 20
0.146389
 30
0.000000
  0
VERTEX
  8
112
 10
0.420333
 20
0.146389
 30
0.000000
 42
1.000000
  0
VERTEX
  8
112
 10
0.420333
 20
0.151389
 30
0.000000
  0
VERTEX
  8
112
 10
0.400000
 20
0.151389
 30
0.000000
 42
1.000000
  0
SEQEND
  8
0
  0
POLYLINE
  8
112
 66
1
 10
0.000000
 20
0.000000
 30
0.000000
 40
0.000000
 41
0.000000
 70
1
  0
VERTEX
  8
112
 10
0.452603
 20
0.115000
 30
0.000000
  0
VERTEX
  8
112
 10
0.452603
 20
0.155667
 30
0.000000
 42
1.000000
  0
VERTEX
  8
112
 10
0.447603
 20
0.155667
 30
0.000000
  0
VERTEX
  8
112
 10
0.447603
 20
0.115000
 30
0.000000
 42
1.000000
  0
SEQEND
  8
0
  0
POLYLINE
  8
112
 66
1
 10
0.000000
 20
0.000000
 30
0.000000
 40
0.000000
 41
0.000000
 70
1
  0
VERTEX
  8
112
 10
0.450103
 20
0.153167
 30
0.000000
  0
VERTEX
  8
112
 10
0.467047
 20
0.153167
 30
0.000000
 42
1.000000
  0
VERTEX
  8
112
 10
0.467047
 20
0.158167
 30
0.000000
  0
VERTEX
  8
112
 10
0.450103
 20
0.158167
 30
0.000000
 42
1.000000
  0
SEQEND
  8
0
  0
POLYLINE
  8
112
 66
1
 10
0.000000
 20
0.000000
 30
0.000000
 40
0.000000
 41
0.000000
 70
1
  0
VERTEX
  8
112
 10
0.474714
 20
0.145500
 30
0.000000
 42
1.000000
  0
VERTEX
  8
112
 10
0.479714
 20
0.145500
 30
0.000000
 42
0.414210
  0
VERTEX
  8
112
 10
0.467047
 20
0.158167
 30
0.000000
 42
1.000000
  0
VERTEX
  8
112
 10
0.467047
 20
0.153167
 30
0.000000
 42
-0.414210
  0
SEQEND
  8
0
  0
POLYLINE
  8
112
 66
1
 10
0.000000
 20
0.000000
 30
0.000000
 40
0.000000
 41
0.000000
 70
1
  0
VERTEX
  8
112
 10
0.474714
 20
0.145500
 30
0.000000
  0
VERTEX
  8
112
 10
0.474714
 20
0.115000
 30
0.000000
 42
1.000000
  0
VERTEX
  8
112
 10
0.479714
 20
0.115000
 30
0.000000
  0
VERTEX
  8
112
 10
0.479714
 20
0.145500
 30
0.000000
 42
1.000000
  0
SEQEND
  8
0
  0
POLYLINE
  8
112
 66
1
 10
0.000000
 20
0.000000
 30
0.000000
 40
0.000000
 41
0.000000
 70
1
  0
VERTEX
  8
112
 10
0.526562
 20
0.117500
 30
0.000000
  0
VERTEX
  8
112
 10
0.513007
 20
0.117500
 30
0.000000
 42
1.000000
  0
VERTEX
  8
112
 10
0.513007
 20
0.112500
 30
0.000000
  0
VERTEX
  8
112
 10
0.526562
 20
0.112500
 30
0.000000
 42
1.000000
  0
SEQEND
  8
0
  0
POLYLINE
  8
112
 66
1
 10
0.000000
 20
0.000000
 30
0.000000
 40
0.000000
 41
0.000000
 70
1
  0
VERTEX
  8
112
 10
0.505340
 20
0.125167
 30
0.000000
 42
1.000000
  0
VERTEX
  8
112
 10
0.500340
 20
0.125167
 30
0.000000
 42
0.414214
  0
VERTEX
  8
112
 10
0.513007
 20
0.112500
 30
0.000000
 42
1.000000
  0
VERTEX
  8
112
 10
0.513007
 20
0.117500
 30
0.000000
 42
-0.414214
  0
SEQEND
  8
0
  0
POLYLINE
  8
112
 66
1
 10
0.000000
 20
0.000000
 30
0.000000
 40
0.000000
 41
0.000000
 70
1
  0
VERTEX
  8
112
 10
0.505340
 20
0.125167
 30
0.000000
  0
VERTEX
  8
112
 10
0.505340
 20
0.145500
 30
0.000000
 42
1.000000
  0
VERTEX
  8
112
 10
0.500340
 20
0.145500
 30
0.000000
  0
VERTEX
  8
112
 10
0.500340
 20
0.125167
 30
0.000000
 42
1.000000
  0
SEQEND
  8
0
  0
POLYLINE
  8
112
 66
1
 10
0.000000
 20
0.000000
 30
0.000000
 40
0.000000
 41
0.000000
 70
1
  0
VERTEX
  8
112
 10
0.513007
 20
0.153167
 30
0.000000
 42
1.000000
  0
VERTEX
  8
112
 10
0.513007
 20
0.158167
 30
0.000000
 42
0.414214
  0
VERTEX
  8
112
 10
0.500340
 20
0.145500
 30
0.000000
 42
1.000000
  0
VERTEX
  8
112
 10
0.505340
 20
0.145500
 30
0.000000
 42
-0.414214
  0
SEQEND
  8
0
  0
POLYLINE
  8
112
 66
1
 10
0.000000
 20
0.000000
 30
0.000000
 40
0.000000
 41
0.000000
 70
1
  0
VERTEX
  8
112
 10
0.513007
 20
0.153167
 30
0.000000
  0
VERTEX
  8
112
 10
0.526562
 20
0.153167
 30
0.000000
 42
1.000000
  0
VERTEX
  8
112
 10
0.526562
 20
0.158167
 30
0.000000
  0
VERTEX
  8
112
 10
0.513007
 20
0.158167
 30
0.000000
 42
1.000000
  0
SEQEND
  8
0
  0
POLYLINE
  8
112
 66
1
 10
0.000000
 20
0.000000
 30
0.000000
 40
0.000000
 41
0.000000
 70
1
  0
VERTEX
  8
112
 10
0.550147
 20
0.128555
 30
0.000000
  0
VERTEX
  8
112
 10
0.550147
 20
0.142111
 30
0.000000
 42
1.000000
  0
VERTEX
  8
112
 10
0.545147
 20
0.142111
 30
0.000000
  0
VERTEX
  8
112
 10
0.545147
 20
0.128555
 30
0.000000
 42
1.000000
  0
SEQEND
  8
0
  0
POLYLINE
  8
112
 66
1
 10
0.000000
 20
0.000000
 30
0.000000
 40
0.000000
 41
0.000000
 70
1
  0
VERTEX
  8
112
 10
0.572258
 20
0.142111
 30
0.000000
 42
1.000000
  0
VERTEX
  8
112
 10
0.577258
 20
0.142111
 30
0.000000
 42
1.000000
  0
VERTEX
  8
112
 10
0.545147
 20
0.142111
 30
0.000000
 42
1.000000
  0
VERTEX
  8
112
 10
0.550147
 20
0.142111
 30
0.000000
 42
-1.000000
  0
SEQEND
  8
0
  0
POLYLINE
  8
112
 66
1
 10
0.000000
 20
0.000000
 30
0.000000
 40
0.000000
 41
0.000000
 70
1
  0
VERTEX
  8
112
 10
0.572258
 20
0.142111
 30
0.000000
  0
VERTEX
  8
112
 10
0.572258
 20
0.128555
 30
0.000000
 42
1.000000
  0
VERTEX
  8
112
 10
0.577258
 20
0.128555
 30
0.000000
  0
VERTEX
  8
112
 10
0.577258
 20
0.142111
 30
0.000000
 42
1.000000
  0
SEQEND
  8
0
  0
POLYLINE
  8
112
 66
1
 10
0.000000
 20
0.000000
 30
0.000000
 40
0.000000
 41
0.000000
 70
1
  0
VERTEX
  8
112
 10
0.550147
 20
0.128555
 30
0.000000
 42
1.000000
  0
VERTEX
  8
112
 10
0.545147
 20
0.128555
 30
0.000000
 42
1.000000
  0
VERTEX
  8
112
 10
0.577258
 20
0.128555
 30
0.000000
 42
1.000000
  0
VERTEX
  8
112
 10
0.572258
 20
0.128555
 30
0.000000
 42
-1.000000
  0
SEQEND
  8
0
  0
POLYLINE
  8
112
 66
1
 10
0.000000
 20
0.000000
 30
0.000000
 40
0.000000
 41
0.000000
 70
1
  0
VERTEX
  8
112
 10
0.622712
 20
0.176000
 30
0.000000
  0
VERTEX
  8
112
 10
0.622712
 20
0.115000
 30
0.000000
 42
1.000000
  0
VERTEX
  8
112
 10
0.627712
 20
0.115000
 30
0.000000
  0
VERTEX
  8
112
 10
0.627712
 20
0.176000
 30
0.000000
 42
1.000000
  0
SEQEND
  8
0
  0
POLYLINE
  8
112
 66
1
 10
0.000000
 20
0.000000
 30
0.000000
 40
0.000000
 41
0.000000
 70
1
  0
VERTEX
  8
112
 10
0.625212
 20
0.117500
 30
0.000000
  0
VERTEX
  8
112
 10
0.608268
 20
0.117500
 30
0.000000
 42
1.000000
  0
VERTEX
  8
112
 10
0.608268
 20
0.112500
 30
0.000000
  0
VERTEX
  8
112
 10
0.625212
 20
0.112500
 30
0.000000
 42
1.000000
  0
SEQEND
  8
0
  0
POLYLINE
  8
112
 66
1
 10
0.000000
 20
0.000000
 30
0.000000
 40
0.000000
 41
0.000000
 70
1
  0
VERTEX
  8
112
 10
0.600601
 20
0.125167
 30
0.000000
 42
1.000000
  0
VERTEX
  8
112
 10
0.595601
 20
0.125167
 30
0.000000
 42
0.414214
  0
VERTEX
  8
112
 10
0.608268
 20
0.112500
 30
0.000000
 42
1.000000
  0
VERTEX
  8
112
 10
0.608268
 20
0.117500
 30
0.000000
 42
-0.414214
  0
SEQEND
  8
0
  0
POLYLINE
  8
112
 66
1
 10
0.000000
 20
0.000000
 30
0.000000
 40
0.000000
 41
0.000000
 70
1
  0
VERTEX
  8
112
 10
0.600601
 20
0.125167
 30
0.000000
  0
VERTEX
  8
112
 10
0.600601
 20
0.145500
 30
0.000000
 42
1.000000
  0
VERTEX
  8
112
 10
0.595601
 20
0.145500
 30
0.000000
  0
VERTEX
  8
112
 10
0.595601
 20
0.125167
 30
0.000000
 42
1.000000
  0
SEQEND
  8
0
  0
POLYLINE
  8
112
 66
1
 10
0.000000
 20
0.000000
 30
0.000000
 40
0.000000
 41
0.000000
 70
1
  0
VERTEX
  8
112
 10
0.608268
 20
0.153167
 30
0.000000
 42
1.000000
  0
VERTEX
  8
112
 10
0.608268
 20
0.158167
 30
0.000000
 42
0.414214
  0
VERTEX
  8
112
 10
0.595601
 20
0.145500
 30
0.000000
 42
1.000000
  0
VERTEX
  8
112
 10
0.600601
 20
0.145500
 30
0.000000
 42
-0.414214
  0
SEQEND
  8
0
  0
POLYLINE
  8
112
 66
1
 10
0.000000
 20
0.000000
 30
0.000000
 40
0.000000
 41
0.000000
 70
1
  0
VERTEX
  8
112
 10
0.608268
 20
0.153167
 30
0.000000
  0
VERTEX
  8
112
 10
0.625212
 20
0.153167
 30
0.000000
 42
1.000000
  0
VERTEX
  8
112
 10
0.625212
 20
0.158167
 30
0.000000
  0
VERTEX
  8
112
 10
0.608268
 20
0.158167
 30
0.000000
 42
1.000000
  0
SEQEND
  8
0
  0
POLYLINE
  8
112
 66
1
 10
0.000000
 20
0.000000
 30
0.000000
 40
0.000000
 41
0.000000
 70
1
  0
VERTEX
  8
112
 10
0.678156
 20
0.117500
 30
0.000000
  0
VERTEX
  8
112
 10
0.661211
 20
0.117500
 30
0.000000
 42
1.000000
  0
VERTEX
  8
112
 10
0.661211
 20
0.112500
 30
0.000000
  0
VERTEX
  8
112
 10
0.678156
 20
0.112500
 30
0.000000
 42
1.000000
  0
SEQEND
  8
0
  0
POLYLINE
  8
112
 66
1
 10
0.000000
 20
0.000000
 30
0.000000
 40
0.000000
 41
0.000000
 70
1
  0
VERTEX
  8
112
 10
0.653545
 20
0.125167
 30
0.000000
 42
1.000000
  0
VERTEX
  8
112
 10
0.648545
 20
0.125167
 30
0.000000
 42
0.414214
  0
VERTEX
  8
112
 10
0.661211
 20
0.112500
 30
0.000000
 42
1.000000
  0
VERTEX
  8
112
 10
0.661211
 20
0.117500
 30
0.000000
 42
-0.414214
  0
SEQEND
  8
0
  0
POLYLINE
  8
112
 66
1
 10
0.000000
 20
0.000000
 30
0.000000
 40
0.000000
 41
0.000000
 70
1
  0
VERTEX
  8
112
 10
0.653545
 20
0.125167
 30
0.000000
  0
VERTEX
  8
112
 10
0.653545
 20
0.142111
 30
0.000000
 42
1.000000
  0
VERTEX
  8
112
 10
0.648545
 20
0.142111
 30
0.000000
  0
VERTEX
  8
112
 10
0.648545
 20
0.125167
 30
0.000000
 42
1.000000
  0
SEQEND
  8
0
  0
POLYLINE
  8
112
 66
1
 10
0.000000
 20
0.000000
 30
0.000000
 40
0.000000
 41
0.000000
 70
1
  0
VERTEX
  8
112
 10
0.675656
 20
0.142111
 30
0.000000
 42
1.000000
  0
VERTEX
  8
112
 10
0.680656
 20
0.142111
 30
0.000000
 42
1.000000
  0
VERTEX
  8
112
 10
0.648545
 20
0.142111
 30
0.000000
 42
1.000000
  0
VERTEX
  8
112
 10
0.653545
 20
0.142111
 30
0.000000
 42
-1.000000
  0
SEQEND
  8
0
  0
POLYLINE
  8
112
 66
1
 10
0.000000
 20
0.000000
 30
0.000000
 40
0.000000
 41
0.000000
 70
1
  0
VERTEX
  8
112
 10
0.675656
 20
0.142111
 30
0.000000
  0
VERTEX
  8
112
 10
0.675656
 20
0.135333
 30
0.000000
 42
1.000000
  0
VERTEX
  8
112
 10
0.680656
 20
0.135333
 30
0.000000
  0
VERTEX
  8
112
 10
0.680656
 20
0.142111
 30
0.000000
 42
1.000000
  0
SEQEND
  8
0
  0
POLYLINE
  8
112
 66
1
 10
0.000000
 20
0.000000
 30
0.000000
 40
0.000000
 41
0.000000
 70
1
  0
VERTEX
  8
112
 10
0.678156
 20
0.137833
 30
0.000000
  0
VERTEX
  8
112
 10
0.651045
 20
0.137833
 30
0.000000
 42
1.000000
  0
VERTEX
  8
112
 10
0.651045
 20
0.132833
 30
0.000000
  0
VERTEX
  8
112
 10
0.678156
 20
0.132833
 30
0.000000
 42
1.000000
  0
SEQEND
  8
0
  0
POLYLINE
  8
112
 66
1
 10
0.000000
 20
0.000000
 30
0.000000
 40
0.000000
 41
0.000000
 70
1
  0
VERTEX
  8
112
 10
0.706527
 20
0.115000
 30
0.000000
  0
VERTEX
  8
112
 10
0.706527
 20
0.155667
 30
0.000000
 42
1.000000
  0
VERTEX
  8
112
 10
0.701527
 20
0.155667
 30
0.000000
  0
VERTEX
  8
112
 10
0.701527
 20
0.115000
 30
0.000000
 42
1.000000
  0
SEQEND
  8
0
  0
POLYLINE
  8
112
 66
1
 10
0.000000
 20
0.000000
 30
0.000000
 40
0.000000
 41
0.000000
 70
1
  0
VERTEX
  8
112
 10
0.704027
 20
0.153167
 30
0.000000
  0
VERTEX
  8
112
 10
0.724361
 20
0.153167
 30
0.000000
 42
1.000000
  0
VERTEX
  8
112
 10
0.724361
 20
0.158167
 30
0.000000
  0
VERTEX
  8
112
 10
0.704027
 20
0.158167
 30
0.000000
 42
1.000000
  0
SEQEND
  8
0
  0
POLYLINE
  8
112
 66
1
 10
0.000000
 20
0.000000
 30
0.000000
 40
0.000000
 41
0.000000
 70
1
  0
VERTEX
  8
112
 10
0.721861
 20
0.155667
 30
0.000000
  0
VERTEX
  8
112
 10
0.721861
 20
0.148889
 30
0.000000
 42
1.000000
  0
VERTEX
  8
112
 10
0.726861
 20
0.148889
 30
0.000000
  0
VERTEX
  8
112
 10
0.726861
 20
0.155667
 30
0.000000
 42
1.000000
  0
SEQEND
  8
0
  0
POLYLINE
  8
112
 66
1
 10
0.000000
 20
0.000000
 30
0.000000
 40
0.000000
 41
0.000000
 70
1
  0
VERTEX
  8
112
 10
0.241944
 20
1.217500
 30
0.000000
  0
VERTEX
  8
112
 10
0.241944
 20
1.278500
 30
0.000000
 42
1.000000
  0
VERTEX
  8
112
 10
0.236944
 20
1.278500
 30
0.000000
  0
VERTEX
  8
112
 10
0.236944
 20
1.217500
 30
0.000000
 42
1.000000
  0
SEQEND
  8
0
  0
POLYLINE
  8
112
 66
1
 10
0.000000
 20
0.000000
 30
0.000000
 40
0.000000
 41
0.000000
 70
1
  0
VERTEX
  8
112
 10
0.222500
 20
1.276000
 30
0.000000
  0
VERTEX
  8
112
 10
0.256389
 20
1.276000
 30
0.000000
 42
1.000000
  0
VERTEX
  8
112
 10
0.256389
 20
1.281000
 30
0.000000
  0
VERTEX
  8
112
 10
0.222500
 20
1.281000
 30
0.000000
 42
1.000000
  0
SEQEND
  8
0
  0
POLYLINE
  8
112
 66
1
 10
0.000000
 20
0.000000
 30
0.000000
 40
0.000000
 41
0.000000
 70
1
  0
VERTEX
  8
112
 10
0.276108
 20
1.216709
 30
0.000000
  0
VERTEX
  8
112
 10
0.296441
 20
1.277709
 30
0.000000
 42
1.000000
  0
VERTEX
  8
112
 10
0.291698
 20
1.279291
 30
0.000000
  0
VERTEX
  8
112
 10
0.271364
 20
1.218291
 30
0.000000
 42
1.000000
  0
SEQEND
  8
0
  0
POLYLINE
  8
112
 66
1
 10
0.000000
 20
0.000000
 30
0.000000
 40
0.000000
 41
0.000000
 70
1
  0
VERTEX
  8
112
 10
0.291698
 20
1.277709
 30
0.000000
  0
VERTEX
  8
112
 10
0.312031
 20
1.216709
 30
0.000000
 42
1.000000
  0
VERTEX
  8
112
 10
0.316774
 20
1.218291
 30
0.000000
  0
VERTEX
  8
112
 10
0.296441
 20
1.279291
 30
0.000000
 42
1.000000
  0
SEQEND
  8
0
  0
POLYLINE
  8
112
 66
1
 10
0.000000
 20
0.000000
 30
0.000000
 40
0.000000
 41
0.000000
 70
1
  0
VERTEX
  8
112
 10
0.309319
 20
1.235250
 30
0.000000
  0
VERTEX
  8
112
 10
0.278819
 20
1.235250
 30
0.000000
 42
1.000000
  0
VERTEX
  8
112
 10
0.278819
 20
1.230250
 30
0.000000
  0
VERTEX
  8
112
 10
0.309319
 20
1.230250
 30
0.000000
 42
1.000000
  0
SEQEND
  8
0
  0
POLYLINE
  8
112
 66
1
 10
0.000000
 20
0.000000
 30
0.000000
 40
0.000000
 41
0.000000
 70
1
  0
VERTEX
  8
112
 10
0.335210
 20
1.278500
 30
0.000000
  0
VERTEX
  8
112
 10
0.335210
 20
1.217500
 30
0.000000
 42
1.000000
  0
VERTEX
  8
112
 10
0.340210
 20
1.217500
 30
0.000000
  0
VERTEX
  8
112
 10
0.340210
 20
1.278500
 30
0.000000
 42
1.000000
  0
SEQEND
  8
0
  0
POLYLINE
  8
112
 66
1
 10
0.000000
 20
0.000000
 30
0.000000
 40
0.000000
 41
0.000000
 70
1
  0
VERTEX
  8
112
 10
0.337710
 20
1.215000
 30
0.000000
  0
VERTEX
  8
112
 10
0.364821
 20
1.215000
 30
0.000000
 42
1.000000
  0
VERTEX
  8
112
 10
0.364821
 20
1.220000
 30
0.000000
  0
VERTEX
  8
112
 10
0.337710
 20
1.220000
 30
0.000000
 42
1.000000
  0
SEQEND
  8
0
  0
POLYLINE
  8
112
 66
1
 10
0.000000
 20
0.000000
 30
0.000000
 40
0.000000
 41
0.000000
 70
1
  0
VERTEX
  8
112
 10
0.388875
 20
1.234444
 30
0.000000
  0
VERTEX
  8
112
 10
0.388875
 20
1.261555
 30
0.000000
 42
1.000000
  0
VERTEX
  8
112
 10
0.383875
 20
1.261555
 30
0.000000
  0
VERTEX
  8
112
 10
0.383875
 20
1.234444
 30
0.000000
 42
1.000000
  0
SEQEND
  8
0
  0
POLYLINE
  8
112
 66
1
 10
0.000000
 20
0.000000
 30
0.000000
 40
0.000000
 41
0.000000
 70
1
  0
VERTEX
  8
112
 10
0.417764
 20
1.261555
 30
0.000000
 42
1.000000
  0
VERTEX
  8
112
 10
0.422764
 20
1.261555
 30
0.000000
 42
1.000000
  0
VERTEX
  8
112
 10
0.383875
 20
1.261555
 30
0.000000
 42
1.000000
  0
VERTEX
  8
112
 10
0.388875
 20
1.261555
 30
0.000000
 42
-1.000000
  0
SEQEND
  8
0
  0
POLYLINE
  8
112
 66
1
 10
0.000000
 20
0.000000
 30
0.000000
 40
0.000000
 41
0.000000
 70
1
  0
VERTEX
  8
112
 10
0.417764
 20
1.261555
 30
0.000000
  0
VERTEX
  8
112
 10
0.417764
 20
1.234444
 30
0.000000
 42
1.000000
  0
VERTEX
  8
112
 10
0.422764
 20
1.234444
 30
0.000000
  0
VERTEX
  8
112
 10
0.422764
 20
1.261555
 30
0.000000
 42
1.000000
  0
SEQEND
  8
0
  0
POLYLINE
  8
112
 66
1
 10
0.000000
 20
0.000000
 30
0.000000
 40
0.000000
 41
0.000000
 70
1
  0
VERTEX
  8
112
 10
0.388875
 20
1.234444
 30
0.000000
 42
1.000000
  0
VERTEX
  8
112
 10
0.383875
 20
1.234444
 30
0.000000
 42
1.000000
  0
VERTEX
  8
112
 10
0.422764
 20
1.234444
 30
0.000000
 42
1.000000
  0
VERTEX
  8
112
 10
0.417764
 20
1.234444
 30
0.000000
 42
-1.000000
  0
SEQEND
  8
0
  0
POLYLINE
  8
112
 66
1
 10
0.000000
 20
0.000000
 30
0.000000
 40
0.000000
 41
0.000000
 70
1
  0
VERTEX
  8
112
 10
0.449352
 20
1.217500
 30
0.000000
  0
VERTEX
  8
112
 10
0.449352
 20
1.278500
 30
0.000000
 42
1.000000
  0
VERTEX
  8
112
 10
0.444352
 20
1.278500
 30
0.000000
  0
VERTEX
  8
112
 10
0.444352
 20
1.217500
 30
0.000000
 42
1.000000
  0
SEQEND
  8
0
  0
POLYLINE
  8
112
 66
1
 10
0.000000
 20
0.000000
 30
0.000000
 40
0.000000
 41
0.000000
 70
1
  0
VERTEX
  8
112
 10
0.444667
 20
1.277286
 30
0.000000
  0
VERTEX
  8
112
 10
0.478556
 20
1.216286
 30
0.000000
 42
1.000000
  0
VERTEX
  8
112
 10
0.482927
 20
1.218714
 30
0.000000
  0
VERTEX
  8
112
 10
0.449038
 20
1.279714
 30
0.000000
 42
1.000000
  0
SEQEND
  8
0
  0
POLYLINE
  8
112
 66
1
 10
0.000000
 20
0.000000
 30
0.000000
 40
0.000000
 41
0.000000
 70
1
  0
VERTEX
  8
112
 10
0.483241
 20
1.217500
 30
0.000000
  0
VERTEX
  8
112
 10
0.483241
 20
1.278500
 30
0.000000
 42
1.000000
  0
VERTEX
  8
112
 10
0.478241
 20
1.278500
 30
0.000000
  0
VERTEX
  8
112
 10
0.478241
 20
1.217500
 30
0.000000
 42
1.000000
  0
SEQEND
  8
0
  0
POLYLINE
  8
112
 66
1
 10
0.000000
 20
0.000000
 30
0.000000
 40
0.000000
 41
0.000000
 70
1
  0
VERTEX
  8
112
 10
0.541270
 20
1.248889
 30
0.000000
  0
VERTEX
  8
112
 10
0.558215
 20
1.248889
 30
0.000000
 42
1.000000
  0
VERTEX
  8
112
 10
0.558215
 20
1.253889
 30
0.000000
  0
VERTEX
  8
112
 10
0.541270
 20
1.253889
 30
0.000000
 42
1.000000
  0
SEQEND
  8
0
  0
POLYLINE
  8
112
 66
1
 10
0.000000
 20
0.000000
 30
0.000000
 40
0.000000
 41
0.000000
 70
1
  0
VERTEX
  8
112
 10
0.558215
 20
1.220000
 30
0.000000
 42
1.000000
  0
VERTEX
  8
112
 10
0.558215
 20
1.215000
 30
0.000000
 42
1.000000
  0
VERTEX
  8
112
 10
0.558215
 20
1.253889
 30
0.000000
 42
1.000000
  0
VERTEX
  8
112
 10
0.558215
 20
1.248889
 30
0.000000
 42
-1.000000
  0
SEQEND
  8
0
  0
POLYLINE
  8
112
 66
1
 10
0.000000
 20
0.000000
 30
0.000000
 40
0.000000
 41
0.000000
 70
1
  0
VERTEX
  8
112
 10
0.558215
 20
1.220000
 30
0.000000
  0
VERTEX
  8
112
 10
0.541270
 20
1.220000
 30
0.000000
 42
1.000000
  0
VERTEX
  8
112
 10
0.541270
 20
1.215000
 30
0.000000
  0
VERTEX
  8
112
 10
0.558215
 20
1.215000
 30
0.000000
 42
1.000000
  0
SEQEND
  8
0
  0
POLYLINE
  8
112
 66
1
 10
0.000000
 20
0.000000
 30
0.000000
 40
0.000000
 41
0.000000
 70
1
  0
VERTEX
  8
112
 10
0.543770
 20
1.217500
 30
0.000000
  0
VERTEX
  8
112
 10
0.543770
 20
1.278500
 30
0.000000
 42
1.000000
  0
VERTEX
  8
112
 10
0.538770
 20
1.278500
 30
0.000000
  0
VERTEX
  8
112
 10
0.538770
 20
1.217500
 30
0.000000
 42
1.000000
  0
SEQEND
  8
0
  0
POLYLINE
  8
112
 66
1
 10
0.000000
 20
0.000000
 30
0.000000
 40
0.000000
 41
0.000000
 70
1
  0
VERTEX
  8
112
 10
0.541270
 20
1.276000
 30
0.000000
  0
VERTEX
  8
112
 10
0.558215
 20
1.276000
 30
0.000000
 42
1.000000
  0
VERTEX
  8
112
 10
0.558215
 20
1.281000
 30
0.000000
  0
VERTEX
  8
112
 10
0.541270
 20
1.281000
 30
0.000000
 42
1.000000
  0
SEQEND
  8
0
  0
POLYLINE
  8
112
 66
1
 10
0.000000
 20
0.000000
 30
0.000000
 40
0.000000
 41
0.000000
 70
1
  0
VERTEX
  8
112
 10
0.558215
 20
1.253889
 30
0.000000
 42
1.000000
  0
VERTEX
  8
112
 10
0.558215
 20
1.248889
 30
0.000000
 42
1.000000
  0
VERTEX
  8
112
 10
0.558215
 20
1.281000
 30
0.000000
 42
1.000000
  0
VERTEX
  8
112
 10
0.558215
 20
1.276000
 30
0.000000
 42
-1.000000
  0
SEQEND
  8
0
  0
POLYLINE
  8
112
 66
1
 10
0.000000
 20
0.000000
 30
0.000000
 40
0.000000
 41
0.000000
 70
1
  0
VERTEX
  8
112
 10
0.601318
 20
1.217500
 30
0.000000
  0
VERTEX
  8
112
 10
0.601318
 20
1.258167
 30
0.000000
 42
1.000000
  0
VERTEX
  8
112
 10
0.596318
 20
1.258167
 30
0.000000
  0
VERTEX
  8
112
 10
0.596318
 20
1.217500
 30
0.000000
 42
1.000000
  0
SEQEND
  8
0
  0
POLYLINE
  8
112
 66
1
 10
0.000000
 20
0.000000
 30
0.000000
 40
0.000000
 41
0.000000
 70
1
  0
VERTEX
  8
112
 10
0.598818
 20
1.255667
 30
0.000000
  0
VERTEX
  8
112
 10
0.619151
 20
1.255667
 30
0.000000
 42
1.000000
  0
VERTEX
  8
112
 10
0.619151
 20
1.260667
 30
0.000000
  0
VERTEX
  8
112
 10
0.598818
 20
1.260667
 30
0.000000
 42
1.000000
  0
SEQEND
  8
0
  0
POLYLINE
  8
112
 66
1
 10
0.000000
 20
0.000000
 30
0.000000
 40
0.000000
 41
0.000000
 70
1
  0
VERTEX
  8
112
 10
0.616651
 20
1.258167
 30
0.000000
  0
VERTEX
  8
112
 10
0.616651
 20
1.251389
 30
0.000000
 42
1.000000
  0
VERTEX
  8
112
 10
0.621651
 20
1.251389
 30
0.000000
  0
VERTEX
  8
112
 10
0.621651
 20
1.258167
 30
0.000000
 42
1.000000
  0
SEQEND
  8
0
  0
POLYLINE
  8
112
 66
1
 10
0.000000
 20
0.000000
 30
0.000000
 40
0.000000
 41
0.000000
 70
1
  0
VERTEX
  8
112
 10
0.664638
 20
1.220000
 30
0.000000
  0
VERTEX
  8
112
 10
0.647693
 20
1.220000
 30
0.000000
 42
1.000000
  0
VERTEX
  8
112
 10
0.647693
 20
1.215000
 30
0.000000
  0
VERTEX
  8
112
 10
0.664638
 20
1.215000
 30
0.000000
 42
1.000000
  0
SEQEND
  8
0
  0
POLYLINE
  8
112
 66
1
 10
0.000000
 20
0.000000
 30
0.000000
 40
0.000000
 41
0.000000
 70
1
  0
VERTEX
  8
112
 10
0.640026
 20
1.227667
 30
0.000000
 42
1.000000
  0
VERTEX
  8
112
 10
0.635026
 20
1.227667
 30
0.000000
 42
0.414214
  0
VERTEX
  8
112
 10
0.647693
 20
1.215000
 30
0.000000
 42
1.000000
  0
VERTEX
  8
112
 10
0.647693
 20
1.220000
 30
0.000000
 42
-0.414214
  0
SEQEND
  8
0
  0
POLYLINE
  8
112
 66
1
 10
0.000000
 20
0.000000
 30
0.000000
 40
0.000000
 41
0.000000
 70
1
  0
VERTEX
  8
112
 10
0.640026
 20
1.227667
 30
0.000000
  0
VERTEX
  8
112
 10
0.640026
 20
1.244611
 30
0.000000
 42
1.000000
  0
VERTEX
  8
112
 10
0.635026
 20
1.244611
 30
0.000000
  0
VERTEX
  8
112
 10
0.635026
 20
1.227667
 30
0.000000
 42
1.000000
  0
SEQEND
  8
0
  0
POLYLINE
  8
112
 66
1
 10
0.000000
 20
0.000000
 30
0.000000
 40
0.000000
 41
0.000000
 70
1
  0
VERTEX
  8
112
 10
0.662137
 20
1.244611
 30
0.000000
 42
1.000000
  0
VERTEX
  8
112
 10
0.667137
 20
1.244611
 30
0.000000
 42
1.000000
  0
VERTEX
  8
112
 10
0.635026
 20
1.244611
 30
0.000000
 42
1.000000
  0
VERTEX
  8
112
 10
0.640026
 20
1.244611
 30
0.000000
 42
-1.000000
  0
SEQEND
  8
0
  0
POLYLINE
  8
112
 66
1
 10
0.000000
 20
0.000000
 30
0.000000
 40
0.000000
 41
0.000000
 70
1
  0
VERTEX
  8
112
 10
0.662138
 20
1.244611
 30
0.000000
  0
VERTEX
  8
112
 10
0.662138
 20
1.237833
 30
0.000000
 42
1.000000
  0
VERTEX
  8
112
 10
0.667138
 20
1.237833
 30
0.000000
  0
VERTEX
  8
112
 10
0.667138
 20
1.244611
 30
0.000000
 42
1.000000
  0
SEQEND
  8
0
  0
POLYLINE
  8
112
 66
1
 10
0.000000
 20
0.000000
 30
0.000000
 40
0.000000
 41
0.000000
 70
1
  0
VERTEX
  8
112
 10
0.664638
 20
1.240333
 30
0.000000
  0
VERTEX
  8
112
 10
0.637526
 20
1.240333
 30
0.000000
 42
1.000000
  0
VERTEX
  8
112
 10
0.637526
 20
1.235333
 30
0.000000
  0
VERTEX
  8
112
 10
0.664638
 20
1.235333
 30
0.000000
 42
1.000000
  0
SEQEND
  8
0
  0
POLYLINE
  8
112
 66
1
 10
0.000000
 20
0.000000
 30
0.000000
 40
0.000000
 41
0.000000
 70
1
  0
VERTEX
  8
112
 10
0.715091
 20
1.243722
 30
0.000000
  0
VERTEX
  8
112
 10
0.699841
 20
1.243722
 30
0.000000
 42
1.000000
  0
VERTEX
  8
112
 10
0.699841
 20
1.238722
 30
0.000000
  0
VERTEX
  8
112
 10
0.715091
 20
1.238722
 30
0.000000
 42
1.000000
  0
SEQEND
  8
0
  0
POLYLINE
  8
112
 66
1
 10
0.000000
 20
0.000000
 30
0.000000
 40
0.000000
 41
0.000000
 70
1
  0
VERTEX
  8
112
 10
0.699841
 20
1.238722
 30
0.000000
 42
1.000000
  0
VERTEX
  8
112
 10
0.699841
 20
1.243722
 30
0.000000
 42
1.000000
  0
VERTEX
  8
112
 10
0.699841
 20
1.215000
 30
0.000000
 42
1.000000
  0
VERTEX
  8
112
 10
0.699841
 20
1.220000
 30
0.000000
 42
-1.000000
  0
SEQEND
  8
0
  0
POLYLINE
  8
112
 66
1
 10
0.000000
 20
0.000000
 30
0.000000
 40
0.000000
 41
0.000000
 70
1
  0
VERTEX
  8
112
 10
0.699841
 20
1.215000
 30
0.000000
  0
VERTEX
  8
112
 10
0.715091
 20
1.215000
 30
0.000000
 42
1.000000
  0
VERTEX
  8
112
 10
0.715091
 20
1.220000
 30
0.000000
  0
VERTEX
  8
112
 10
0.699841
 20
1.220000
 30
0.000000
 42
1.000000
  0
SEQEND
  8
0
  0
POLYLINE
  8
112
 66
1
 10
0.000000
 20
0.000000
 30
0.000000
 40
0.000000
 41
0.000000
 70
1
  0
VERTEX
  8
112
 10
0.717591
 20
1.217500
 30
0.000000
  0
VERTEX
  8
112
 10
0.717591
 20
1.248000
 30
0.000000
 42
1.000000
  0
VERTEX
  8
112
 10
0.712591
 20
1.248000
 30
0.000000
  0
VERTEX
  8
112
 10
0.712591
 20
1.217500
 30
0.000000
 42
1.000000
  0
SEQEND
  8
0
  0
POLYLINE
  8
112
 66
1
 10
0.000000
 20
0.000000
 30
0.000000
 40
0.000000
 41
0.000000
 70
1
  0
VERTEX
  8
112
 10
0.712591
 20
1.248000
 30
0.000000
 42
1.000000
  0
VERTEX
  8
112
 10
0.717591
 20
1.248000
 30
0.000000
 42
0.414214
  0
VERTEX
  8
112
 10
0.704925
 20
1.260667
 30
0.000000
 42
1.000000
  0
VERTEX
  8
112
 10
0.704925
 20
1.255667
 30
0.000000
 42
-0.414214
  0
SEQEND
  8
0
  0
POLYLINE
  8
112
 66
1
 10
0.000000
 20
0.000000
 30
0.000000
 40
0.000000
 41
0.000000
 70
1
  0
VERTEX
  8
112
 10
0.704925
 20
1.260667
 30
0.000000
  0
VERTEX
  8
112
 10
0.691369
 20
1.260667
 30
0.000000
 42
1.000000
  0
VERTEX
  8
112
 10
0.691369
 20
1.255667
 30
0.000000
  0
VERTEX
  8
112
 10
0.704925
 20
1.255667
 30
0.000000
 42
1.000000
  0
SEQEND
  8
0
  0
POLYLINE
  8
112
 66
1
 10
0.000000
 20
0.000000
 30
0.000000
 40
0.000000
 41
0.000000
 70
1
  0
VERTEX
  8
112
 10
0.745995
 20
1.217500
 30
0.000000
  0
VERTEX
  8
112
 10
0.745995
 20
1.278500
 30
0.000000
 42
1.000000
  0
VERTEX
  8
112
 10
0.740995
 20
1.278500
 30
0.000000
  0
VERTEX
  8
112
 10
0.740995
 20
1.217500
 30
0.000000
 42
1.000000
  0
SEQEND
  8
0
  0
POLYLINE
  8
112
 66
1
 10
0.000000
 20
0.000000
 30
0.000000
 40
0.000000
 41
0.000000
 70
1
  0
VERTEX
  8
112
 10
0.769106
 20
1.260167
 30
0.000000
  0
VERTEX
  8
112
 10
0.741995
 20
1.239833
 30
0.000000
 42
1.000000
  0
VERTEX
  8
112
 10
0.744995
 20
1.235833
 30
0.000000
  0
VERTEX
  8
112
 10
0.772106
 20
1.256167
 30
0.000000
 42
1.000000
  0
SEQEND
  8
0
  0
POLYLINE
  8
112
 66
1
 10
0.000000
 20
0.000000
 30
0.000000
 40
0.000000
 41
0.000000
 70
1
  0
VERTEX
  8
112
 10
0.772815
 20
1.218670
 30
0.000000
  0
VERTEX
  8
112
 10
0.757565
 20
1.247475
 30
0.000000
 42
1.000000
  0
VERTEX
  8
112
 10
0.753146
 20
1.245136
 30
0.000000
  0
VERTEX
  8
112
 10
0.768396
 20
1.216330
 30
0.000000
 42
1.000000
  0
SEQEND
  8
0
  0
POLYLINE
  8
112
 66
1
 10
0.000000
 20
0.000000
 30
0.000000
 40
0.000000
 41
0.000000
 70
1
  0
VERTEX
  8
112
 10
0.794147
 20
1.231055
 30
0.000000
  0
VERTEX
  8
112
 10
0.794147
 20
1.244611
 30
0.000000
 42
1.000000
  0
VERTEX
  8
112
 10
0.789147
 20
1.244611
 30
0.000000
  0
VERTEX
  8
112
 10
0.789147
 20
1.231055
 30
0.000000
 42
1.000000
  0
SEQEND
  8
0
  0
POLYLINE
  8
112
 66
1
 10
0.000000
 20
0.000000
 30
0.000000
 40
0.000000
 41
0.000000
 70
1
  0
VERTEX
  8
112
 10
0.816258
 20
1.244611
 30
0.000000
 42
1.000000
  0
VERTEX
  8
112
 10
0.821258
 20
1.244611
 30
0.000000
 42
1.000000
  0
VERTEX
  8
112
 10
0.789147
 20
1.244611
 30
0.000000
 42
1.000000
  0
VERTEX
  8
112
 10
0.794147
 20
1.244611
 30
0.000000
 42
-1.000000
  0
SEQEND
  8
0
  0
POLYLINE
  8
112
 66
1
 10
0.000000
 20
0.000000
 30
0.000000
 40
0.000000
 41
0.000000
 70
1
  0
VERTEX
  8
112
 10
0.816258
 20
1.244611
 30
0.000000
  0
VERTEX
  8
112
 10
0.816258
 20
1.231055
 30
0.000000
 42
1.000000
  0
VERTEX
  8
112
 10
0.821258
 20
1.231055
 30
0.000000
  0
VERTEX
  8
112
 10
0.821258
 20
1.244611
 30
0.000000
 42
1.000000
  0
SEQEND
  8
0
  0
POLYLINE
  8
112
 66
1
 10
0.000000
 20
0.000000
 30
0.000000
 40
0.000000
 41
0.000000
 70
1
  0
VERTEX
  8
112
 10
0.794147
 20
1.231055
 30
0.000000
 42
1.000000
  0
VERTEX
  8
112
 10
0.789147
 20
1.231055
 30
0.000000
 42
1.000000
  0
VERTEX
  8
112
 10
0.821258
 20
1.231055
 30
0.000000
 42
1.000000
  0
VERTEX
  8
112
 10
0.816258
 20
1.231055
 30
0.000000
 42
-1.000000
  0
SEQEND
  8
0
  0
POLYLINE
  8
112
 66
1
 10
0.000000
 20
0.000000
 30
0.000000
 40
0.000000
 41
0.000000
 70
1
  0
VERTEX
  8
112
 10
0.841821
 20
1.258167
 30
0.000000
  0
VERTEX
  8
112
 10
0.841821
 20
1.227667
 30
0.000000
 42
1.000000
  0
VERTEX
  8
112
 10
0.846821
 20
1.227667
 30
0.000000
  0
VERTEX
  8
112
 10
0.846821
 20
1.258167
 30
0.000000
 42
1.000000
  0
SEQEND
  8
0
  0
POLYLINE
  8
112
 66
1
 10
0.000000
 20
0.000000
 30
0.000000
 40
0.000000
 41
0.000000
 70
1
  0
VERTEX
  8
112
 10
0.846821
 20
1.227667
 30
0.000000
 42
1.000000
  0
VERTEX
  8
112
 10
0.841821
 20
1.227667
 30
0.000000
 42
0.414214
  0
VERTEX
  8
112
 10
0.854487
 20
1.215000
 30
0.000000
 42
1.000000
  0
VERTEX
  8
112
 10
0.854487
 20
1.220000
 30
0.000000
 42
-0.414214
  0
SEQEND
  8
0
  0
POLYLINE
  8
112
 66
1
 10
0.000000
 20
0.000000
 30
0.000000
 40
0.000000
 41
0.000000
 70
1
  0
VERTEX
  8
112
 10
0.854487
 20
1.215000
 30
0.000000
  0
VERTEX
  8
112
 10
0.871432
 20
1.215000
 30
0.000000
 42
1.000000
  0
VERTEX
  8
112
 10
0.871432
 20
1.220000
 30
0.000000
  0
VERTEX
  8
112
 10
0.854487
 20
1.220000
 30
0.000000
 42
1.000000
  0
SEQEND
  8
0
  0
POLYLINE
  8
112
 66
1
 10
0.000000
 20
0.000000
 30
0.000000
 40
0.000000
 41
0.000000
 70
1
  0
VERTEX
  8
112
 10
0.873932
 20
1.217500
 30
0.000000
  0
VERTEX
  8
112
 10
0.873932
 20
1.258167
 30
0.000000
 42
1.000000
  0
VERTEX
  8
112
 10
0.868932
 20
1.258167
 30
0.000000
  0
VERTEX
  8
112
 10
0.868932
 20
1.217500
 30
0.000000
 42
1.000000
  0
SEQEND
  8
0
  0
POLYLINE
  8
112
 66
1
 10
0.000000
 20
0.000000
 30
0.000000
 40
0.000000
 41
0.000000
 70
1
  0
VERTEX
  8
112
 10
0.892155
 20
1.255667
 30
0.000000
  0
VERTEX
  8
112
 10
0.912488
 20
1.255667
 30
0.000000
 42
1.000000
  0
VERTEX
  8
112
 10
0.912488
 20
1.260667
 30
0.000000
  0
VERTEX
  8
112
 10
0.892155
 20
1.260667
 30
0.000000
 42
1.000000
  0
SEQEND
  8
0
  0
POLYLINE
  8
112
 66
1
 10
0.000000
 20
0.000000
 30
0.000000
 40
0.000000
 41
0.000000
 70
1
  0
VERTEX
  8
112
 10
0.896432
 20
1.278500
 30
0.000000
  0
VERTEX
  8
112
 10
0.896432
 20
1.227667
 30
0.000000
 42
1.000000
  0
VERTEX
  8
112
 10
0.901432
 20
1.227667
 30
0.000000
  0
VERTEX
  8
112
 10
0.901432
 20
1.278500
 30
0.000000
 42
1.000000
  0
SEQEND
  8
0
  0
POLYLINE
  8
112
 66
1
 10
0.000000
 20
0.000000
 30
0.000000
 40
0.000000
 41
0.000000
 70
1
  0
VERTEX
  8
112
 10
0.901432
 20
1.227667
 30
0.000000
 42
1.000000
  0
VERTEX
  8
112
 10
0.896432
 20
1.227667
 30
0.000000
 42
0.414217
  0
VERTEX
  8
112
 10
0.909099
 20
1.215000
 30
0.000000
 42
1.000000
  0
VERTEX
  8
112
 10
0.909099
 20
1.220000
 30
0.000000
 42
-0.414217
  0
SEQEND
  8
0
  0
POLYLINE
  8
112
 66
1
 10
0.000000
 20
0.000000
 30
0.000000
 40
0.000000
 41
0.000000
 70
1
  0
VERTEX
  8
112
 10
0.909099
 20
1.215000
 30
0.000000
  0
VERTEX
  8
112
 10
0.912488
 20
1.215000
 30
0.000000
 42
1.000000
  0
VERTEX
  8
112
 10
0.912488
 20
1.220000
 30
0.000000
  0
VERTEX
  8
112
 10
0.909099
 20
1.220000
 30
0.000000
 42
1.000000
  0
SEQEND
  8
0
  0
POLYLINE
  8
112
 66
1
 10
0.000000
 20
0.000000
 30
0.000000
 40
0.000000
 41
0.000000
 70
1
  0
VERTEX
  8
112
 10
0.314611
 20
1.110000
 30
0.000000
  0
VERTEX
  8
112
 10
0.287500
 20
1.110000
 30
0.000000
 42
1.000000
  0
VERTEX
  8
112
 10
0.287500
 20
1.105000
 30
0.000000
  0
VERTEX
  8
112
 10
0.314611
 20
1.105000
 30
0.000000
 42
1.000000
  0
SEQEND
  8
0
  0
POLYLINE
  8
112
 66
1
 10
0.000000
 20
0.000000
 30
0.000000
 40
0.000000
 41
0.000000
 70
1
  0
VERTEX
  8
112
 10
0.290000
 20
1.107500
 30
0.000000
  0
VERTEX
  8
112
 10
0.290000
 20
1.168500
 30
0.000000
 42
1.000000
  0
VERTEX
  8
112
 10
0.285000
 20
1.168500
 30
0.000000
  0
VERTEX
  8
112
 10
0.285000
 20
1.107500
 30
0.000000
 42
1.000000
  0
SEQEND
  8
0
  0
POLYLINE
  8
112
 66
1
 10
0.000000
 20
0.000000
 30
0.000000
 40
0.000000
 41
0.000000
 70
1
  0
VERTEX
  8
112
 10
0.287500
 20
1.166000
 30
0.000000
  0
VERTEX
  8
112
 10
0.314611
 20
1.166000
 30
0.000000
 42
1.000000
  0
VERTEX
  8
112
 10
0.314611
 20
1.171000
 30
0.000000
  0
VERTEX
  8
112
 10
0.287500
 20
1.171000
 30
0.000000
 42
1.000000
  0
SEQEND
  8
0
  0
POLYLINE
  8
112
 66
1
 10
0.000000
 20
0.000000
 30
0.000000
 40
0.000000
 41
0.000000
 70
1
  0
VERTEX
  8
112
 10
0.287500
 20
1.138889
 30
0.000000
  0
VERTEX
  8
112
 10
0.307833
 20
1.138889
 30
0.000000
 42
1.000000
  0
VERTEX
  8
112
 10
0.307833
 20
1.143889
 30
0.000000
  0
VERTEX
  8
112
 10
0.287500
 20
1.143889
 30
0.000000
 42
1.000000
  0
SEQEND
  8
0
  0
POLYLINE
  8
112
 66
1
 10
0.000000
 20
0.000000
 30
0.000000
 40
0.000000
 41
0.000000
 70
1
  0
VERTEX
  8
112
 10
0.341391
 20
1.107500
 30
0.000000
  0
VERTEX
  8
112
 10
0.341391
 20
1.168500
 30
0.000000
 42
1.000000
  0
VERTEX
  8
112
 10
0.336391
 20
1.168500
 30
0.000000
  0
VERTEX
  8
112
 10
0.336391
 20
1.107500
 30
0.000000
 42
1.000000
  0
SEQEND
  8
0
  0
POLYLINE
  8
112
 66
1
 10
0.000000
 20
0.000000
 30
0.000000
 40
0.000000
 41
0.000000
 70
1
  0
VERTEX
  8
112
 10
0.338891
 20
1.166000
 30
0.000000
  0
VERTEX
  8
112
 10
0.355836
 20
1.166000
 30
0.000000
 42
1.000000
  0
VERTEX
  8
112
 10
0.355836
 20
1.171000
 30
0.000000
  0
VERTEX
  8
112
 10
0.338891
 20
1.171000
 30
0.000000
 42
1.000000
  0
SEQEND
  8
0
  0
POLYLINE
  8
112
 66
1
 10
0.000000
 20
0.000000
 30
0.000000
 40
0.000000
 41
0.000000
 70
1
  0
VERTEX
  8
112
 10
0.355836
 20
1.137111
 30
0.000000
 42
1.000000
  0
VERTEX
  8
112
 10
0.355836
 20
1.132111
 30
0.000000
 42
1.000000
  0
VERTEX
  8
112
 10
0.355836
 20
1.171000
 30
0.000000
 42
1.000000
  0
VERTEX
  8
112
 10
0.355836
 20
1.166000
 30
0.000000
 42
-1.000000
  0
SEQEND
  8
0
  0
POLYLINE
  8
112
 66
1
 10
0.000000
 20
0.000000
 30
0.000000
 40
0.000000
 41
0.000000
 70
1
  0
VERTEX
  8
112
 10
0.355836
 20
1.137111
 30
0.000000
  0
VERTEX
  8
112
 10
0.338891
 20
1.137111
 30
0.000000
 42
1.000000
  0
VERTEX
  8
112
 10
0.338891
 20
1.132111
 30
0.000000
  0
VERTEX
  8
112
 10
0.355836
 20
1.132111
 30
0.000000
 42
1.000000
  0
SEQEND
  8
0
  0
POLYLINE
  8
112
 66
1
 10
0.000000
 20
0.000000
 30
0.000000
 40
0.000000
 41
0.000000
 70
1
  0
VERTEX
  8
112
 10
0.397431
 20
1.168500
 30
0.000000
  0
VERTEX
  8
112
 10
0.397431
 20
1.107500
 30
0.000000
 42
1.000000
  0
VERTEX
  8
112
 10
0.402431
 20
1.107500
 30
0.000000
  0
VERTEX
  8
112
 10
0.402431
 20
1.168500
 30
0.000000
 42
1.000000
  0
SEQEND
  8
0
  0
POLYLINE
  8
112
 66
1
 10
0.000000
 20
0.000000
 30
0.000000
 40
0.000000
 41
0.000000
 70
1
  0
VERTEX
  8
112
 10
0.393153
 20
1.105000
 30
0.000000
  0
VERTEX
  8
112
 10
0.406709
 20
1.105000
 30
0.000000
 42
1.000000
  0
VERTEX
  8
112
 10
0.406709
 20
1.110000
 30
0.000000
  0
VERTEX
  8
112
 10
0.393153
 20
1.110000
 30
0.000000
 42
1.000000
  0
SEQEND
  8
0
  0
POLYLINE
  8
112
 66
1
 10
0.000000
 20
0.000000
 30
0.000000
 40
0.000000
 41
0.000000
 70
1
  0
VERTEX
  8
112
 10
0.393153
 20
1.166000
 30
0.000000
  0
VERTEX
  8
112
 10
0.406709
 20
1.166000
 30
0.000000
 42
1.000000
  0
VERTEX
  8
112
 10
0.406709
 20
1.171000
 30
0.000000
  0
VERTEX
  8
112
 10
0.393153
 20
1.171000
 30
0.000000
 42
1.000000
  0
SEQEND
  8
0
  0
POLYLINE
  8
112
 66
1
 10
0.000000
 20
0.000000
 30
0.000000
 40
0.000000
 41
0.000000
 70
1
  0
VERTEX
  8
112
 10
0.456771
 20
1.110000
 30
0.000000
  0
VERTEX
  8
112
 10
0.443216
 20
1.110000
 30
0.000000
 42
1.000000
  0
VERTEX
  8
112
 10
0.443216
 20
1.105000
 30
0.000000
  0
VERTEX
  8
112
 10
0.456771
 20
1.105000
 30
0.000000
 42
1.000000
  0
SEQEND
  8
0
  0
POLYLINE
  8
112
 66
1
 10
0.000000
 20
0.000000
 30
0.000000
 40
0.000000
 41
0.000000
 70
1
  0
VERTEX
  8
112
 10
0.432160
 20
1.121055
 30
0.000000
 42
1.000000
  0
VERTEX
  8
112
 10
0.427160
 20
1.121055
 30
0.000000
 42
0.414214
  0
VERTEX
  8
112
 10
0.443216
 20
1.105000
 30
0.000000
 42
1.000000
  0
VERTEX
  8
112
 10
0.443216
 20
1.110000
 30
0.000000
 42
-0.414214
  0
SEQEND
  8
0
  0
POLYLINE
  8
112
 66
1
 10
0.000000
 20
0.000000
 30
0.000000
 40
0.000000
 41
0.000000
 70
1
  0
VERTEX
  8
112
 10
0.432160
 20
1.121055
 30
0.000000
  0
VERTEX
  8
112
 10
0.432160
 20
1.154944
 30
0.000000
 42
1.000000
  0
VERTEX
  8
112
 10
0.427160
 20
1.154944
 30
0.000000
  0
VERTEX
  8
112
 10
0.427160
 20
1.121055
 30
0.000000
 42
1.000000
  0
SEQEND
  8
0
  0
POLYLINE
  8
112
 66
1
 10
0.000000
 20
0.000000
 30
0.000000
 40
0.000000
 41
0.000000
 70
1
  0
VERTEX
  8
112
 10
0.443216
 20
1.166000
 30
0.000000
 42
1.000000
  0
VERTEX
  8
112
 10
0.443216
 20
1.171000
 30
0.000000
 42
0.414211
  0
VERTEX
  8
112
 10
0.427160
 20
1.154944
 30
0.000000
 42
1.000000
  0
VERTEX
  8
112
 10
0.432160
 20
1.154944
 30
0.000000
 42
-0.414211
  0
SEQEND
  8
0
  0
POLYLINE
  8
112
 66
1
 10
0.000000
 20
0.000000
 30
0.000000
 40
0.000000
 41
0.000000
 70
1
  0
VERTEX
  8
112
 10
0.443216
 20
1.166000
 30
0.000000
  0
VERTEX
  8
112
 10
0.456771
 20
1.166000
 30
0.000000
 42
1.000000
  0
VERTEX
  8
112
 10
0.456771
 20
1.171000
 30
0.000000
  0
VERTEX
  8
112
 10
0.443216
 20
1.171000
 30
0.000000
 42
1.000000
  0
SEQEND
  8
0
  0
POLYLINE
  8
112
 66
1
 10
0.000000
 20
0.000000
 30
0.000000
 40
0.000000
 41
0.000000
 70
1
  0
VERTEX
  8
112
 10
0.514582
 20
1.107500
 30
0.000000
  0
VERTEX
  8
112
 10
0.514582
 20
1.168500
 30
0.000000
 42
1.000000
  0
VERTEX
  8
112
 10
0.509582
 20
1.168500
 30
0.000000
  0
VERTEX
  8
112
 10
0.509582
 20
1.107500
 30
0.000000
 42
1.000000
  0
SEQEND
  8
0
  0
POLYLINE
  8
112
 66
1
 10
0.000000
 20
0.000000
 30
0.000000
 40
0.000000
 41
0.000000
 70
1
  0
VERTEX
  8
112
 10
0.512082
 20
1.166000
 30
0.000000
  0
VERTEX
  8
112
 10
0.529026
 20
1.166000
 30
0.000000
 42
1.000000
  0
VERTEX
  8
112
 10
0.529026
 20
1.171000
 30
0.000000
  0
VERTEX
  8
112
 10
0.512082
 20
1.171000
 30
0.000000
 42
1.000000
  0
SEQEND
  8
0
  0
POLYLINE
  8
112
 66
1
 10
0.000000
 20
0.000000
 30
0.000000
 40
0.000000
 41
0.000000
 70
1
  0
VERTEX
  8
112
 10
0.529026
 20
1.137111
 30
0.000000
 42
1.000000
  0
VERTEX
  8
112
 10
0.529026
 20
1.132111
 30
0.000000
 42
1.000000
  0
VERTEX
  8
112
 10
0.529026
 20
1.171000
 30
0.000000
 42
1.000000
  0
VERTEX
  8
112
 10
0.529026
 20
1.166000
 30
0.000000
 42
-1.000000
  0
SEQEND
  8
0
  0
POLYLINE
  8
112
 66
1
 10
0.000000
 20
0.000000
 30
0.000000
 40
0.000000
 41
0.000000
 70
1
  0
VERTEX
  8
112
 10
0.529026
 20
1.137111
 30
0.000000
  0
VERTEX
  8
112
 10
0.512082
 20
1.137111
 30
0.000000
 42
1.000000
  0
VERTEX
  8
112
 10
0.512082
 20
1.132111
 30
0.000000
  0
VERTEX
  8
112
 10
0.529026
 20
1.132111
 30
0.000000
 42
1.000000
  0
SEQEND
  8
0
  0
POLYLINE
  8
112
 66
1
 10
0.000000
 20
0.000000
 30
0.000000
 40
0.000000
 41
0.000000
 70
1
  0
VERTEX
  8
112
 10
0.548207
 20
1.108618
 30
0.000000
  0
VERTEX
  8
112
 10
0.534651
 20
1.135729
 30
0.000000
 42
1.000000
  0
VERTEX
  8
112
 10
0.530179
 20
1.133493
 30
0.000000
  0
VERTEX
  8
112
 10
0.543735
 20
1.106382
 30
0.000000
 42
1.000000
  0
SEQEND
  8
0
  0
POLYLINE
  8
112
 66
1
 10
0.000000
 20
0.000000
 30
0.000000
 40
0.000000
 41
0.000000
 70
1
  0
VERTEX
  8
112
 10
0.572259
 20
1.121055
 30
0.000000
  0
VERTEX
  8
112
 10
0.572259
 20
1.134611
 30
0.000000
 42
1.000000
  0
VERTEX
  8
112
 10
0.567259
 20
1.134611
 30
0.000000
  0
VERTEX
  8
112
 10
0.567259
 20
1.121055
 30
0.000000
 42
1.000000
  0
SEQEND
  8
0
  0
POLYLINE
  8
112
 66
1
 10
0.000000
 20
0.000000
 30
0.000000
 40
0.000000
 41
0.000000
 70
1
  0
VERTEX
  8
112
 10
0.594370
 20
1.134611
 30
0.000000
 42
1.000000
  0
VERTEX
  8
112
 10
0.599370
 20
1.134611
 30
0.000000
 42
1.000000
  0
VERTEX
  8
112
 10
0.567259
 20
1.134611
 30
0.000000
 42
1.000000
  0
VERTEX
  8
112
 10
0.572259
 20
1.134611
 30
0.000000
 42
-1.000000
  0
SEQEND
  8
0
  0
POLYLINE
  8
112
 66
1
 10
0.000000
 20
0.000000
 30
0.000000
 40
0.000000
 41
0.000000
 70
1
  0
VERTEX
  8
112
 10
0.594370
 20
1.134611
 30
0.000000
  0
VERTEX
  8
112
 10
0.594370
 20
1.121055
 30
0.000000
 42
1.000000
  0
VERTEX
  8
112
 10
0.599370
 20
1.121055
 30
0.000000
  0
VERTEX
  8
112
 10
0.599370
 20
1.134611
 30
0.000000
 42
1.000000
  0
SEQEND
  8
0
  0
POLYLINE
  8
112
 66
1
 10
0.000000
 20
0.000000
 30
0.000000
 40
0.000000
 41
0.000000
 70
1
  0
VERTEX
  8
112
 10
0.572259
 20
1.121055
 30
0.000000
 42
1.000000
  0
VERTEX
  8
112
 10
0.567259
 20
1.121055
 30
0.000000
 42
1.000000
  0
VERTEX
  8
112
 10
0.599370
 20
1.121055
 30
0.000000
 42
1.000000
  0
VERTEX
  8
112
 10
0.594370
 20
1.121055
 30
0.000000
 42
-1.000000
  0
SEQEND
  8
0
  0
POLYLINE
  8
112
 66
1
 10
0.000000
 20
0.000000
 30
0.000000
 40
0.000000
 41
0.000000
 70
1
  0
VERTEX
  8
112
 10
0.620202
 20
1.168500
 30
0.000000
  0
VERTEX
  8
112
 10
0.620202
 20
1.107500
 30
0.000000
 42
1.000000
  0
VERTEX
  8
112
 10
0.625202
 20
1.107500
 30
0.000000
  0
VERTEX
  8
112
 10
0.625202
 20
1.168500
 30
0.000000
 42
1.000000
  0
SEQEND
  8
0
  0
POLYLINE
  8
112
 66
1
 10
0.000000
 20
0.000000
 30
0.000000
 40
0.000000
 41
0.000000
 70
1
  0
VERTEX
  8
112
 10
0.622702
 20
1.105000
 30
0.000000
  0
VERTEX
  8
112
 10
0.639647
 20
1.105000
 30
0.000000
 42
1.000000
  0
VERTEX
  8
112
 10
0.639647
 20
1.110000
 30
0.000000
  0
VERTEX
  8
112
 10
0.622702
 20
1.110000
 30
0.000000
 42
1.000000
  0
SEQEND
  8
0
  0
POLYLINE
  8
112
 66
1
 10
0.000000
 20
0.000000
 30
0.000000
 40
0.000000
 41
0.000000
 70
1
  0
VERTEX
  8
112
 10
0.639647
 20
1.110000
 30
0.000000
 42
1.000000
  0
VERTEX
  8
112
 10
0.639647
 20
1.105000
 30
0.000000
 42
0.414210
  0
VERTEX
  8
112
 10
0.652313
 20
1.117667
 30
0.000000
 42
1.000000
  0
VERTEX
  8
112
 10
0.647313
 20
1.117667
 30
0.000000
 42
-0.414210
  0
SEQEND
  8
0
  0
POLYLINE
  8
112
 66
1
 10
0.000000
 20
0.000000
 30
0.000000
 40
0.000000
 41
0.000000
 70
1
  0
VERTEX
  8
112
 10
0.652313
 20
1.117667
 30
0.000000
  0
VERTEX
  8
112
 10
0.652313
 20
1.138000
 30
0.000000
 42
1.000000
  0
VERTEX
  8
112
 10
0.647313
 20
1.138000
 30
0.000000
  0
VERTEX
  8
112
 10
0.647313
 20
1.117667
 30
0.000000
 42
1.000000
  0
SEQEND
  8
0
  0
POLYLINE
  8
112
 66
1
 10
0.000000
 20
0.000000
 30
0.000000
 40
0.000000
 41
0.000000
 70
1
  0
VERTEX
  8
112
 10
0.647313
 20
1.138000
 30
0.000000
 42
1.000000
  0
VERTEX
  8
112
 10
0.652313
 20
1.138000
 30
0.000000
 42
0.414214
  0
VERTEX
  8
112
 10
0.639647
 20
1.150667
 30
0.000000
 42
1.000000
  0
VERTEX
  8
112
 10
0.639647
 20
1.145667
 30
0.000000
 42
-0.414214
  0
SEQEND
  8
0
  0
POLYLINE
  8
112
 66
1
 10
0.000000
 20
0.000000
 30
0.000000
 40
0.000000
 41
0.000000
 70
1
  0
VERTEX
  8
112
 10
0.639647
 20
1.150667
 30
0.000000
  0
VERTEX
  8
112
 10
0.622702
 20
1.150667
 30
0.000000
 42
1.000000
  0
VERTEX
  8
112
 10
0.622702
 20
1.145667
 30
0.000000
  0
VERTEX
  8
112
 10
0.639647
 20
1.145667
 30
0.000000
 42
1.000000
  0
SEQEND
  8
0
  0
POLYLINE
  8
112
 66
1
 10
0.000000
 20
0.000000
 30
0.000000
 40
0.000000
 41
0.000000
 70
1
  0
VERTEX
  8
112
 10
0.675656
 20
1.121055
 30
0.000000
  0
VERTEX
  8
112
 10
0.675656
 20
1.134611
 30
0.000000
 42
1.000000
  0
VERTEX
  8
112
 10
0.670656
 20
1.134611
 30
0.000000
  0
VERTEX
  8
112
 10
0.670656
 20
1.121055
 30
0.000000
 42
1.000000
  0
SEQEND
  8
0
  0
POLYLINE
  8
112
 66
1
 10
0.000000
 20
0.000000
 30
0.000000
 40
0.000000
 41
0.000000
 70
1
  0
VERTEX
  8
112
 10
0.697767
 20
1.134611
 30
0.000000
 42
1.000000
  0
VERTEX
  8
112
 10
0.702767
 20
1.134611
 30
0.000000
 42
1.000000
  0
VERTEX
  8
112
 10
0.670656
 20
1.134611
 30
0.000000
 42
1.000000
  0
VERTEX
  8
112
 10
0.675656
 20
1.134611
 30
0.000000
 42
-1.000000
  0
SEQEND
  8
0
  0
POLYLINE
  8
112
 66
1
 10
0.000000
 20
0.000000
 30
0.000000
 40
0.000000
 41
0.000000
 70
1
  0
VERTEX
  8
112
 10
0.697767
 20
1.134611
 30
0.000000
  0
VERTEX
  8
112
 10
0.697767
 20
1.121055
 30
0.000000
 42
1.000000
  0
VERTEX
  8
112
 10
0.702767
 20
1.121055
 30
0.000000
  0
VERTEX
  8
112
 10
0.702767
 20
1.134611
 30
0.000000
 42
1.000000
  0
SEQEND
  8
0
  0
POLYLINE
  8
112
 66
1
 10
0.000000
 20
0.000000
 30
0.000000
 40
0.000000
 41
0.000000
 70
1
  0
VERTEX
  8
112
 10
0.675656
 20
1.121055
 30
0.000000
 42
1.000000
  0
VERTEX
  8
112
 10
0.670656
 20
1.121055
 30
0.000000
 42
1.000000
  0
VERTEX
  8
112
 10
0.702767
 20
1.121055
 30
0.000000
 42
1.000000
  0
VERTEX
  8
112
 10
0.697767
 20
1.121055
 30
0.000000
 42
-1.000000
  0
SEQEND
  8
0
  0
POLYLINE
  8
112
 66
1
 10
0.000000
 20
0.000000
 30
0.000000
 40
0.000000
 41
0.000000
 70
1
  0
VERTEX
  8
112
 10
0.719039
 20
1.145667
 30
0.000000
  0
VERTEX
  8
112
 10
0.739372
 20
1.145667
 30
0.000000
 42
1.000000
  0
VERTEX
  8
112
 10
0.739372
 20
1.150667
 30
0.000000
  0
VERTEX
  8
112
 10
0.719039
 20
1.150667
 30
0.000000
 42
1.000000
  0
SEQEND
  8
0
  0
POLYLINE
  8
112
 66
1
 10
0.000000
 20
0.000000
 30
0.000000
 40
0.000000
 41
0.000000
 70
1
  0
VERTEX
  8
112
 10
0.723317
 20
1.168500
 30
0.000000
  0
VERTEX
  8
112
 10
0.723317
 20
1.117667
 30
0.000000
 42
1.000000
  0
VERTEX
  8
112
 10
0.728317
 20
1.117667
 30
0.000000
  0
VERTEX
  8
112
 10
0.728317
 20
1.168500
 30
0.000000
 42
1.000000
  0
SEQEND
  8
0
  0
POLYLINE
  8
112
 66
1
 10
0.000000
 20
0.000000
 30
0.000000
 40
0.000000
 41
0.000000
 70
1
  0
VERTEX
  8
112
 10
0.728317
 20
1.117667
 30
0.000000
 42
1.000000
  0
VERTEX
  8
112
 10
0.723317
 20
1.117667
 30
0.000000
 42
0.414217
  0
VERTEX
  8
112
 10
0.735983
 20
1.105000
 30
0.000000
 42
1.000000
  0
VERTEX
  8
112
 10
0.735983
 20
1.110000
 30
0.000000
 42
-0.414217
  0
SEQEND
  8
0
  0
POLYLINE
  8
112
 66
1
 10
0.000000
 20
0.000000
 30
0.000000
 40
0.000000
 41
0.000000
 70
1
  0
VERTEX
  8
112
 10
0.735983
 20
1.105000
 30
0.000000
  0
VERTEX
  8
112
 10
0.739372
 20
1.105000
 30
0.000000
 42
1.000000
  0
VERTEX
  8
112
 10
0.739372
 20
1.110000
 30
0.000000
  0
VERTEX
  8
112
 10
0.735983
 20
1.110000
 30
0.000000
 42
1.000000
  0
SEQEND
  8
0
  0
POLYLINE
  8
112
 66
1
 10
0.000000
 20
0.000000
 30
0.000000
 40
0.000000
 41
0.000000
 70
1
  0
VERTEX
  8
112
 10
0.758995
 20
1.145667
 30
0.000000
  0
VERTEX
  8
112
 10
0.786106
 20
1.145667
 30
0.000000
 42
1.000000
  0
VERTEX
  8
112
 10
0.786106
 20
1.150667
 30
0.000000
  0
VERTEX
  8
112
 10
0.758995
 20
1.150667
 30
0.000000
 42
1.000000
  0
SEQEND
  8
0
  0
POLYLINE
  8
112
 66
1
 10
0.000000
 20
0.000000
 30
0.000000
 40
0.000000
 41
0.000000
 70
1
  0
VERTEX
  8
112
 10
0.784026
 20
1.149553
 30
0.000000
  0
VERTEX
  8
112
 10
0.756915
 20
1.108887
 30
0.000000
 42
1.000000
  0
VERTEX
  8
112
 10
0.761075
 20
1.106113
 30
0.000000
  0
VERTEX
  8
112
 10
0.788186
 20
1.146780
 30
0.000000
 42
1.000000
  0
SEQEND
  8
0
  0
POLYLINE
  8
112
 66
1
 10
0.000000
 20
0.000000
 30
0.000000
 40
0.000000
 41
0.000000
 70
1
  0
VERTEX
  8
112
 10
0.758995
 20
1.105000
 30
0.000000
  0
VERTEX
  8
112
 10
0.786106
 20
1.105000
 30
0.000000
 42
1.000000
  0
VERTEX
  8
112
 10
0.786106
 20
1.110000
 30
0.000000
  0
VERTEX
  8
112
 10
0.758995
 20
1.110000
 30
0.000000
 42
1.000000
  0
SEQEND
  8
0
  0
POLYLINE
  8
112
 66
1
 10
0.000000
 20
0.000000
 30
0.000000
 40
0.000000
 41
0.000000
 70
1
  0
VERTEX
  8
112
 10
0.295000
 20
0.992500
 30
0.000000
  0
VERTEX
  8
112
 10
0.295000
 20
1.053500
 30
0.000000
 42
1.000000
  0
VERTEX
  8
112
 10
0.290000
 20
1.053500
 30
0.000000
  0
VERTEX
  8
112
 10
0.290000
 20
0.992500
 30
0.000000
 42
1.000000
  0
SEQEND
  8
0
  0
POLYLINE
  8
112
 66
1
 10
0.000000
 20
0.000000
 30
0.000000
 40
0.000000
 41
0.000000
 70
1
  0
VERTEX
  8
112
 10
0.292500
 20
1.051000
 30
0.000000
  0
VERTEX
  8
112
 10
0.319611
 20
1.051000
 30
0.000000
 42
1.000000
  0
VERTEX
  8
112
 10
0.319611
 20
1.056000
 30
0.000000
  0
VERTEX
  8
112
 10
0.292500
 20
1.056000
 30
0.000000
 42
1.000000
  0
SEQEND
  8
0
  0
POLYLINE
  8
112
 66
1
 10
0.000000
 20
0.000000
 30
0.000000
 40
0.000000
 41
0.000000
 70
1
  0
VERTEX
  8
112
 10
0.292500
 20
1.023889
 30
0.000000
  0
VERTEX
  8
112
 10
0.319611
 20
1.023889
 30
0.000000
 42
1.000000
  0
VERTEX
  8
112
 10
0.319611
 20
1.028889
 30
0.000000
  0
VERTEX
  8
112
 10
0.292500
 20
1.028889
 30
0.000000
 42
1.000000
  0
SEQEND
  8
0
  0
POLYLINE
  8
112
 66
1
 10
0.000000
 20
0.000000
 30
0.000000
 40
0.000000
 41
0.000000
 70
1
  0
VERTEX
  8
112
 10
0.367494
 20
1.018722
 30
0.000000
  0
VERTEX
  8
112
 10
0.352244
 20
1.018722
 30
0.000000
 42
1.000000
  0
VERTEX
  8
112
 10
0.352244
 20
1.013722
 30
0.000000
  0
VERTEX
  8
112
 10
0.367494
 20
1.013722
 30
0.000000
 42
1.000000
  0
SEQEND
  8
0
  0
POLYLINE
  8
112
 66
1
 10
0.000000
 20
0.000000
 30
0.000000
 40
0.000000
 41
0.000000
 70
1
  0
VERTEX
  8
112
 10
0.352244
 20
1.013722
 30
0.000000
 42
1.000000
  0
VERTEX
  8
112
 10
0.352244
 20
1.018722
 30
0.000000
 42
1.000000
  0
VERTEX
  8
112
 10
0.352244
 20
0.990000
 30
0.000000
 42
1.000000
  0
VERTEX
  8
112
 10
0.352244
 20
0.995000
 30
0.000000
 42
-1.000000
  0
SEQEND
  8
0
  0
POLYLINE
  8
112
 66
1
 10
0.000000
 20
0.000000
 30
0.000000
 40
0.000000
 41
0.000000
 70
1
  0
VERTEX
  8
112
 10
0.352244
 20
0.990000
 30
0.000000
  0
VERTEX
  8
112
 10
0.367494
 20
0.990000
 30
0.000000
 42
1.000000
  0
VERTEX
  8
112
 10
0.367494
 20
0.995000
 30
0.000000
  0
VERTEX
  8
112
 10
0.352244
 20
0.995000
 30
0.000000
 42
1.000000
  0
SEQEND
  8
0
  0
POLYLINE
  8
112
 66
1
 10
0.000000
 20
0.000000
 30
0.000000
 40
0.000000
 41
0.000000
 70
1
  0
VERTEX
  8
112
 10
0.369994
 20
0.992500
 30
0.000000
  0
VERTEX
  8
112
 10
0.369994
 20
1.023000
 30
0.000000
 42
1.000000
  0
VERTEX
  8
112
 10
0.364994
 20
1.023000
 30
0.000000
  0
VERTEX
  8
112
 10
0.364994
 20
0.992500
 30
0.000000
 42
1.000000
  0
SEQEND
  8
0
  0
POLYLINE
  8
112
 66
1
 10
0.000000
 20
0.000000
 30
0.000000
 40
0.000000
 41
0.000000
 70
1
  0
VERTEX
  8
112
 10
0.364994
 20
1.023000
 30
0.000000
 42
1.000000
  0
VERTEX
  8
112
 10
0.369994
 20
1.023000
 30
0.000000
 42
0.414214
  0
VERTEX
  8
112
 10
0.357327
 20
1.035667
 30
0.000000
 42
1.000000
  0
VERTEX
  8
112
 10
0.357327
 20
1.030667
 30
0.000000
 42
-0.414214
  0
SEQEND
  8
0
  0
POLYLINE
  8
112
 66
1
 10
0.000000
 20
0.000000
 30
0.000000
 40
0.000000
 41
0.000000
 70
1
  0
VERTEX
  8
112
 10
0.357327
 20
1.035667
 30
0.000000
  0
VERTEX
  8
112
 10
0.343772
 20
1.035667
 30
0.000000
 42
1.000000
  0
VERTEX
  8
112
 10
0.343772
 20
1.030667
 30
0.000000
  0
VERTEX
  8
112
 10
0.357327
 20
1.030667
 30
0.000000
 42
1.000000
  0
SEQEND
  8
0
  0
POLYLINE
  8
112
 66
1
 10
0.000000
 20
0.000000
 30
0.000000
 40
0.000000
 41
0.000000
 70
1
  0
VERTEX
  8
112
 10
0.391727
 20
1.053500
 30
0.000000
  0
VERTEX
  8
112
 10
0.391727
 20
1.002667
 30
0.000000
 42
1.000000
  0
VERTEX
  8
112
 10
0.396727
 20
1.002667
 30
0.000000
  0
VERTEX
  8
112
 10
0.396727
 20
1.053500
 30
0.000000
 42
1.000000
  0
SEQEND
  8
0
  0
POLYLINE
  8
112
 66
1
 10
0.000000
 20
0.000000
 30
0.000000
 40
0.000000
 41
0.000000
 70
1
  0
VERTEX
  8
112
 10
0.396727
 20
1.002667
 30
0.000000
 42
1.000000
  0
VERTEX
  8
112
 10
0.391727
 20
1.002667
 30
0.000000
 42
0.414214
  0
VERTEX
  8
112
 10
0.404394
 20
0.990000
 30
0.000000
 42
1.000000
  0
VERTEX
  8
112
 10
0.404394
 20
0.995000
 30
0.000000
 42
-0.414214
  0
SEQEND
  8
0
  0
POLYLINE
  8
112
 66
1
 10
0.000000
 20
0.000000
 30
0.000000
 40
0.000000
 41
0.000000
 70
1
  0
VERTEX
  8
112
 10
0.422942
 20
1.053500
 30
0.000000
  0
VERTEX
  8
112
 10
0.422942
 20
1.002667
 30
0.000000
 42
1.000000
  0
VERTEX
  8
112
 10
0.427942
 20
1.002667
 30
0.000000
  0
VERTEX
  8
112
 10
0.427942
 20
1.053500
 30
0.000000
 42
1.000000
  0
SEQEND
  8
0
  0
POLYLINE
  8
112
 66
1
 10
0.000000
 20
0.000000
 30
0.000000
 40
0.000000
 41
0.000000
 70
1
  0
VERTEX
  8
112
 10
0.427942
 20
1.002667
 30
0.000000
 42
1.000000
  0
VERTEX
  8
112
 10
0.422942
 20
1.002667
 30
0.000000
 42
0.414214
  0
VERTEX
  8
112
 10
0.435608
 20
0.990000
 30
0.000000
 42
1.000000
  0
VERTEX
  8
112
 10
0.435608
 20
0.995000
 30
0.000000
 42
-0.414214
  0
SEQEND
  8
0
  0
POLYLINE
  8
112
 66
1
 10
0.000000
 20
0.000000
 30
0.000000
 40
0.000000
 41
0.000000
 70
1
  0
VERTEX
  8
112
 10
0.518870
 20
1.038250
 30
0.000000
 42
1.000000
  0
VERTEX
  8
112
 10
0.523870
 20
1.038250
 30
0.000000
 42
0.414214
  0
VERTEX
  8
112
 10
0.506120
 20
1.056000
 30
0.000000
 42
1.000000
  0
VERTEX
  8
112
 10
0.506120
 20
1.051000
 30
0.000000
 42
-0.414214
  0
SEQEND
  8
0
  0
POLYLINE
  8
112
 66
1
 10
0.000000
 20
0.000000
 30
0.000000
 40
0.000000
 41
0.000000
 70
1
  0
VERTEX
  8
112
 10
0.506120
 20
1.051000
 30
0.000000
 42
1.000000
  0
VERTEX
  8
112
 10
0.506120
 20
1.056000
 30
0.000000
 42
0.325187
  0
VERTEX
  8
112
 10
0.485103
 20
1.040715
 30
0.000000
 42
1.000000
  0
VERTEX
  8
112
 10
0.489860
 20
1.039174
 30
0.000000
 42
-0.325187
  0
SEQEND
  8
0
  0
POLYLINE
  8
112
 66
1
 10
0.000000
 20
0.000000
 30
0.000000
 40
0.000000
 41
0.000000
 70
1
  0
VERTEX
  8
112
 10
0.514563
 20
1.028199
 30
0.000000
 42
1.000000
  0
VERTEX
  8
112
 10
0.518011
 20
1.024578
 30
0.000000
 42
0.205254
  0
VERTEX
  8
112
 10
0.523870
 20
1.038250
 30
0.000000
 42
1.000000
  0
VERTEX
  8
112
 10
0.518870
 20
1.038250
 30
0.000000
 42
-0.205254
  0
SEQEND
  8
0
  0
POLYLINE
  8
112
 66
1
 10
0.000000
 20
0.000000
 30
0.000000
 40
0.000000
 41
0.000000
 70
1
  0
VERTEX
  8
112
 10
0.514382
 20
1.028008
 30
0.000000
  0
VERTEX
  8
112
 10
0.485577
 20
0.994119
 30
0.000000
 42
1.000000
  0
VERTEX
  8
112
 10
0.489387
 20
0.990881
 30
0.000000
  0
VERTEX
  8
112
 10
0.518192
 20
1.024770
 30
0.000000
 42
1.000000
  0
SEQEND
  8
0
  0
POLYLINE
  8
112
 66
1
 10
0.000000
 20
0.000000
 30
0.000000
 40
0.000000
 41
0.000000
 70
1
  0
VERTEX
  8
112
 10
0.487482
 20
0.990000
 30
0.000000
  0
VERTEX
  8
112
 10
0.521370
 20
0.990000
 30
0.000000
 42
1.000000
  0
VERTEX
  8
112
 10
0.521370
 20
0.995000
 30
0.000000
  0
VERTEX
  8
112
 10
0.487482
 20
0.995000
 30
0.000000
 42
1.000000
  0
SEQEND
  8
0
  0
POLYLINE
  8
112
 66
1
 10
0.000000
 20
0.000000
 30
0.000000
 40
0.000000
 41
0.000000
 70
1
  0
VERTEX
  8
112
 10
0.553339
 20
1.043932
 30
0.000000
 42
1.000000
  0
VERTEX
  8
112
 10
0.548844
 20
1.046123
 30
0.000000
 42
0.113888
  0
VERTEX
  8
112
 10
0.543508
 20
1.023000
 30
0.000000
 42
1.000000
  0
VERTEX
  8
112
 10
0.548508
 20
1.023000
 30
0.000000
 42
-0.113888
  0
SEQEND
  8
0
  0
POLYLINE
  8
112
 66
1
 10
0.000000
 20
0.000000
 30
0.000000
 40
0.000000
 41
0.000000
 70
1
  0
VERTEX
  8
112
 10
0.562953
 20
1.051000
 30
0.000000
 42
1.000000
  0
VERTEX
  8
112
 10
0.562953
 20
1.056000
 30
0.000000
 42
0.320465
  0
VERTEX
  8
112
 10
0.548727
 20
1.045838
 30
0.000000
 42
1.000000
  0
VERTEX
  8
112
 10
0.553456
 20
1.044217
 30
0.000000
 42
-0.320465
  0
SEQEND
  8
0
  0
POLYLINE
  8
112
 66
1
 10
0.000000
 20
0.000000
 30
0.000000
 40
0.000000
 41
0.000000
 70
1
  0
VERTEX
  8
112
 10
0.572449
 20
1.044217
 30
0.000000
 42
1.000000
  0
VERTEX
  8
112
 10
0.577179
 20
1.045838
 30
0.000000
 42
0.320470
  0
VERTEX
  8
112
 10
0.562953
 20
1.056000
 30
0.000000
 42
1.000000
  0
VERTEX
  8
112
 10
0.562953
 20
1.051000
 30
0.000000
 42
-0.320470
  0
SEQEND
  8
0
  0
POLYLINE
  8
112
 66
1
 10
0.000000
 20
0.000000
 30
0.000000
 40
0.000000
 41
0.000000
 70
1
  0
VERTEX
  8
112
 10
0.577397
 20
1.023000
 30
0.000000
 42
1.000000
  0
VERTEX
  8
112
 10
0.582397
 20
1.023000
 30
0.000000
 42
0.113888
  0
VERTEX
  8
112
 10
0.577061
 20
1.046123
 30
0.000000
 42
1.000000
  0
VERTEX
  8
112
 10
0.572567
 20
1.043932
 30
0.000000
 42
-0.113888
  0
SEQEND
  8
0
  0
POLYLINE
  8
112
 66
1
 10
0.000000
 20
0.000000
 30
0.000000
 40
0.000000
 41
0.000000
 70
1
  0
VERTEX
  8
112
 10
0.548508
 20
1.023000
 30
0.000000
 42
1.000000
  0
VERTEX
  8
112
 10
0.543508
 20
1.023000
 30
0.000000
 42
0.113887
  0
VERTEX
  8
112
 10
0.548844
 20
0.999877
 30
0.000000
 42
1.000000
  0
VERTEX
  8
112
 10
0.553339
 20
1.002068
 30
0.000000
 42
-0.113887
  0
SEQEND
  8
0
  0
POLYLINE
  8
112
 66
1
 10
0.000000
 20
0.000000
 30
0.000000
 40
0.000000
 41
0.000000
 70
1
  0
VERTEX
  8
112
 10
0.553456
 20
1.001783
 30
0.000000
 42
1.000000
  0
VERTEX
  8
112
 10
0.548727
 20
1.000161
 30
0.000000
 42
0.320462
  0
VERTEX
  8
112
 10
0.562953
 20
0.990000
 30
0.000000
 42
1.000000
  0
VERTEX
  8
112
 10
0.562953
 20
0.995000
 30
0.000000
 42
-0.320462
  0
SEQEND
  8
0
  0
POLYLINE
  8
112
 66
1
 10
0.000000
 20
0.000000
 30
0.000000
 40
0.000000
 41
0.000000
 70
1
  0
VERTEX
  8
112
 10
0.572567
 20
1.002068
 30
0.000000
 42
1.000000
  0
VERTEX
  8
112
 10
0.577061
 20
0.999877
 30
0.000000
 42
0.113887
  0
VERTEX
  8
112
 10
0.582397
 20
1.023000
 30
0.000000
 42
1.000000
  0
VERTEX
  8
112
 10
0.577397
 20
1.023000
 30
0.000000
 42
-0.113887
  0
SEQEND
  8
0
  0
POLYLINE
  8
112
 66
1
 10
0.000000
 20
0.000000
 30
0.000000
 40
0.000000
 41
0.000000
 70
1
  0
VERTEX
  8
112
 10
0.562953
 20
0.995000
 30
0.000000
 42
1.000000
  0
VERTEX
  8
112
 10
0.562953
 20
0.990000
 30
0.000000
 42
0.320467
  0
VERTEX
  8
112
 10
0.577178
 20
1.000161
 30
0.000000
 42
1.000000
  0
VERTEX
  8
112
 10
0.572449
 20
1.001783
 30
0.000000
 42
-0.320467
  0
SEQEND
  8
0
  0
POLYLINE
  8
112
 66
1
 10
0.000000
 20
0.000000
 30
0.000000
 40
0.000000
 41
0.000000
 70
1
  0
VERTEX
  8
112
 10
0.551349
 20
1.004494
 30
0.000000
  0
VERTEX
  8
112
 10
0.578460
 20
1.038383
 30
0.000000
 42
1.000000
  0
VERTEX
  8
112
 10
0.574556
 20
1.041506
 30
0.000000
  0
VERTEX
  8
112
 10
0.547445
 20
1.007617
 30
0.000000
 42
1.000000
  0
SEQEND
  8
0
  0
POLYLINE
  8
112
 66
1
 10
0.000000
 20
0.000000
 30
0.000000
 40
0.000000
 41
0.000000
 70
1
  0
VERTEX
  8
112
 10
0.606097
 20
1.037992
 30
0.000000
  0
VERTEX
  8
112
 10
0.623041
 20
1.051548
 30
0.000000
 42
1.000000
  0
VERTEX
  8
112
 10
0.619917
 20
1.055452
 30
0.000000
  0
VERTEX
  8
112
 10
0.602973
 20
1.041897
 30
0.000000
 42
1.000000
  0
SEQEND
  8
0
  0
POLYLINE
  8
112
 66
1
 10
0.000000
 20
0.000000
 30
0.000000
 40
0.000000
 41
0.000000
 70
1
  0
VERTEX
  8
112
 10
0.618979
 20
1.053500
 30
0.000000
  0
VERTEX
  8
112
 10
0.618979
 20
0.992500
 30
0.000000
 42
1.000000
  0
VERTEX
  8
112
 10
0.623979
 20
0.992500
 30
0.000000
  0
VERTEX
  8
112
 10
0.623979
 20
1.053500
 30
0.000000
 42
1.000000
  0
SEQEND
  8
0
  0
POLYLINE
  8
112
 66
1
 10
0.000000
 20
0.000000
 30
0.000000
 40
0.000000
 41
0.000000
 70
1
  0
VERTEX
  8
112
 10
0.604535
 20
0.990000
 30
0.000000
  0
VERTEX
  8
112
 10
0.638424
 20
0.990000
 30
0.000000
 42
1.000000
  0
VERTEX
  8
112
 10
0.638424
 20
0.995000
 30
0.000000
  0
VERTEX
  8
112
 10
0.604535
 20
0.995000
 30
0.000000
 42
1.000000
  0
SEQEND
  8
0
  0
POLYLINE
  8
112
 66
1
 10
0.000000
 20
0.000000
 30
0.000000
 40
0.000000
 41
0.000000
 70
1
  0
VERTEX
  8
112
 10
0.694450
 20
1.009444
 30
0.000000
 42
1.000000
  0
VERTEX
  8
112
 10
0.699450
 20
1.009444
 30
0.000000
 42
1.000000
  0
VERTEX
  8
112
 10
0.660561
 20
1.009444
 30
0.000000
 42
1.000000
  0
VERTEX
  8
112
 10
0.665561
 20
1.009444
 30
0.000000
 42
-1.000000
  0
SEQEND
  8
0
  0
POLYLINE
  8
112
 66
1
 10
0.000000
 20
0.000000
 30
0.000000
 40
0.000000
 41
0.000000
 70
1
  0
VERTEX
  8
112
 10
0.665561
 20
1.009444
 30
0.000000
 42
1.000000
  0
VERTEX
  8
112
 10
0.660561
 20
1.009444
 30
0.000000
 42
1.000000
  0
VERTEX
  8
112
 10
0.699450
 20
1.009444
 30
0.000000
 42
1.000000
  0
VERTEX
  8
112
 10
0.694450
 20
1.009444
 30
0.000000
 42
-1.000000
  0
SEQEND
  8
0
  0
POLYLINE
  8
112
 66
1
 10
0.000000
 20
0.000000
 30
0.000000
 40
0.000000
 41
0.000000
 70
1
  0
VERTEX
  8
112
 10
0.691061
 20
1.039944
 30
0.000000
 42
1.000000
  0
VERTEX
  8
112
 10
0.696061
 20
1.039944
 30
0.000000
 42
1.000000
  0
VERTEX
  8
112
 10
0.663950
 20
1.039944
 30
0.000000
 42
1.000000
  0
VERTEX
  8
112
 10
0.668950
 20
1.039944
 30
0.000000
 42
-1.000000
  0
SEQEND
  8
0
  0
POLYLINE
  8
112
 66
1
 10
0.000000
 20
0.000000
 30
0.000000
 40
0.000000
 41
0.000000
 70
1
  0
VERTEX
  8
112
 10
0.668950
 20
1.039944
 30
0.000000
 42
1.000000
  0
VERTEX
  8
112
 10
0.663950
 20
1.039944
 30
0.000000
 42
1.000000
  0
VERTEX
  8
112
 10
0.696061
 20
1.039944
 30
0.000000
 42
1.000000
  0
VERTEX
  8
112
 10
0.691061
 20
1.039944
 30
0.000000
 42
-1.000000
  0
SEQEND
  8
0
  0
POLYLINE
  8
112
 66
1
 10
0.000000
 20
0.000000
 30
0.000000
 40
0.000000
 41
0.000000
 70
1
  0
VERTEX
  8
112
 10
0.753315
 20
1.013722
 30
0.000000
  0
VERTEX
  8
112
 10
0.793982
 20
1.013722
 30
0.000000
 42
1.000000
  0
VERTEX
  8
112
 10
0.793982
 20
1.018722
 30
0.000000
  0
VERTEX
  8
112
 10
0.753315
 20
1.018722
 30
0.000000
 42
1.000000
  0
SEQEND
  8
0
  0
POLYLINE
  8
112
 66
1
 10
0.000000
 20
0.000000
 30
0.000000
 40
0.000000
 41
0.000000
 70
1
  0
VERTEX
  8
112
 10
0.845511
 20
1.032376
 30
0.000000
  0
VERTEX
  8
112
 10
0.859067
 20
0.991709
 30
0.000000
 42
1.000000
  0
VERTEX
  8
112
 10
0.863810
 20
0.993291
 30
0.000000
  0
VERTEX
  8
112
 10
0.850255
 20
1.033957
 30
0.000000
 42
1.000000
  0
SEQEND
  8
0
  0
POLYLINE
  8
112
 66
1
 10
0.000000
 20
0.000000
 30
0.000000
 40
0.000000
 41
0.000000
 70
1
  0
VERTEX
  8
112
 10
0.863810
 20
0.991709
 30
0.000000
  0
VERTEX
  8
112
 10
0.877366
 20
1.032376
 30
0.000000
 42
1.000000
  0
VERTEX
  8
112
 10
0.872622
 20
1.033957
 30
0.000000
  0
VERTEX
  8
112
 10
0.859067
 20
0.993291
 30
0.000000
 42
1.000000
  0
SEQEND
  8
0
  0
POLYLINE
  8
112
 66
1
 10
0.000000
 20
0.000000
 30
0.000000
 40
0.000000
 41
0.000000
 70
1
  0
VERTEX
  8
112
 10
0.928557
 20
1.038250
 30
0.000000
 42
1.000000
  0
VERTEX
  8
112
 10
0.933557
 20
1.038250
 30
0.000000
 42
0.414214
  0
VERTEX
  8
112
 10
0.915807
 20
1.056000
 30
0.000000
 42
1.000000
  0
VERTEX
  8
112
 10
0.915807
 20
1.051000
 30
0.000000
 42
-0.414214
  0
SEQEND
  8
0
  0
POLYLINE
  8
112
 66
1
 10
0.000000
 20
0.000000
 30
0.000000
 40
0.000000
 41
0.000000
 70
1
  0
VERTEX
  8
112
 10
0.915807
 20
1.051000
 30
0.000000
 42
1.000000
  0
VERTEX
  8
112
 10
0.915807
 20
1.056000
 30
0.000000
 42
0.325187
  0
VERTEX
  8
112
 10
0.894790
 20
1.040715
 30
0.000000
 42
1.000000
  0
VERTEX
  8
112
 10
0.899546
 20
1.039174
 30
0.000000
 42
-0.325187
  0
SEQEND
  8
0
  0
POLYLINE
  8
112
 66
1
 10
0.000000
 20
0.000000
 30
0.000000
 40
0.000000
 41
0.000000
 70
1
  0
VERTEX
  8
112
 10
0.924249
 20
1.028199
 30
0.000000
 42
1.000000
  0
VERTEX
  8
112
 10
0.927698
 20
1.024578
 30
0.000000
 42
0.205254
  0
VERTEX
  8
112
 10
0.933557
 20
1.038250
 30
0.000000
 42
1.000000
  0
VERTEX
  8
112
 10
0.928557
 20
1.038250
 30
0.000000
 42
-0.205254
  0
SEQEND
  8
0
  0
POLYLINE
  8
112
 66
1
 10
0.000000
 20
0.000000
 30
0.000000
 40
0.000000
 41
0.000000
 70
1
  0
VERTEX
  8
112
 10
0.924069
 20
1.028008
 30
0.000000
  0
VERTEX
  8
112
 10
0.895263
 20
0.994119
 30
0.000000
 42
1.000000
  0
VERTEX
  8
112
 10
0.899073
 20
0.990881
 30
0.000000
  0
VERTEX
  8
112
 10
0.927878
 20
1.024770
 30
0.000000
 42
1.000000
  0
SEQEND
  8
0
  0
POLYLINE
  8
112
 66
1
 10
0.000000
 20
0.000000
 30
0.000000
 40
0.000000
 41
0.000000
 70
1
  0
VERTEX
  8
112
 10
0.897168
 20
0.990000
 30
0.000000
  0
VERTEX
  8
112
 10
0.931057
 20
0.990000
 30
0.000000
 42
1.000000
  0
VERTEX
  8
112
 10
0.931057
 20
0.995000
 30
0.000000
  0
VERTEX
  8
112
 10
0.897168
 20
0.995000
 30
0.000000
 42
1.000000
  0
SEQEND
  8
0
  0
CIRCLE
  8
44
 10
0.175000
 20
1.100000
 30
0.000000
 40
0.059500
  0
CIRCLE
  8
44
 10
0.175000
 20
1.100000
 30
0.000000
 40
0.065500
  0
CIRCLE
  8
44
 10
0.925000
 20
1.100000
 30
0.000000
 40
0.059500
  0
CIRCLE
  8
44
 10
0.925000
 20
1.100000
 30
0.000000
 40
0.065500
  0
CIRCLE
  8
44
 10
0.060000
 20
0.575000
 30
0.000000
 40
0.059500
  0
CIRCLE
  8
44
 10
0.060000
 20
0.575000
 30
0.000000
 40
0.065500
  0
CIRCLE
  8
44
 10
1.040000
 20
0.575000
 30
0.000000
 40
0.059500
  0
CIRCLE
  8
44
 10
1.040000
 20
0.575000
 30
0.000000
 40
0.065500
  0
CIRCLE
  8
44
 10
0.175000
 20
0.900000
 30
0.000000
 40
0.059500
  0
CIRCLE
  8
44
 10
0.175000
 20
0.900000
 30
0.000000
 40
0.065500
  0
INSERT
  8
17
  2
ROUNDP
 10
0.670000
 20
0.910000
 30
0.000000
 41
0.066000
 42
0.066000
 43
1.000000
 50
0.000000
  0
INSERT
  8
17
  2
ROUNDP
 10
0.670000
 20
0.910000
 30
0.000000
 41
0.066000
 42
0.066000
 43
1.000000
 50
0.000000
  0
CIRCLE
  8
44
 10
0.670000
 20
0.910000
 30
0.000000
 40
0.019685
  0
INSERT
  8
17
  2
ROUNDP
 10
0.435000
 20
0.750000
 30
0.000000
 41
0.066000
 42
0.066000
 43
1.000000
 50
270.000000
  0
INSERT
  8
17
  2
ROUNDP
 10
0.435000
 20
0.750000
 30
0.000000
 41
0.066000
 42
0.066000
 43
1.000000
 50
270.000000
  0
CIRCLE
  8
44
 10
0.435000
 20
0.750000
 30
0.000000
 40
0.019685
  0
INSERT
  8
17
  2
ROUNDP
 10
0.435000
 20
0.650000
 30
0.000000
 41
0.066000
 42
0.066000
 43
1.000000
 50
270.000000
  0
INSERT
  8
17
  2
ROUNDP
 10
0.435000
 20
0.650000
 30
0.000000
 41
0.066000
 42
0.066000
 43
1.000000
 50
270.000000
  0
CIRCLE
  8
44
 10
0.435000
 20
0.650000
 30
0.000000
 40
0.019685
  0
INSERT
  8
17
  2
ROUNDP
 10
0.435000
 20
0.550000
 30
0.000000
 41
0.066000
 42
0.066000
 43
1.000000
 50
270.000000
  0
INSERT
  8
17
  2
ROUNDP
 10
0.435000
 20
0.550000
 30
0.000000
 41
0.066000
 42
0.066000
 43
1.000000
 50
270.000000
  0
CIRCLE
  8
44
 10
0.435000
 20
0.550000
 30
0.000000
 40
0.019685
  0
INSERT
  8
17
  2
ROUNDP
 10
0.825000
 20
0.300000
 30
0.000000
 41
0.066000
 42
0.066000
 43
1.000000
 50
0.000000
  0
INSERT
  8
17
  2
ROUNDP
 10
0.825000
 20
0.300000
 30
0.000000
 41
0.066000
 42
0.066000
 43
1.000000
 50
0.000000
  0
CIRCLE
  8
44
 10
0.825000
 20
0.300000
 30
0.000000
 40
0.019685
  0
INSERT
  8
17
  2
ROUNDP
 10
0.925000
 20
0.300000
 30
0.000000
 41
0.066000
 42
0.066000
 43
1.000000
 50
0.000000
  0
INSERT
  8
17
  2
ROUNDP
 10
0.925000
 20
0.300000
 30
0.000000
 41
0.066000
 42
0.066000
 43
1.000000
 50
0.000000
  0
CIRCLE
  8
44
 10
0.925000
 20
0.300000
 30
0.000000
 40
0.019685
  0
INSERT
  8
17
  2
ROUNDP
 10
1.025000
 20
0.300000
 30
0.000000
 41
0.066000
 42
0.066000
 43
1.000000
 50
0.000000
  0
INSERT
  8
17
  2
ROUNDP
 10
1.025000
 20
0.300000
 30
0.000000
 41
0.066000
 42
0.066000
 43
1.000000
 50
0.000000
  0
CIRCLE
  8
44
 10
1.025000
 20
0.300000
 30
0.000000
 40
0.019685
  0
INSERT
  8
17
  2
ROUNDP
 10
0.075000
 20
0.300000
 30
0.000000
 41
0.066000
 42
0.066000
 43
1.000000
 50
0.000000
  0
INSERT
  8
17
  2
ROUNDP
 10
0.075000
 20
0.300000
 30
0.000000
 41
0.066000
 42
0.066000
 43
1.000000
 50
0.000000
  0
CIRCLE
  8
44
 10
0.075000
 20
0.300000
 30
0.000000
 40
0.019685
  0
INSERT
  8
17
  2
ROUNDP
 10
0.175000
 20
0.300000
 30
0.000000
 41
0.066000
 42
0.066000
 43
1.000000
 50
0.000000
  0
INSERT
  8
17
  2
ROUNDP
 10
0.175000
 20
0.300000
 30
0.000000
 41
0.066000
 42
0.066000
 43
1.000000
 50
0.000000
  0
CIRCLE
  8
44
 10
0.175000
 20
0.300000
 30
0.000000
 40
0.019685
  0
INSERT
  8
17
  2
ROUNDP
 10
0.275000
 20
0.300000
 30
0.000000
 41
0.066000
 42
0.066000
 43
1.000000
 50
0.000000
  0
INSERT
  8
17
  2
ROUNDP
 10
0.275000
 20
0.300000
 30
0.000000
 41
0.066000
 42
0.066000
 43
1.000000
 50
0.000000
  0
CIRCLE
  8
44
 10
0.275000
 20
0.300000
 30
0.000000
 40
0.019685
  0
INSERT
  8
17
  2
ROUNDP
 10
0.400000
 20
0.300000
 30
0.000000
 41
0.066000
 42
0.066000
 43
1.000000
 50
0.000000
  0
INSERT
  8
17
  2
ROUNDP
 10
0.400000
 20
0.300000
 30
0.000000
 41
0.066000
 42
0.066000
 43
1.000000
 50
0.000000
  0
CIRCLE
  8
44
 10
0.400000
 20
0.300000
 30
0.000000
 40
0.019685
  0
INSERT
  8
17
  2
ROUNDP
 10
0.500000
 20
0.300000
 30
0.000000
 41
0.066000
 42
0.066000
 43
1.000000
 50
0.000000
  0
INSERT
  8
17
  2
ROUNDP
 10
0.500000
 20
0.300000
 30
0.000000
 41
0.066000
 42
0.066000
 43
1.000000
 50
0.000000
  0
CIRCLE
  8
44
 10
0.500000
 20
0.300000
 30
0.000000
 40
0.019685
  0
INSERT
  8
17
  2
ROUNDP
 10
0.600000
 20
0.300000
 30
0.000000
 41
0.066000
 42
0.066000
 43
1.000000
 50
0.000000
  0
INSERT
  8
17
  2
ROUNDP
 10
0.600000
 20
0.300000
 30
0.000000
 41
0.066000
 42
0.066000
 43
1.000000
 50
0.000000
  0
CIRCLE
  8
44
 10
0.600000
 20
0.300000
 30
0.000000
 40
0.019685
  0
INSERT
  8
17
  2
ROUNDP
 10
0.700000
 20
0.300000
 30
0.000000
 41
0.066000
 42
0.066000
 43
1.000000
 50
0.000000
  0
INSERT
  8
17
  2
ROUNDP
 10
0.700000
 20
0.300000
 30
0.000000
 41
0.066000
 42
0.066000
 43
1.000000
 50
0.000000
  0
CIRCLE
  8
44
 10
0.700000
 20
0.300000
 30
0.000000
 40
0.019685
  0
INSERT
  8
18
  2
ROUNDV
 10
0.435000
 20
0.900000
 30
0.000000
 41
0.031748
 42
0.031748
 43
1.000000
 50
0.000000
  0
INSERT
  8
18
  2
ROUNDV
 10
0.435000
 20
0.900000
 30
0.000000
 41
0.031748
 42
0.031748
 43
1.000000
 50
0.000000
  0
CIRCLE
  8
44
 10
0.435000
 20
0.900000
 30
0.000000
 40
0.007874
  0
LINE
  8
19
 10
0.628500
 20
0.800000
 30
0.000000
 11
0.630000
 21
0.800000
 31
0.000000
  0
INSERT
  8
18
  2
ROUNDV
 10
0.435000
 20
0.830000
 30
0.000000
 41
0.031748
 42
0.031748
 43
1.000000
 50
0.000000
  0
INSERT
  8
18
  2
ROUNDV
 10
0.435000
 20
0.830000
 30
0.000000
 41
0.031748
 42
0.031748
 43
1.000000
 50
0.000000
  0
CIRCLE
  8
44
 10
0.435000
 20
0.830000
 30
0.000000
 40
0.007874
  0
INSERT
  8
18
  2
ROUNDV
 10
0.175000
 20
0.500000
 30
0.000000
 41
0.031748
 42
0.031748
 43
1.000000
 50
0.000000
  0
INSERT
  8
18
  2
ROUNDV
 10
0.175000
 20
0.500000
 30
0.000000
 41
0.031748
 42
0.031748
 43
1.000000
 50
0.000000
  0
CIRCLE
  8
44
 10
0.175000
 20
0.500000
 30
0.000000
 40
0.007874
  0
INSERT
  8
18
  2
ROUNDV
 10
0.925000
 20
0.650000
 30
0.000000
 41
0.031748
 42
0.031748
 43
1.000000
 50
0.000000
  0
INSERT
  8
18
  2
ROUNDV
 10
0.925000
 20
0.650000
 30
0.000000
 41
0.031748
 42
0.031748
 43
1.000000
 50
0.000000
  0
CIRCLE
  8
44
 10
0.925000
 20
0.650000
 30
0.000000
 40
0.007874
  0
INSERT
  8
18
  2
ROUNDV
 10
0.925000
 20
0.850000
 30
0.000000
 41
0.031748
 42
0.031748
 43
1.000000
 50
0.000000
  0
INSERT
  8
18
  2
ROUNDV
 10
0.925000
 20
0.850000
 30
0.000000
 41
0.031748
 42
0.031748
 43
1.000000
 50
0.000000
  0
CIRCLE
  8
44
 10
0.925000
 20
0.850000
 30
0.000000
 40
0.007874
  0
INSERT
  8
18
  2
ROUNDV
 10
0.675000
 20
0.652500
 30
0.000000
 41
0.031748
 42
0.031748
 43
1.000000
 50
0.000000
  0
INSERT
  8
18
  2
ROUNDV
 10
0.675000
 20
0.652500
 30
0.000000
 41
0.031748
 42
0.031748
 43
1.000000
 50
0.000000
  0
CIRCLE
  8
44
 10
0.675000
 20
0.652500
 30
0.000000
 40
0.007874
  0
INSERT
  8
18
  2
ROUNDV
 10
0.675000
 20
0.550000
 30
0.000000
 41
0.031748
 42
0.031748
 43
1.000000
 50
0.000000
  0
INSERT
  8
18
  2
ROUNDV
 10
0.675000
 20
0.550000
 30
0.000000
 41
0.031748
 42
0.031748
 43
1.000000
 50
0.000000
  0
CIRCLE
  8
44
 10
0.675000
 20
0.550000
 30
0.000000
 40
0.007874
  0
INSERT
  8
18
  2
ROUNDV
 10
0.175000
 20
0.700000
 30
0.000000
 41
0.031748
 42
0.031748
 43
1.000000
 50
0.000000
  0
INSERT
  8
18
  2
ROUNDV
 10
0.175000
 20
0.700000
 30
0.000000
 41
0.031748
 42
0.031748
 43
1.000000
 50
0.000000
  0
CIRCLE
  8
44
 10
0.175000
 20
0.700000
 30
0.000000
 40
0.007874
  0
INSERT
  8
18
  2
ROUNDV
 10
0.175000
 20
0.600000
 30
0.000000
 41
0.031748
 42
0.031748
 43
1.000000
 50
0.000000
  0
INSERT
  8
18
  2
ROUNDV
 10
0.175000
 20
0.600000
 30
0.000000
 41
0.031748
 42
0.031748
 43
1.000000
 50
0.000000
  0
CIRCLE
  8
44
 10
0.175000
 20
0.600000
 30
0.000000
 40
0.007874
  0
ENDSEC
  0
EOF
